<?xml version="1.0" encoding="utf-8"?>
<!-- Generator: Adobe Illustrator 16.0.0, SVG Export Plug-In . SVG Version: 6.00 Build 0)  -->
<!DOCTYPE svg PUBLIC "-//W3C//DTD SVG 1.1//EN" "http://www.w3.org/Graphics/SVG/1.1/DTD/svg11.dtd">
<svg version="1.1" id="Layer_1" xmlns="http://www.w3.org/2000/svg" xmlns:xlink="http://www.w3.org/1999/xlink" x="0px" y="0px"
	 width="186.381px" height="360px" viewBox="0 0 186.381 360" enable-background="new 0 0 186.381 360" xml:space="preserve">
<path fill-rule="evenodd" clip-rule="evenodd" fill="#FFFFFF" d="M53.661,360.359c-0.369-46.707-0.337-109.121-0.022-155.833
	c0.05-7.399-2.135-9.68-9.457-9.361c-12.488,0.547-25.027,0.393-37.519-0.099c-2.272-0.088-6.306-3.143-6.346-4.902
	c-0.454-19.953-0.287-39.921-0.287-60.737c3.65-0.198,6.593-0.485,9.538-0.5c12.233-0.052,24.472-0.222,36.698,0.066
	c5.413,0.126,7.4-1.726,7.299-7.206c-0.263-14.177-0.614-28.384,0.025-42.534c1.67-37.08,18.164-66.461,54.488-75.785
	c14.998-3.854,31.254-3.021,46.963-3.779c7.166-0.349,14.396,0.593,21.594,0.979c6.436,0.344,10.015,2.73,9.73,10.217
	c-0.529,13.883-0.289,27.799-0.11,41.699c0.071,5.6-1.882,7.795-7.782,7.782c-11.358-0.019-22.739,0.477-34.07,1.329
	c-15.238,1.147-22.355,8.783-22.767,24.288c-0.319,11.949,0.142,23.918-0.164,35.863c-0.142,5.567,2.028,7.213,7.358,7.141
	c17.771-0.229,35.546-0.087,54.849-0.087c-0.841,9.015-1.431,17.412-2.456,25.759c-1.349,10.989-3.539,21.897-4.394,32.917
	c-0.499,6.417-3.262,7.909-8.949,7.808c-13.064-0.228-26.139,0.124-39.201-0.152c-5.477-0.114-7.222,1.889-7.203,7.296
	c0.15,48.098,0.176,109.73-0.022,157.832C93.189,360.359,82.979,360.359,53.661,360.359z"/>
</svg>
