<?xml version="1.0" encoding="utf-8"?>
<!-- Generator: Adobe Illustrator 16.0.0, SVG Export Plug-In . SVG Version: 6.00 Build 0)  -->
<!DOCTYPE svg PUBLIC "-//W3C//DTD SVG 1.1//EN" "http://www.w3.org/Graphics/SVG/1.1/DTD/svg11.dtd">
<svg version="1.1" id="Layer_1" xmlns="http://www.w3.org/2000/svg" xmlns:xlink="http://www.w3.org/1999/xlink" x="0px" y="0px"
	 width="360px" height="360px" viewBox="0 0 360 360" enable-background="new 0 0 360 360" xml:space="preserve">
<g>
	<path fill-rule="evenodd" clip-rule="evenodd" fill="#FFFFFF" d="M180.075,360c-26.381-0.393-52.797-0.045-79.132-1.379
		c-29.273-1.49-54.89-12.156-74.324-35.133c-9.675-11.434-15.871-24.688-19.713-39.133c-3.691-13.873-4.585-28.107-5.296-42.318
		c-2.106-42.322-2.195-84.676,0.028-126.99c0.687-13.059,1.75-26.262,4.483-39.004c6.397-29.791,23.615-51.49,51.602-64.102
		c13.859-6.242,28.531-9.125,43.617-10.398c42.299-3.58,84.668-2.047,127.012-1.791c13.975,0.084,28.029,1.309,41.886,3.205
		c24.951,3.428,47.153,12.947,64.041,32.562c10.312,11.975,17.03,25.873,19.777,41.344c2.135,12.059,3.584,24.316,4.223,36.547
		c2.296,43.762,2.301,87.561,0.014,131.326c-0.659,12.641-1.725,25.432-4.418,37.756c-6.894,31.568-25.167,54.367-55.136,67.16
		c-16.461,7.025-33.777,9.564-51.566,9.537c-22.363-0.043-44.728-0.012-67.093-0.012C180.078,359.451,180.075,359.729,180.075,360z
		 M182.555,39.213c-21.852,0-43.709-0.129-65.558,0.051c-13.212,0.104-26.349,1.209-39.005,5.463
		C61.624,50.223,49.86,60.49,43.985,77.143c-3.876,10.984-4.898,22.441-5.146,33.848c-0.749,34.59-1.27,69.201-1.146,103.797
		c0.066,19.281,0.247,38.684,4.347,57.678c3.213,14.916,11.153,26.689,24.687,34.254c12.931,7.223,27.104,9.602,41.621,10.07
		c47.61,1.533,95.23,1.488,142.847,0.039c11.074-0.336,21.956-1.938,32.42-5.689c15.598-5.598,26.704-15.783,32.337-31.703
		c4.059-11.477,5.007-23.445,5.263-35.379c0.706-33.254,1.212-66.518,1.138-99.773c-0.044-20.012-0.186-40.131-4.308-59.854
		c-4.195-20.107-16.531-33.162-35.874-39.67c-12.658-4.256-25.792-5.379-39.003-5.496C222.964,39.084,202.76,39.219,182.555,39.213z
		"/>
	<path fill-rule="evenodd" clip-rule="evenodd" fill="#FFFFFF" d="M91.658,183.238c0.018-37.328,22.435-70.438,56.725-83.779
		c33.548-13.059,72.101-3.637,96.196,24.084c19.746,22.713,26.822,49.27,20.354,78.68c-7.341,33.406-27.761,56.039-60.18,66.572
		c-42.52,13.814-89.739-9.217-106.285-50.895C93.566,205.549,91.653,195.811,91.658,183.238z M230.083,183.547
		c0.442-28.143-22.038-51.617-49.864-52.084c-28.201-0.471-51.151,22.307-51.675,51.279c-0.503,27.949,22.28,51.896,49.792,52.311
		C206.922,235.484,230.128,211.979,230.083,183.547z"/>
	<path fill-rule="evenodd" clip-rule="evenodd" fill="#FFFFFF" d="M254.564,94.912c-0.049-11.494,8.856-20.682,20.094-20.725
		c11.22-0.045,20.385,9.115,20.481,20.467c0.098,11.35-8.971,20.639-20.221,20.715C263.628,115.445,254.609,106.381,254.564,94.912z
		"/>
</g>
</svg>
