<?xml version="1.0" encoding="utf-8"?>
<!-- Generator: Adobe Illustrator 16.0.0, SVG Export Plug-In . SVG Version: 6.00 Build 0)  -->
<!DOCTYPE svg PUBLIC "-//W3C//DTD SVG 1.1//EN" "http://www.w3.org/Graphics/SVG/1.1/DTD/svg11.dtd">
<svg version="1.1" id="Layer_1" xmlns="http://www.w3.org/2000/svg" xmlns:xlink="http://www.w3.org/1999/xlink" x="0px" y="0px"
	 width="360px" height="213.662px" viewBox="0 0 360 213.662" enable-background="new 0 0 360 213.662" xml:space="preserve">
<path fill-rule="evenodd" clip-rule="evenodd" fill="#FFFFFF" d="M209.979,53.011c0,12.631-0.001,25.263,0.002,37.896
	c0,2.101,0.039,4.189,0.562,6.264c1.53,6.049,5.141,7.931,10.71,5.109c5.83-2.954,10.352-7.614,14.558-12.488
	c16.32-18.907,28.663-40.354,39.56-62.688c2.61-5.353,5.054-10.796,7.473-16.231c3.258-7.338,8.914-10.856,16.85-10.858
	c13.217-0.011,26.433-0.012,39.65,0.011c1.393,0.008,2.811,0.111,4.178,0.38c6.831,1.32,9.449,5.348,7.947,12.199
	c-1.057,4.814-2.782,9.399-4.903,13.843c-9.686,20.321-22.032,39.071-34.394,57.799c-4.574,6.93-9.423,13.668-14.014,20.58
	c-5.329,8.03-5.213,11.072,0.853,18.494c5.267,6.435,11.675,11.799,17.365,17.84c13.313,14.141,26.32,28.553,36.801,45.008
	c2.771,4.35,5.17,8.885,5.891,14.121c0.865,6.302-2.063,10.758-8.186,12.343c-2.283,0.587-4.605,0.738-6.956,0.735
	c-11.929-0.022-23.866-0.265-35.787,0.076c-8.216,0.233-14.854-2.61-20.341-8.437c-7.376-7.83-14.58-15.827-21.969-23.646
	c-8.931-9.453-18.372-18.361-29.221-25.62c-5.274-3.525-10.764-6.601-17.49-6.317c-5.757,0.241-7.835,1.85-8.701,7.465
	c-0.336,2.183-0.411,4.417-0.419,6.633c-0.039,11.343-0.005,22.691-0.024,34.036c-0.015,9.045-2.898,12.773-11.909,14.428
	c-16.809,3.084-33.342,1.176-49.512-3.842c-30.058-9.323-54.746-27.013-74.326-51.19C44.081,119.722,20.241,78.733,4.905,33.109
	C2.93,27.229,1.371,21.235,0.367,15.113C-1.298,4.971,2.669,0.115,12.889,0.039C26.339-0.055,39.79,0.055,53.24,0.003
	c7.105-0.026,12.129,3.124,14.824,9.659c4.674,11.332,8.452,23.021,13.479,34.226c9.783,21.807,20.693,42.958,35.568,61.828
	c2.971,3.765,6.15,7.359,9.892,10.401c1.729,1.408,3.526,2.721,5.641,3.486c4.71,1.717,8.192-0.127,9.152-5.031
	c0.469-2.395,0.742-4.868,0.748-7.31c0.069-19.767,0.194-39.537,0.002-59.297c-0.102-10.557-3.109-20.282-10.078-28.513
	c-1.133-1.343-2.173-2.761-3.193-4.183c-2.183-3.042-3.088-6.346-1.338-9.875c1.85-3.729,5.085-5.306,9.148-5.386
	c0.468-0.006,0.936,0,1.402,0c19.65,0,39.299-0.007,58.948,0c8.604,0.007,11.865,3.043,12.456,11.597
	c0.11,1.629,0.086,3.271,0.086,4.91C209.983,28.678,209.979,40.844,209.979,53.011z"/>
</svg>
