<?xml version="1.0" encoding="utf-8"?>
<!-- Generator: Adobe Illustrator 16.0.0, SVG Export Plug-In . SVG Version: 6.00 Build 0)  -->
<!DOCTYPE svg PUBLIC "-//W3C//DTD SVG 1.1//EN" "http://www.w3.org/Graphics/SVG/1.1/DTD/svg11.dtd">
<svg version="1.1" id="Layer_1" xmlns="http://www.w3.org/2000/svg" xmlns:xlink="http://www.w3.org/1999/xlink" x="0px" y="0px"
	 width="379.009px" height="360px" viewBox="0 0 379.009 360" enable-background="new 0 0 379.009 360" xml:space="preserve">
<g>
	<path fill-rule="evenodd" clip-rule="evenodd" fill="#FFFFFF" d="M0,229.409c0.733-3.111,1.374-6.25,2.211-9.337
		c6.308-23.308,21.133-38.85,43.858-46.391c6.758-2.24,14.248-3.146,21.406-3.159c81.26-0.201,162.521-0.159,243.786-0.074
		c21.384,0.02,39.229,8.049,52.869,24.716c8.888,10.866,14.008,23.485,14.34,37.438c0.517,21.663,0.93,43.387-0.084,65.009
		c-1.054,22.574-12.018,40.166-31.319,52.224c-10.981,6.858-23.055,9.733-35.966,9.728c-81.26-0.05-162.523,0.006-243.785-0.043
		c-23.518-0.02-42.245-9.6-55.85-28.843c-5.369-7.595-8.655-16.107-10.343-25.248c-0.29-1.56-0.746-3.092-1.125-4.631
		C0,277,0,253.205,0,229.409z M193.243,332.061c7.548,0,14.75,0,22.295,0c0-3.038,0-5.888,0-8.924
		c3.647,2.631,6.841,5.23,10.314,7.384c10.146,6.293,26.904,2.854,27.309-12.746c0.037-1.304,0.244-2.612,0.248-3.914
		c0.045-20.259,0.096-40.519,0.063-60.769c-0.004-3.423-0.226-6.853-0.599-10.256c-0.479-4.382-2.238-8.074-6.217-10.49
		c-6.79-4.124-13.646-3.888-20.353-0.102c-3.689,2.086-7.044,4.765-10.927,7.438c0-14.736,0-29.093,0-43.52
		c-7.549,0-14.807,0-22.135,0C193.243,241.587,193.243,286.702,193.243,332.061z M168.945,332.061
		c0.13-0.461,0.283-0.74,0.283-1.021c0.016-32.769,0.01-65.536,0.061-98.303c0.003-2.032-0.996-2.288-2.63-2.276
		c-5.143,0.056-10.284,0.02-15.424,0.029c-4.385,0-4.385,0-4.385,4.392c0,25.107,0.013,50.214-0.044,75.319
		c-0.004,1.182-0.283,2.909-1.069,3.436c-2.052,1.377-4.365,2.612-6.749,3.206c-4.732,1.182-7.308-0.938-7.681-5.84
		c-0.11-1.411-0.112-2.822-0.112-4.231c-0.007-24.303-0.045-48.598,0.047-72.894c0.01-2.6-0.593-3.564-3.345-3.456
		c-5.234,0.216-10.488,0.203-15.726,0.008c-2.643-0.102-3.42,0.662-3.405,3.362c0.111,22.182,0.056,44.365,0.066,66.545
		c0.004,5.14-0.057,10.282,0.121,15.418c0.212,6.097,1.172,11.963,7.316,15.222c6.777,3.602,13.584,3.378,20.182-0.368
		c3.528-1.999,6.816-4.424,10.347-6.745c0.701,2.944,1.343,5.644,1.952,8.197C155.713,332.061,162.33,332.061,168.945,332.061z
		 M299.513,284.778c0.944-0.055,2.123-0.176,3.304-0.176c10.583-0.019,21.17-0.014,31.755-0.019c1.49,0,3.122,0.315,3.098-2.115
		c-0.09-9.975,0.285-19.982-0.255-29.933c-0.53-9.754-5.608-16.762-14.873-20.523c-7.854-3.179-15.96-3.211-24.104-1.868
		c-13.205,2.174-20.676,10.39-21.414,23.764c-0.442,7.937-0.351,15.916-0.334,23.876c0.024,10.583-0.236,21.192,0.462,31.733
		c0.633,9.492,5.033,17.066,14.299,21.077c8.196,3.544,16.645,3.448,25.21,1.923c5.919-1.053,11.118-3.544,15.083-8.174
		c6.935-8.107,6.484-17.741,5.703-27.603c-7.378,0-14.566,0-22.082,0c0,1.288,0.026,2.375-0.009,3.461
		c-0.102,3.524-0.028,7.067-0.404,10.572c-0.415,3.929-3.466,6.283-7.581,6.311c-4.438,0.028-7.607-1.802-7.75-5.526
		C299.285,302.735,299.513,293.898,299.513,284.778z M81.618,332.128c0-1.44,0-2.628,0-3.809
		c-0.004-37.103,0.027-74.202-0.067-111.305c-0.008-2.786,0.762-3.632,3.538-3.531c5.64,0.204,11.289-0.013,16.933,0.095
		c2.079,0.036,2.876-0.633,2.802-2.774c-0.135-3.818-0.227-7.669,0.02-11.482c0.182-2.87-0.867-3.544-3.581-3.531
		c-20.768,0.103-41.536,0.056-62.305,0.062c-1.084,0-2.167,0-3.642,0c0,4.787-0.003,9.195,0,13.608
		c0.004,4.071,0.004,4.079,4.113,4.085c5.916,0,11.83,0,18.102,0c0,39.732,0,79.091,0,118.583
		C65.626,332.128,73.358,332.128,81.618,332.128z"/>
	<path fill-rule="evenodd" clip-rule="evenodd" fill="#FFFFFF" d="M284.931,38.482c8.191,0,16.005,0,24.05,0
		c0,37.142,0,74.175,0,111.594c-6.919,0-13.837,0.054-20.751-0.082c-0.62-0.013-1.544-1.126-1.762-1.889
		c-0.646-2.301-1.014-4.686-1.608-7.61c-2.296,1.701-4.239,3.183-6.22,4.604c-7.17,5.159-14.794,8.076-23.775,5.227
		c-6.286-1.992-10.182-6.07-11.087-12.562c-0.623-4.477-0.876-9.035-0.89-13.557c-0.079-27.421,0.008-54.841-0.102-82.262
		c-0.013-2.931,0.82-3.815,3.729-3.701c5.739,0.215,11.497,0.23,17.231-0.008c3.032-0.127,3.649,0.961,3.638,3.784
		c-0.099,26.509-0.06,53.018-0.056,79.533c0,1.41-0.019,2.822,0.049,4.233c0.322,6.656,3.981,9.286,10.335,7.157
		c2.253-0.76,4.431-2.014,6.313-3.471c0.761-0.587,0.867-2.311,0.871-3.52c0.044-27.823,0.034-55.645,0.034-83.469
		C284.931,41.281,284.931,40.073,284.931,38.482z"/>
	<path fill-rule="evenodd" clip-rule="evenodd" fill="#FFFFFF" d="M148.318,0.062c-2.062,6.36-3.94,12.287-5.91,18.188
		c-7.308,21.852-14.69,43.689-21.916,65.574c-0.834,2.518-1.213,5.306-1.225,7.967c-0.105,18.146-0.055,36.284-0.058,54.423
		c0,1.182,0,2.362,0,3.707c-8.779,0-17.196,0-26.104,0c0-1.182,0-2.342,0-3.496c0-14.716-0.364-29.448,0.125-44.143
		c0.337-10.065-1.506-19.458-4.775-28.901C80.35,49.997,72.69,26.457,64.863,2.971c-0.281-0.836-0.446-1.712-0.749-2.894
		c9.093,0,17.939-0.042,26.786,0.095c0.645,0.011,1.633,1.29,1.846,2.133c4.043,16.105,8,32.24,11.969,48.368
		c0.452,1.83,0.901,3.659,2.07,5.61c0.303-0.831,0.688-1.641,0.897-2.499c4.104-16.821,8.239-33.629,12.229-50.48
		c0.596-2.519,1.65-3.374,4.263-3.299c6.949,0.186,13.906,0.057,20.862,0.057C146.006,0.062,146.974,0.062,148.318,0.062z"/>
	<path fill-rule="evenodd" clip-rule="evenodd" fill="#FFFFFF" d="M216.739,94.505c0,9.665,0.186,19.334-0.043,28.993
		c-0.363,15.114-8.964,25.268-24.416,27.312c-8.957,1.188-17.865,1.141-26.411-2.536c-9.779-4.215-14.019-12.213-15.233-22.218
		c-0.397-3.288-0.411-6.635-0.422-9.95c-0.037-15.419-0.223-30.831,0.099-46.234c0.112-5.361,0.853-10.917,2.5-15.993
		c2.518-7.755,8.5-12.583,16.293-14.846c11.178-3.231,22.372-3.178,33.082,1.635c9.221,4.146,13.758,12.069,14.248,21.826
		c0.543,10.645,0.124,21.337,0.124,32.002C216.62,94.505,216.677,94.505,216.739,94.505z M192.551,94.464c-0.08,0-0.162,0-0.242,0
		c0-10.564,0.168-21.138-0.07-31.7c-0.115-5.064-3.531-7.735-8.885-7.833c-4.489-0.073-7.719,2.721-8.376,7.38
		c-0.24,1.681-0.333,3.401-0.333,5.109c-0.022,17.918-0.022,35.84,0.004,53.758c0,1.7,0.083,3.435,0.38,5.101
		c0.893,5.052,4.016,7.474,9.113,7.244c4.833-0.223,7.703-2.984,8.178-7.967c0.155-1.599,0.218-3.212,0.222-4.819
		C192.565,111.977,192.551,103.221,192.551,94.464z"/>
	<path fill-rule="evenodd" clip-rule="evenodd" fill="#FFFFFF" d="M215.44,281.423c0-9.478,0.072-18.964-0.059-28.434
		c-0.03-2.304,0.45-3.874,2.721-4.679c2.245-0.796,4.398-2.119,6.696-2.425c3.732-0.493,5.774,1.5,6.222,5.34
		c0.148,1.297,0.175,2.615,0.175,3.925c0.015,17.542,0.011,35.089,0.006,52.628c0,0.605,0.009,1.212-0.016,1.813
		c-0.287,6.846-3.857,9.146-10.266,6.611c-5.06-2.007-5.478-2.628-5.479-8.163C215.44,299.163,215.44,290.294,215.44,281.423z"/>
	<path fill-rule="evenodd" clip-rule="evenodd" fill="#FFFFFF" d="M315.202,269.926c-5.501,0-10.688,0-15.947,0
		c0-6.184-0.296-12.203,0.105-18.181c0.271-4.034,3.523-6.056,8.06-5.96c4.628,0.101,7.508,2.201,7.711,6.367
		C315.41,257.963,315.202,263.796,315.202,269.926z"/>
</g>
</svg>
