<svg xmlns="http://www.w3.org/2000/svg" width="67" height="67" viewBox="0 0 67 67">
    <defs>
        <linearGradient id="a" x1="100%" x2="6.14%" y1="100%" y2="0%">
            <stop offset="0%" stop-color="#FAE017"/>
            <stop offset="100%" stop-color="#E03012"/>
        </linearGradient>
    </defs>
    <g fill="none" fill-rule="evenodd">
        <circle cx="33.5" cy="33.5" r="33.5" fill="url(#a)"/>
        <path fill="#FFF" fill-rule="nonzero" d="M43 20.965a12.625 12.625 0 0 0-9-3.51 12.626 12.626 0 0 0-9.1 3.51 12.143 12.143 0 0 0-3.4 9.13c0 6.014 4.025 13.034 11.6 20.815l.9.908.9-.908c7.65-7.805 11.55-14.727 11.6-20.84a12.148 12.148 0 0 0-3.5-9.105zm-9 27.294c-6.525-6.922-10-13.058-10-18.237a9.712 9.712 0 0 1 2.675-7.364A10.104 10.104 0 0 1 34 19.91a10.103 10.103 0 0 1 7.3 2.774 9.934 9.934 0 0 1 2.775 7.363C44 35.201 40.575 41.313 34 48.26z"/>
        <path fill="#FFF" fill-rule="nonzero" d="M34 24.818c-2.761 0-5 2.198-5 4.91 0 2.71 2.239 4.908 5 4.908s5-2.198 5-4.909c0-2.71-2.239-4.909-5-4.909zm0 6.996a2.15 2.15 0 0 1-1.989-1.31 2.083 2.083 0 0 1 .478-2.303 2.18 2.18 0 0 1 2.351-.441 2.11 2.11 0 0 1 1.31 1.967c-.014 1.156-.972 2.087-2.15 2.087z"/>
    </g>
</svg>
