<svg xmlns="http://www.w3.org/2000/svg" width="25" height="25" viewBox="0 0 25 25">
    <defs>
        <linearGradient id="a" x1="106.666%" x2="0%" y1="100%" y2="0%">
            <stop offset="0%" stop-color="#FAE017"/>
            <stop offset="100%" stop-color="#E03012"/>
        </linearGradient>
    </defs>
    <path fill="url(#a)" fill-rule="nonzero" d="M1252.914 56.17a15.566 15.566 0 0 1-3.521-.875 2.563 2.563 0 0 0-2.668.563l-1.583 1.604a20.171 20.171 0 0 1-7.544-7.543l1.605-1.584a2.584 2.584 0 0 0 .562-2.646 15.879 15.879 0 0 1-.979-3.605 2.584 2.584 0 0 0-2.542-2.084h-3.73c-.71 0-1.39.293-1.876.813a2.48 2.48 0 0 0-.625 1.917 24.568 24.568 0 0 0 3.855 10.877 24.589 24.589 0 0 0 7.544 7.544 25.193 25.193 0 0 0 10.856 3.855h.209a2.48 2.48 0 0 0 1.708-.667 2.5 2.5 0 0 0 .813-1.855v-3.73a2.521 2.521 0 0 0-2.084-2.584zm0 6.252a.396.396 0 0 1-.146.312.438.438 0 0 1-.312.104 22.922 22.922 0 0 1-9.96-3.438 22.588 22.588 0 0 1-6.877-6.897 22.922 22.922 0 0 1-3.543-9.96.52.52 0 0 1 0-.313.417.417 0 0 1 .438-.146h3.73a.417.417 0 0 1 .437.354 18.88 18.88 0 0 0 1 3.98.417.417 0 0 1 0 .438l-2.77 2.73.791 1.375a22.422 22.422 0 0 0 8.335 8.335l1.396.77 2.71-2.708a.396.396 0 0 1 .458 0c1.283.482 2.62.811 3.98.98.189.053.323.22.333.416v3.668z" transform="translate(-1230 -40)"/>
</svg>
