<svg xmlns="http://www.w3.org/2000/svg" width="67" height="67" viewBox="0 0 67 67">
    <defs>
        <linearGradient id="a" x1="100%" x2="6.14%" y1="100%" y2="0%">
            <stop offset="0%" stop-color="#FAE017"/>
            <stop offset="100%" stop-color="#E03012"/>
        </linearGradient>
    </defs>
    <g fill="none" fill-rule="evenodd">
        <circle cx="33.5" cy="33.5" r="33.5" fill="url(#a)"/>
        <path fill="#FFF" fill-rule="nonzero" d="M44.385 37.38a17.67 17.67 0 0 1-3.9-.941 2.902 2.902 0 0 0-2.954.604l-1.754 1.725a22.02 22.02 0 0 1-8.354-8.108l1.777-1.702a2.717 2.717 0 0 0 .623-2.844 16.67 16.67 0 0 1-1.085-3.874c-.265-1.305-1.445-2.244-2.815-2.24h-4.13a2.88 2.88 0 0 0-2.078.873 2.615 2.615 0 0 0-.692 2.06 25.908 25.908 0 0 0 4.27 11.691 26.843 26.843 0 0 0 8.353 8.108 28.45 28.45 0 0 0 12.023 4.143h.231a2.793 2.793 0 0 0 1.892-.717 2.652 2.652 0 0 0 .9-1.993v-4.009c.056-1.356-.93-2.542-2.307-2.777zm0 6.718a.42.42 0 0 1-.162.336.494.494 0 0 1-.346.112 25.898 25.898 0 0 1-11.03-3.695 24.656 24.656 0 0 1-7.616-7.413 24.173 24.173 0 0 1-3.923-10.706.544.544 0 0 1 0-.336.47.47 0 0 1 .484-.156h4.131a.458.458 0 0 1 .485.38c.208 1.461.58 2.895 1.107 4.278a.437.437 0 0 1 0 .47l-3.069 2.934.877 1.478c2.199 3.732 5.386 6.825 9.23 8.959l1.547.828 3-2.911a.45.45 0 0 1 .508 0c1.421.518 2.9.871 4.407 1.052.21.058.358.238.37.448v3.942z"/>
    </g>
</svg>
