<svg xmlns="http://www.w3.org/2000/svg" width="36" height="57" viewBox="0 0 36 57">
    <g fill="none" fill-rule="evenodd" stroke="#FFF">
        <path stroke-width="2" d="M18 25.1H1.1v15c0 8.3 6.7 15 15 15h3.8c8.3 0 15-6.7 15-15v-15H18z"/>
        <path stroke-linecap="round" d="M31.9 39.1c0 6.6-5.4 12-12 12"/>
        <path stroke-width="2" d="M19.9 6.9H18v2.8c1.3 0 2.4 1.1 2.4 2.4v5.5c0 1.3-1.1 2.4-2.4 2.4v5h16.9v-3.2c0-8.2-6.7-14.9-15-14.9zM15.6 17.7v-5.5c0-1.3 1.1-2.4 2.4-2.4V7h-1.9c-8.3 0-15 6.7-15 15v3.2H18v-5c-1.3-.1-2.4-1.2-2.4-2.5z"/>
        <path stroke-linecap="round" d="M18 6.9v-6"/>
    </g>
</svg>
