<svg xmlns="http://www.w3.org/2000/svg" width="32" height="32" viewBox="0 0 32 32">
    <g fill="none" fill-rule="evenodd">
        <circle cx="16" cy="16" r="15" fill="#FFC80A" stroke="#FFC80A" stroke-width="2"/>
        <path fill="#4D4D4D" d="M22.934 15.942a.753.753 0 0 1-.168.262l-5.859 5.86A.754.754 0 0 1 15.842 21l4.618-4.619H9.737a.737.737 0 0 1 0-1.473h10.725l-4.62-4.62a.755.755 0 0 1 1.065-1.067l5.86 5.86a.755.755 0 0 1 .168.266c.04.091.065.191.065.298a.736.736 0 0 1-.066.298z"/>
    </g>
</svg>
