<?xml version="1.0" encoding="utf-8"?>
<!-- Generator: Adobe Illustrator 22.0.1, SVG Export Plug-In . SVG Version: 6.00 Build 0)  -->
<svg version="1.1" id="Слой_1" xmlns="http://www.w3.org/2000/svg" xmlns:xlink="http://www.w3.org/1999/xlink" x="0px" y="0px"
	 viewBox="0 0 21.069 21.188" style="enable-background:new 0 0 21.069 21.188;" xml:space="preserve">
<title>clip</title>
<path style="fill:none;stroke:#242A3A;stroke-width:2;stroke-linecap:round;stroke-linejoin:round;" d="M19.05,8.6
	c0.8-0.7,1.1-1.8,1-2.9c0-2.6-2.1-4.7-4.7-4.7c-1.3,0-2.5,0.5-3.3,1.4l-9.7,9.7c-1.8,1.8-1.8,4.8,0,6.7s4.8,1.8,6.7,0l6.5-6.5l0,0
	c1-1.2,1-2.9-0.2-4c-0.5-0.5-1.2-0.7-1.9-0.7l0,0c-0.7,0-1.5,0.3-2,0.8l-5.4,5.4"/>
</svg>
