<?xml version="1.0" encoding="utf-8"?>
<!-- Generator: Adobe Illustrator 22.0.1, SVG Export Plug-In . SVG Version: 6.00 Build 0)  -->
<svg version="1.1"  xmlns="http://www.w3.org/2000/svg" xmlns:xlink="http://www.w3.org/1999/xlink" x="0px" y="0px"
	viewBox="0 0 46.987 62.889" style="enable-background:new 0 0 46.987 62.889;" xml:space="preserve">
	<symbol id="down-mob" viewBox="0 0 46.987 62.889">
		<g>
			<g>
				<path style="stroke-width:2;stroke-miterlimit:10;" d="M46,14.586H32.414V1 M45.987,14.592v47.297H1V1
					h31.402L45.987,14.592z"/>
					<polyline style="fill:currentColor;" points="46,14.586 32.414,14.586 32.414,1 		"/>
				</g>
			</g>
			<path style="fill:none;stroke:#00919E;stroke-width:2;stroke-linecap:round;stroke-linejoin:round;stroke-miterlimit:10;" d="
				M23.529,39.975V18.677 M14.597,31.643l8.182,8.182c0.003,0.003,0.007,0.006,0.012,0.01l0.002,0.002c0.01,0.01,0.021,0.02,0.031,0.03
				l0.001,0.001c0.013,0.013,0.028,0.024,0.042,0.037l0.002,0.002c0.007,0.005,0.017,0.013,0.027,0.02l0.003,0.002
				c0.013,0.01,0.03,0.022,0.048,0.034l0.004,0.003c0.009,0.006,0.022,0.014,0.037,0.022l0.004,0.003
				c0.011,0.006,0.026,0.015,0.042,0.023l0.005,0.003c0.008,0.004,0.022,0.012,0.037,0.017l0.006,0.003
				c0.009,0.004,0.025,0.012,0.041,0.019l0.006,0.003c0.01,0.004,0.028,0.01,0.046,0.016l0.007,0.002
				c0.007,0.003,0.021,0.008,0.036,0.013l0.007,0.002c0.01,0.003,0.028,0.008,0.046,0.012l0.006,0.001
				c0.009,0.003,0.026,0.006,0.042,0.009l0.006,0.001c0.01,0.002,0.027,0.004,0.044,0.006l0.005,0.001
				c0.013,0.002,0.03,0.004,0.048,0.004h0.003c0.016,0.001,0.034,0.002,0.053,0.002h0.001c0.007,0,0.016,0.001,0.024,0.001
				s0.017,0,0.026-0.001h-0.001c0.031-0.001,0.062-0.003,0.091-0.006l-0.004,0.001c0.008-0.001,0.01-0.002,0.013-0.002l-0.006,0.001
				c0.027-0.004,0.048-0.007,0.07-0.012l-0.006,0.001c0.023-0.004,0.039-0.008,0.056-0.012l-0.007,0.002
				c0.02-0.004,0.033-0.008,0.046-0.012l-0.007,0.002c0.028-0.008,0.048-0.014,0.068-0.021l-0.007,0.002
				c0.02-0.006,0.031-0.012,0.044-0.016l-0.006,0.003c0.025-0.01,0.043-0.017,0.06-0.026l-0.006,0.003
				c0.033-0.015,0.058-0.028,0.083-0.041l-0.005,0.003c0.004-0.003,0.005-0.004,0.006-0.004l-0.004,0.003
				c0.024-0.013,0.043-0.026,0.062-0.039l-0.004,0.003c0.017-0.012,0.03-0.02,0.043-0.03l-0.003,0.002
				c0.025-0.019,0.047-0.036,0.067-0.054L24.17,39.88c0.002-0.002,0.004-0.004,0.006-0.006l0,0c0.017-0.014,0.033-0.028,0.047-0.042
				l8.181-8.181 M36.809,44.213c-0.005,0-0.01,0-0.015,0H10.205c-0.004,0-0.009,0-0.014,0"/>
			</symbol>

			<symbol id="down-desc" viewBox="0 0 250.929 337.507">
				<g>
					<g>
						<path style="stroke-width:6;stroke-miterlimit:10;" d="M248,76.968h-73.968V3 M247.929,77.003v257.504H3
							V3h170.969L247.929,77.003z"/>
							<polyline style="fill:currentColor;"  points="248,76.968 174.032,76.968 174.032,3 		"/>
						</g>
					</g>
				</symbol>

			</svg>


