<?xml version="1.0" encoding="utf-8"?>
<!-- Generator: Adobe Illustrator 22.0.1, SVG Export Plug-In . SVG Version: 6.00 Build 0)  -->
<svg version="1.1" id="Слой_1" xmlns="http://www.w3.org/2000/svg" xmlns:xlink="http://www.w3.org/1999/xlink" x="0px" y="0px"
	 viewBox="0 0 22 22.054" style="enable-background:new 0 0 22 22.054;" xml:space="preserve">
<title>icon_filter@1x</title>
<desc>Created with Sketch.</desc>
<g>
	<g transform="translate(-7.000000, -7.000000)">
		<g transform="translate(7.000000, 7.000000)">
			<g transform="translate(7.666667, 7.666667)">
				<g>
					<path style="fill:#242A3A;" d="M10.347,14.387H3.683v-2.574h-11.35v-1.5h11.35V7.724h6.664v2.589h3.986v1.5h-3.986V14.387z
						 M5.183,12.887h3.664V9.224H5.183V12.887z M1.178,6.697h-6.663V4.114h-2.181v-1.5h2.181V0.034h6.663v2.581h13.156v1.5H1.178
						V6.697z M-3.986,5.197h3.663V1.534h-3.663V5.197z M10.347-1.004H3.683v-2.583h-11.35v-1.5h11.35v-2.581h6.664v2.581h3.986v1.5
						h-3.986V-1.004z M5.183-2.504h3.664v-3.663H5.183V-2.504z"/>
				</g>
			</g>
		</g>
	</g>
</g>
</svg>
