<?xml version="1.0" encoding="utf-8"?>
<!-- Generator: Adobe Illustrator 22.0.1, SVG Export Plug-In . SVG Version: 6.00 Build 0)  -->
<svg version="1.1" id="_x3F__x3F__x3F__x3F__1" xmlns="http://www.w3.org/2000/svg" xmlns:xlink="http://www.w3.org/1999/xlink"
	 x="0px" y="0px" viewBox="0 0 259.285 64.575" style="enable-background:new 0 0 259.285 64.575;" xml:space="preserve">
<g>
	<path style="fill-rule:evenodd;clip-rule:evenodd;fill:#928E8E;" d="M31.363,48.205c-7.074-1.96-11.346-6.015-12.456-13.952
		L0,34.201c1.029,11.438,6.095,18.504,13.735,22.796c31.951,17.95,71.14,1.45,70.086-22.781l-21.748,0.006
		c-0.278,0.39-0.367,0.497-0.742,1.318l-1.417,3.966c-0.782,1.781-1.536,2.981-2.5,4.095c-2.111,2.438-5.283,4.2-9.602,4.591
		l3.868-14.01l-17.312,0.086L31.363,48.205z"/>
	<path style="fill-rule:evenodd;clip-rule:evenodd;fill:#046577;" d="M8.846,30.095l21.919,0.068
		c2.473-8.483,4.677-12.767,13.793-14.185L40.78,30.014l17.082,0.159l3.037-13.891c7.458,0.668,11.378,7.083,12.861,13.697
		l18.461-0.006C92.01,1.608,47.481-8.212,22.368,7.402C15.95,11.393,7.833,19.657,8.846,30.095z"/>
</g>
<g>
	<path style="fill:#FFFFFF;" d="M115.268,11.508c0,0.66-0.243,1.269-0.729,1.827c-0.486,0.558-1.059,0.909-1.719,1.053
		c0.504,0.096,0.945,0.381,1.323,0.855c0.378,0.474,0.567,1.042,0.567,1.701c0,1.476-0.561,2.613-1.683,3.411
		s-2.487,1.197-4.095,1.197c-1.62,0-2.919-0.348-3.897-1.044c-0.978-0.696-1.467-1.782-1.467-3.258c0-0.084,0.006-0.162,0.018-0.234
		h3.294v0.018c0,1.332,0.762,1.998,2.286,1.998c0.66,0,1.197-0.162,1.611-0.486c0.414-0.324,0.621-0.774,0.621-1.35
		c0-0.432-0.162-0.765-0.486-0.999c-0.324-0.234-0.768-0.351-1.332-0.351h-1.188l0.36-2.34c0.252,0.024,0.576,0.036,0.972,0.036
		c0.576,0,1.086-0.135,1.53-0.405c0.444-0.27,0.666-0.675,0.666-1.215c0-0.324-0.159-0.603-0.477-0.837
		c-0.318-0.234-0.705-0.351-1.161-0.351c-0.672,0-1.218,0.135-1.638,0.405c-0.42,0.27-0.654,0.657-0.702,1.161h-3.186
		c0.18-1.344,0.789-2.367,1.827-3.069c1.038-0.702,2.378-1.053,4.023-1.053c1.416,0,2.547,0.291,3.393,0.873
		C114.845,9.633,115.268,10.452,115.268,11.508z"/>
	<path style="fill:#FFFFFF;" d="M124.16,8.484l2.088,12.816H122.9l-0.324-2.34h-4.482l-1.314,2.34h-3.528l7.542-12.816H124.16z
		 M121.784,11.886c-0.3,0.732-0.81,1.74-1.53,3.024l-0.9,1.638h2.952l-0.216-1.674C121.91,13.422,121.808,12.426,121.784,11.886z"/>
	<path style="fill:#FFFFFF;" d="M129.002,8.484h5.58c0.48,0,0.903,0.018,1.269,0.054c0.366,0.036,0.756,0.114,1.17,0.234
		c0.414,0.12,0.753,0.285,1.017,0.495c0.264,0.21,0.486,0.501,0.666,0.873c0.18,0.372,0.27,0.81,0.27,1.314
		c0,0.768-0.216,1.425-0.648,1.971c-0.432,0.546-1.008,0.885-1.728,1.017c1.212,0.408,1.818,1.278,1.818,2.61
		c0,1.224-0.438,2.244-1.314,3.06c-0.396,0.372-0.873,0.651-1.431,0.837c-0.558,0.186-1.032,0.291-1.422,0.315
		c-0.39,0.024-0.945,0.036-1.665,0.036h-6.318L129.002,8.484z M130.73,15.72l-0.63,2.97h2.43c0.348,0,0.651-0.018,0.909-0.054
		c0.258-0.036,0.528-0.105,0.81-0.207c0.282-0.102,0.498-0.27,0.648-0.504c0.15-0.234,0.225-0.531,0.225-0.891
		c0-0.192-0.03-0.36-0.09-0.504s-0.123-0.261-0.189-0.351c-0.066-0.09-0.18-0.168-0.342-0.234c-0.162-0.066-0.282-0.114-0.36-0.144
		c-0.078-0.03-0.234-0.051-0.468-0.063c-0.234-0.012-0.378-0.018-0.432-0.018s-0.207,0-0.459,0H130.73z M131.72,11.04l-0.522,2.502
		h2.484c1.284,0,1.926-0.486,1.926-1.458c0-0.252-0.054-0.456-0.162-0.612c-0.108-0.156-0.279-0.261-0.513-0.315
		c-0.234-0.054-0.42-0.087-0.558-0.099c-0.138-0.012-0.351-0.018-0.639-0.018H131.72z"/>
	<path style="fill:#FFFFFF;" d="M152.024,13.668c0,1.464-0.276,2.793-0.828,3.987c-0.552,1.194-1.38,2.154-2.484,2.88
		c-1.104,0.727-2.394,1.089-3.87,1.089c-1.8,0-3.198-0.501-4.194-1.503c-0.996-1.001-1.494-2.415-1.494-4.239
		c0-2.208,0.654-4.041,1.962-5.499s3.048-2.187,5.22-2.187c1.728,0,3.108,0.48,4.14,1.44
		C151.508,10.596,152.024,11.94,152.024,13.668z M146.174,10.896c-0.624,0-1.179,0.159-1.665,0.477
		c-0.486,0.318-0.87,0.735-1.152,1.251c-0.282,0.516-0.495,1.062-0.639,1.638c-0.144,0.576-0.216,1.158-0.216,1.746
		c0,0.924,0.225,1.641,0.675,2.151c0.45,0.51,1.077,0.765,1.881,0.765c0.768,0,1.434-0.294,1.998-0.882
		c0.563-0.588,0.966-1.26,1.206-2.016c0.24-0.756,0.36-1.506,0.36-2.25c0-0.864-0.198-1.56-0.594-2.088
		C147.632,11.16,147.013,10.896,146.174,10.896z"/>
	<path style="fill:#FFFFFF;" d="M163.184,24.45h-3.132l0.666-3.15h-7.452l-0.666,3.15h-3.132l1.278-5.94h1.332
		c0.696-0.828,1.383-2.097,2.061-3.807c0.678-1.71,1.173-3.285,1.485-4.725l0.324-1.494h9.162l-2.124,10.026h1.476L163.184,24.45z
		 M159.71,18.51l1.53-7.29h-2.736l-0.126,0.576c-0.252,1.164-0.636,2.373-1.152,3.627s-1.05,2.283-1.602,3.087H159.71z"/>
	<path style="fill:#FFFFFF;" d="M183.721,8.484l-6.156,5.274l3.816,7.542h-3.798l-2.646-5.364l-1.71,1.458L172.4,21.3h-3.348
		l2.718-12.816h3.348l-1.134,4.986l5.31-4.986H183.721z"/>
	<path style="fill:#FFFFFF;" d="M184.099,8.484h5.454c2.952,0,4.428,1.26,4.428,3.78c0,0.816-0.183,1.582-0.549,2.295
		c-0.366,0.714-0.861,1.269-1.485,1.665c-0.828,0.528-2.094,0.792-3.798,0.792h-2.52l-0.9,4.284h-3.348L184.099,8.484z
		 M186.853,11.202l-0.666,3.204h2.25c1.524,0,2.286-0.606,2.286-1.818c0-0.564-0.174-0.936-0.522-1.116
		c-0.348-0.18-0.84-0.27-1.476-0.27H186.853z"/>
	<path style="fill:#FFFFFF;" d="M200.48,18.114c-0.78,1.236-1.566,2.112-2.358,2.628c-0.792,0.516-1.764,0.774-2.916,0.774
		c-0.672,0-1.284-0.114-1.836-0.342l0.594-2.718c0.492,0.18,0.984,0.27,1.476,0.27c0.372,0,0.693-0.104,0.963-0.315
		c0.27-0.209,0.405-0.501,0.405-0.873c0-0.228-0.078-0.576-0.234-1.044l-2.556-8.01h3.6l1.548,6.768l3.51-6.768h3.816L200.48,18.114
		z"/>
	<path style="fill:#FFFFFF;" d="M217.975,8.484L215.258,21.3h-3.366l2.124-10.026h-4.392L207.499,21.3h-3.366l2.718-12.816H217.975z
		"/>
	<path style="fill:#FFFFFF;" d="M230.486,8.484L227.767,21.3h-3.366l1.116-5.292h-4.446l-1.134,5.292h-3.366l2.718-12.816h3.366
		l-0.99,4.662h4.464l0.99-4.662H230.486z"/>
	<path style="fill:#FFFFFF;" d="M240.313,16.548c0,0.816-0.183,1.581-0.549,2.295c-0.366,0.714-0.861,1.269-1.485,1.665
		c-0.852,0.528-2.118,0.792-3.798,0.792h-5.454l2.718-12.816h3.348l-0.9,4.284h1.692C238.838,12.768,240.313,14.028,240.313,16.548z
		 M237.019,16.8c0-0.564-0.174-0.936-0.522-1.116c-0.348-0.18-0.84-0.27-1.476-0.27h-1.386l-0.684,3.204h1.782
		C236.257,18.618,237.019,18.012,237.019,16.8z M243.338,8.484h3.33L243.949,21.3h-3.33L243.338,8.484z"/>
	<path style="fill:#FFFFFF;" d="M259.285,8.484l-5.328,6.102l3.15,6.714h-3.762l-0.882-2.034c-0.144-0.335-0.426-1.08-0.846-2.232
		c-0.372,0.588-0.822,1.206-1.35,1.854l-1.962,2.412h-4.158l5.976-6.768l-2.988-6.048h3.69l0.72,1.782
		c0.288,0.72,0.552,1.44,0.792,2.16c0.552-0.768,1.08-1.494,1.584-2.178l1.35-1.764H259.285z"/>
</g>
<g>
	<path style="fill:#FFFFFF;" d="M109.188,33.152c0,2.208-0.63,4.044-1.89,5.508c-1.26,1.464-2.952,2.196-5.076,2.196
		c-1.608,0-2.889-0.417-3.843-1.251s-1.431-1.953-1.431-3.357V35.96h3.24c0.036,1.452,0.756,2.178,2.16,2.178
		c0.804,0,1.473-0.272,2.007-0.819c0.534-0.546,0.927-1.245,1.179-2.097h-4.356l0.558-2.592h4.086
		c-0.084-0.804-0.336-1.422-0.756-1.854c-0.42-0.432-0.979-0.648-1.674-0.648c-1.212,0-2.046,0.606-2.502,1.818h-3.384
		c0.396-1.44,1.125-2.55,2.187-3.33c1.062-0.78,2.373-1.17,3.933-1.17c1.752,0,3.117,0.498,4.095,1.494
		S109.188,31.34,109.188,33.152z"/>
	<path style="fill:#FFFFFF;" d="M122.004,27.734l-2.736,12.816h-3.366l2.124-10.026h-2.844l-1.224,5.04
		c-0.444,1.848-1.053,3.183-1.827,4.005c-0.774,0.822-1.845,1.233-3.213,1.233c-0.732,0-1.302-0.072-1.71-0.216l0.558-2.628
		c0.24,0.096,0.558,0.144,0.954,0.144c0.468,0,0.861-0.204,1.179-0.612c0.318-0.408,0.621-1.206,0.909-2.394l1.782-7.362H122.004z"
		/>
	<path style="fill:#FFFFFF;" d="M133.614,27.734l-0.558,2.7h-6.858l-0.468,2.214h6.354l-0.54,2.592h-6.354l-0.54,2.52h7.002
		l-0.594,2.79h-10.332l2.718-12.816H133.614z"/>
	<path style="fill:#FFFFFF;" d="M146.826,27.734l-6.156,5.274l3.816,7.542h-3.798l-2.646-5.364l-1.71,1.458l-0.828,3.906h-3.348
		l2.718-12.816h3.348l-1.134,4.986l5.31-4.986H146.826z"/>
	<path style="fill:#FFFFFF;" d="M157.158,27.734l-0.594,2.79h-3.708l-2.142,10.026h-3.366l2.142-10.026h-3.834l0.594-2.79H157.158z"
		/>
	<path style="fill:#FFFFFF;" d="M157.644,27.734h5.454c2.952,0,4.428,1.26,4.428,3.78c0,0.816-0.183,1.582-0.549,2.295
		c-0.366,0.714-0.861,1.269-1.485,1.665c-0.828,0.528-2.094,0.792-3.798,0.792h-2.52l-0.9,4.284h-3.348L157.644,27.734z
		 M160.398,30.452l-0.666,3.204h2.25c1.524,0,2.286-0.606,2.286-1.818c0-0.564-0.174-0.936-0.522-1.116
		c-0.348-0.18-0.84-0.27-1.476-0.27H160.398z"/>
	<path style="fill:#FFFFFF;" d="M180.144,27.734l-2.718,12.816h-3.258l2.052-8.532l-5.922,8.532h-3.942l2.718-12.816h3.258
		l-1.926,8.532l5.904-8.532H180.144z"/>
	<path style="fill:#FFFFFF;" d="M185.057,32.99c0.66,0,1.404-0.096,2.232-0.288l1.062-4.968h3.366L189,40.55h-3.366l1.098-5.22
		c-1.068,0.192-1.986,0.288-2.754,0.288c-1.2,0-2.122-0.285-2.763-0.855c-0.642-0.57-0.963-1.413-0.963-2.529
		c0-0.492,0.06-1.014,0.18-1.566l0.63-2.934h3.366l-0.594,2.826c-0.108,0.564-0.162,0.966-0.162,1.206
		c0,0.408,0.108,0.714,0.324,0.918C184.212,32.888,184.565,32.99,185.057,32.99z"/>
	<path style="fill:#FFFFFF;" d="M203.346,27.734l-0.558,2.7h-6.858l-0.468,2.214h6.354l-0.54,2.592h-6.354l-0.54,2.52h7.002
		l-0.594,2.79h-10.332l2.718-12.816H203.346z"/>
	<path style="fill:#FFFFFF;" d="M214.469,35.816c-0.324,1.608-1.032,2.85-2.124,3.726c-1.092,0.876-2.466,1.314-4.122,1.314
		c-1.752,0-3.117-0.498-4.095-1.494c-0.979-0.996-1.467-2.4-1.467-4.212c0-2.208,0.63-4.044,1.89-5.508
		c1.26-1.464,2.952-2.196,5.076-2.196c1.608,0,2.889,0.417,3.843,1.251s1.431,1.953,1.431,3.357v0.288h-3.24
		c-0.036-1.452-0.756-2.178-2.16-2.178c-0.78,0-1.446,0.276-1.998,0.828c-0.552,0.552-0.939,1.188-1.161,1.908
		c-0.222,0.72-0.333,1.458-0.333,2.214c0,0.972,0.213,1.725,0.639,2.259c0.426,0.534,1.029,0.801,1.809,0.801
		c0.672,0,1.236-0.201,1.692-0.603c0.456-0.402,0.78-0.987,0.972-1.755H214.469z"/>
	<path style="fill:#FFFFFF;" d="M228.995,27.734l-6.156,5.274l3.816,7.542h-3.798l-2.646-5.364l-1.71,1.458l-0.828,3.906h-3.348
		l2.718-12.816h3.348l-1.134,4.986l5.31-4.986H228.995z"/>
	<path style="fill:#FFFFFF;" d="M240.444,27.734l-2.718,12.816h-3.258l2.052-8.532l-5.922,8.532h-3.942l2.718-12.816h3.258
		l-1.926,8.532l5.904-8.532H240.444z"/>
	<path style="fill:#FFFFFF;" d="M253.061,27.734l-5.328,6.102l3.15,6.714h-3.762l-0.882-2.034c-0.144-0.335-0.426-1.08-0.846-2.232
		c-0.372,0.588-0.822,1.206-1.35,1.854l-1.962,2.412h-4.158l5.976-6.768l-2.988-6.048h3.69l0.72,1.782
		c0.288,0.72,0.552,1.44,0.792,2.16c0.552-0.768,1.08-1.494,1.584-2.178l1.35-1.764H253.061z"/>
</g>
<g>
	<path style="fill:#FFFFFF;" d="M105.184,46.234l-2.718,12.816h-3.168l1.224-5.58c0.36-1.656,0.744-3.204,1.152-4.644
		c-0.744,1.752-1.422,3.216-2.034,4.392l-3.042,5.832h-2.574l-0.594-5.922c-0.12-1.224-0.192-2.64-0.216-4.248
		c-0.156,1.344-0.42,2.922-0.792,4.734l-1.116,5.436h-3.168l2.718-12.816h4.68l0.414,4.986c0.132,1.764,0.162,3.144,0.09,4.14
		c0.288-1.308,1.001-3.012,2.142-5.112l2.178-4.014H105.184z"/>
	<path style="fill:#FFFFFF;" d="M113.572,46.234l2.088,12.816h-3.348l-0.324-2.34h-4.482l-1.314,2.34h-3.528l7.542-12.816H113.572z
		 M111.196,49.636c-0.3,0.732-0.81,1.74-1.53,3.024l-0.9,1.638h2.952l-0.216-1.674C111.322,51.172,111.22,50.176,111.196,49.636z"/>
	<path style="fill:#FFFFFF;" d="M115.606,59.05l2.718-12.816h3.312L119.53,56.26h3.708l2.106-10.026h3.312L126.55,56.26h3.708
		l2.106-10.026h3.312l-2.718,12.816H115.606z"/>
	<path style="fill:#FFFFFF;" d="M148.114,46.234l-2.718,12.816h-3.258l2.052-8.532l-5.922,8.532h-3.942l2.718-12.816h3.258
		l-1.926,8.532l5.904-8.532H148.114z"/>
	<path style="fill:#FFFFFF;" d="M160.66,46.234l-2.718,12.816h-3.366l1.116-5.292h-4.446l-1.134,5.292h-3.366l2.718-12.816h3.366
		l-0.99,4.662h4.464l0.99-4.662H160.66z"/>
</g>
</svg>
