<?xml version="1.0" encoding="utf-8"?>
<!-- Generator: Adobe Illustrator 22.0.1, SVG Export Plug-In . SVG Version: 6.00 Build 0)  -->
<svg version="1.1" id="Слой_1" xmlns="http://www.w3.org/2000/svg" xmlns:xlink="http://www.w3.org/1999/xlink" x="0px" y="0px"
	 viewBox="0 0 28 28" style="enable-background:new 0 0 28 28;" xml:space="preserve">
<circle style="fill:none;stroke:#E9E9EB;stroke-miterlimit:10;" cx="14" cy="14" r="13.5"/>
<g>
	<path style="fill:#242A3A;" d="M14,16.923c-0.087,0-0.164-0.033-0.231-0.101l-4.681-4.681c-0.067-0.066-0.101-0.144-0.101-0.23
		c0-0.088,0.033-0.164,0.101-0.231l0.502-0.502c0.067-0.067,0.144-0.101,0.231-0.101c0.087,0,0.164,0.033,0.231,0.101L14,15.125
		l3.948-3.947c0.067-0.067,0.144-0.101,0.231-0.101c0.087,0,0.164,0.033,0.231,0.101l0.502,0.502c0.067,0.067,0.1,0.144,0.1,0.231
		c0,0.087-0.033,0.164-0.1,0.23l-4.681,4.681C14.164,16.89,14.087,16.923,14,16.923z"/>
</g>
</svg>
