<?xml version="1.0" encoding="utf-8"?>
<!-- Generator: Adobe Illustrator 22.0.1, SVG Export Plug-In . SVG Version: 6.00 Build 0)  -->
<svg version="1.1" id="Слой_1" xmlns="http://www.w3.org/2000/svg" xmlns:xlink="http://www.w3.org/1999/xlink" x="0px" y="0px"
	 viewBox="0 0 18.909 18.904" style="enable-background:new 0 0 18.909 18.904;" xml:space="preserve">
<title>phone-orange</title>
<path style="fill:none;stroke:#C8CED2;stroke-width:2;stroke-linecap:round;stroke-linejoin:round;" d="M17.208,1.804
	c0.21-0.004,0.404,0.113,0.5,0.3c0.125,0.137,0.197,0.315,0.2,0.5c0.015,2.71-0.711,5.373-2.1,7.7c-1.299,2.299-3.201,4.201-5.5,5.5
	c-2.327,1.389-4.99,2.115-7.7,2.1c-0.185-0.003-0.363-0.075-0.5-0.2c-0.187-0.096-0.304-0.29-0.3-0.5l-0.8-3.4
	c-0.026-0.173,0.009-0.35,0.1-0.5c0.079-0.179,0.221-0.321,0.4-0.4l3.7-1.6c0.151-0.101,0.349-0.101,0.5,0c0.2,0,0.3,0.1,0.4,0.3
	l1.7,1.9c1.299-0.588,2.484-1.4,3.5-2.4c0.999-0.957,1.783-2.116,2.3-3.4l-2-1.7c-0.1-0.1-0.2-0.3-0.3-0.4
	c-0.101-0.151-0.101-0.349,0-0.5l1.6-3.6c0.079-0.179,0.221-0.321,0.4-0.4c0.154-0.081,0.327-0.116,0.5-0.1L17.208,1.804z"/>
</svg>
