<svg xmlns="http://www.w3.org/2000/svg" width="27" height="27" viewBox="0 0 27 27">
    <g fill="#000" fill-rule="nonzero">
        <path d="M26.55 0H.45A.45.45 0 0 0 0 .45v26.1c0 .249.201.45.45.45h26.1a.45.45 0 0 0 .45-.45V.45a.45.45 0 0 0-.45-.45zm-.45 26.1H.9V4.5h25.2v21.6zm0-22.5H.9V.9h25.2v2.7z"/>
        <path d="M1.8 1.8h1.35v1H1.8zM4.05 1.8H5.4v1H4.05zM6.75 6.3h-3.6a.45.45 0 0 0-.45.45v3.6c0 .249.201.45.45.45h3.6a.45.45 0 0 0 .45-.45v-3.6a.45.45 0 0 0-.45-.45zM6.3 9.9H3.6V7.2h2.7v2.7zM6.75 13.05h-3.6a.45.45 0 0 0-.45.45v3.6c0 .249.201.45.45.45h3.6a.45.45 0 0 0 .45-.45v-3.6a.45.45 0 0 0-.45-.45zm-.45 3.6H3.6v-2.7h2.7v2.7zM6.75 19.8h-3.6a.45.45 0 0 0-.45.45v3.6c0 .249.201.45.45.45h3.6a.45.45 0 0 0 .45-.45v-3.6a.45.45 0 0 0-.45-.45zm-.45 3.6H3.6v-2.7h2.7v2.7zM8.1 7.65h1v1h-1zM16.068 7.782l-1.8-1.8-.636.636 1.032 1.032H9.9v.9h4.764l-1.032 1.032.636.636 1.8-1.8a.45.45 0 0 0 0-.636zM8.1 14.85h1v1h-1zM24.618 14.982l-1.8-1.8-.636.636 1.032 1.032H9.9v.9h13.314l-1.032 1.032.636.636 1.8-1.8a.45.45 0 0 0 0-.636zM8.1 22.05h1v1h-1zM20.118 22.182l-1.8-1.8-.636.636 1.032 1.032H9.9v.9h8.814l-1.032 1.032.636.636 1.8-1.8a.45.45 0 0 0 0-.636z"/>
    </g>
</svg>
