<svg xmlns="http://www.w3.org/2000/svg" width="26" height="26" viewBox="0 0 26 26">
    <g fill="none" fill-rule="evenodd" transform="translate(1 1)">
        <circle cx="12" cy="12" r="12" fill="#FFF" stroke="#353535" stroke-width="2"/>
        <path fill="#353535" fill-rule="nonzero" d="M18.674 15.7a.996.996 0 0 0-.048-.093c-.247-.452-.72-1.007-1.417-1.664l-.015-.015-.007-.008-.008-.007h-.007a8.631 8.631 0 0 1-.6-.618c-.154-.2-.189-.404-.105-.61.06-.155.282-.484.668-.986.203-.266.363-.48.482-.64.856-1.154 1.227-1.892 1.113-2.213l-.044-.075c-.03-.046-.107-.087-.23-.125a1.152 1.152 0 0 0-.475-.018l-2.137.015a.273.273 0 0 0-.148.003l-.097.023-.037.019-.03.023a.332.332 0 0 0-.081.079.519.519 0 0 0-.074.131 12.375 12.375 0 0 1-.794 1.694c-.183.311-.351.581-.505.81a3.887 3.887 0 0 1-.385.504 2.705 2.705 0 0 1-.282.26c-.085.065-.149.093-.193.082a5.37 5.37 0 0 1-.126-.03.498.498 0 0 1-.167-.184.835.835 0 0 1-.086-.294 3.284 3.284 0 0 1-.022-.666c.005-.156.008-.261.008-.316 0-.191.003-.398.01-.621.008-.224.014-.4.02-.531.004-.13.007-.269.007-.414 0-.146-.01-.26-.026-.343a1.184 1.184 0 0 0-.078-.24.404.404 0 0 0-.152-.181.85.85 0 0 0-.249-.102 4.868 4.868 0 0 0-1.001-.098c-.92-.01-1.512.05-1.774.18-.104.056-.198.131-.282.227-.089.11-.101.17-.037.18.297.045.507.153.63.324l.045.09c.035.066.07.181.104.347.035.165.057.348.067.55.025.366.025.68 0 .94a11.37 11.37 0 0 1-.07.61 1.235 1.235 0 0 1-.19.52.129.129 0 0 1-.037.037.549.549 0 0 1-.2.038c-.07 0-.153-.035-.252-.106a1.79 1.79 0 0 1-.308-.29 3.875 3.875 0 0 1-.36-.515 9.043 9.043 0 0 1-.416-.783l-.118-.218a18.89 18.89 0 0 1-.304-.614 11.92 11.92 0 0 1-.342-.78.496.496 0 0 0-.178-.24l-.037-.023a.779.779 0 0 0-.29-.113l-2.032.015c-.208 0-.349.048-.423.143l-.03.045a.247.247 0 0 0-.022.121c0 .055.015.123.045.203.296.708.619 1.39.968 2.048.348.658.651 1.187.909 1.588.257.402.519.781.786 1.137.267.357.444.585.53.685.087.1.155.176.205.226l.185.18c.119.121.293.266.523.434.23.168.485.334.764.497.28.163.605.296.976.399.371.103.732.144 1.083.124h.853c.174-.015.305-.07.394-.166l.03-.037a.503.503 0 0 0 .055-.14.775.775 0 0 0 .026-.207c-.005-.215.011-.41.048-.583a1.55 1.55 0 0 1 .126-.391.962.962 0 0 1 .286-.332.48.48 0 0 1 .06-.026c.118-.04.258-.001.418.117.161.118.312.263.453.437.141.173.31.367.508.583.198.216.371.376.52.482l.148.09c.099.06.228.116.386.166a.82.82 0 0 0 .415.037l1.9-.03c.187 0 .334-.031.437-.094.104-.063.166-.132.186-.207.02-.075.02-.16.004-.256a.956.956 0 0 0-.053-.2z"/>
    </g>
</svg>
