<svg xmlns="http://www.w3.org/2000/svg" width="26" height="26" viewBox="0 0 26 26">
    <g fill="none" fill-rule="evenodd" opacity=".5" transform="translate(1 1)">
        <circle cx="12" cy="12" r="12" fill="#FFF" stroke="#353535" stroke-width="2"/>
        <path fill="#353535" d="M4.8 10.08v4.56a4.553 4.553 0 0 0 4.556 4.56h5.288a4.561 4.561 0 0 0 4.556-4.56v-4.56H4.8zM6.956 4.8c-1.19 0-2.156.959-2.156 2.16v2.16h14.4V6.96a2.16 2.16 0 0 0-2.156-2.16H6.956z"/>
        <path fill="#FFF" d="M8.16 4.8h1v2.88h-1z"/>
        <path fill="#FFF" d="M7.2 4.8h1v2.88h-1z"/>
        <path fill="#FFF" d="M6.24 4.8h1v2.88h-1z"/>
        <rect width="2.4" height="2.4" x="15.36" y="5.76" fill="#FFF" rx="1"/>
        <circle cx="12" cy="12" r="4.32" fill="#FFF"/>
        <circle cx="12" cy="12" r="3.36" fill="#353535"/>
    </g>
</svg>
