<svg xmlns="http://www.w3.org/2000/svg" width="58" height="54" viewBox="0 0 58 54">
    <g fill="#353535" fill-rule="evenodd" opacity=".152">
        <path d="M28 17.882c0 14.353-8.47 27.765-19.294 35.53L0 46.118C7.53 41.176 14.353 32 15.294 24.235c-.47.236-2.118.47-3.294.47-6.588 0-11.294-4.94-11.294-12C.706 5.883 6.118 0 13.176 0 20.941 0 28 6.588 28 17.882zM58 17.882c0 14.353-8.47 27.765-19.294 35.53L30 46.118C37.53 41.176 44.353 32 45.294 24.235c-.47.236-2.118.47-3.294.47-6.588 0-11.294-4.94-11.294-12C30.706 5.883 36.118 0 43.176 0 50.941 0 58 6.588 58 17.882z"/>
    </g>
</svg>
