<svg xmlns="http://www.w3.org/2000/svg" width="58" height="54" viewBox="0 0 58 54">
    <g fill="#353535" fill-rule="evenodd" opacity=".152">
        <path d="M0 35.53C0 21.175 8.47 7.764 19.294 0L28 7.294c-7.53 4.941-14.353 14.118-15.294 21.882.47-.235 2.118-.47 3.294-.47 6.588 0 11.294 4.941 11.294 12 0 6.823-5.412 12.706-12.47 12.706C7.059 53.412 0 46.824 0 35.529zM30 35.53C30 21.175 38.47 7.764 49.294 0L58 7.294c-7.53 4.941-14.353 14.118-15.294 21.882.47-.235 2.118-.47 3.294-.47 6.588 0 11.294 4.941 11.294 12 0 6.823-5.412 12.706-12.47 12.706C37.059 53.412 30 46.824 30 35.529z"/>
    </g>
</svg>
