<svg xmlns="http://www.w3.org/2000/svg" width="23.004" height="18.346" viewBox="0 0 23.004 18.346">
  <g id="ic" transform="translate(0 0)">
    <path id="Path_5" data-name="Path 5" d="M380.56,55.883h-6.323l2.292,6.079Z" transform="translate(-369.506 -55.883)" fill="#fff"/>
    <path id="Path_6" data-name="Path 6" d="M355.825,57.7l-4.078,6.137h6.391Z" transform="translate(-351.748 -57.321)" fill="#fff"/>
    <path id="Path_7" data-name="Path 7" d="M391.289,101.118l4.031-10.694h-8.063Z" transform="translate(-379.787 -83.157)" fill="#fff"/>
    <path id="Path_8" data-name="Path 8" d="M352.287,90.423,363.023,101.5l-4.176-11.079Z" transform="translate(-352.174 -83.157)" fill="#fff"/>
    <path id="Path_9" data-name="Path 9" d="M437.105,63.841,433.027,57.7l-2.313,6.137Z" transform="translate(-414.101 -57.321)" fill="#fff"/>
    <path id="Path_10" data-name="Path 10" d="M414.872,55.883H408.55l4.031,6.079Z" transform="translate(-396.6 -55.883)" fill="#fff"/>
    <path id="Path_11" data-name="Path 11" d="M391.874,59.095,388,64.939h7.751Z" transform="translate(-380.372 -58.419)" fill="#fff"/>
    <path id="Path_12" data-name="Path 12" d="M409.525,101.5,420.26,90.423H413.7Z" transform="translate(-397.37 -83.157)" fill="#fff"/>
  </g>
</svg>
