<svg id="flash" xmlns="http://www.w3.org/2000/svg" width="16.192" height="28.066" viewBox="0 0 16.192 28.066">
  <g id="Group_150" data-name="Group 150">
    <path id="Path_84" data-name="Path 84" d="M126.822,9.636a.457.457,0,0,0-.428-.281h-5.61L126.346.7a.419.419,0,0,0,0-.468A.5.5,0,0,0,125.918,0h-7.606a.5.5,0,0,0-.428.234l-7.131,14.033a.419.419,0,0,0,0,.468.57.57,0,0,0,.428.234h4.9l-5.324,12.489a.463.463,0,0,0,.19.561.361.361,0,0,0,.238.047.545.545,0,0,0,.38-.14L126.774,10.15A.5.5,0,0,0,126.822,9.636Zm-13.977,15.3,4.374-10.291a.449.449,0,0,0-.048-.421.59.59,0,0,0-.38-.187h-4.849L118.6.936h6.465l-5.61,8.654a.419.419,0,0,0,0,.468.5.5,0,0,0,.428.234H125.4Z" transform="translate(-110.682)" fill="#a7a1ff"/>
  </g>
</svg>
