<svg xmlns="http://www.w3.org/2000/svg" width="23" height="14.812" viewBox="0 0 23 14.812">
  <g id="Group_180" data-name="Group 180" transform="translate(-3 -8.511)">
    <path id="Path_3" data-name="Path 3" d="M605.436,268.923l-8.328-2.405a1.6,1.6,0,0,0-1.971,1.088l-2.414,8.36a1.6,1.6,0,0,0,1.087,1.971l8.329,2.4a1.6,1.6,0,0,0,1.971-1.087l2.414-8.36A1.6,1.6,0,0,0,605.436,268.923Zm-9.495,7.422a1.165,1.165,0,1,1,1.443-.8A1.165,1.165,0,0,1,595.941,276.345Zm1.475-5.106a1.165,1.165,0,1,1,1.443-.8A1.165,1.165,0,0,1,597.416,271.239Zm3.768,6.62a1.165,1.165,0,1,1,1.443-.8A1.165,1.165,0,0,1,601.184,277.859Zm1.475-5.106a1.165,1.165,0,1,1,1.443-.8A1.165,1.165,0,0,1,602.659,272.753Z" transform="translate(-580.586 -257.08)" fill="#fff"/>
    <path id="Path_4" data-name="Path 4" d="M556.15,271.664l.865-2.936a1.154,1.154,0,0,1-.608-.5,1.13,1.13,0,0,1,.425-1.561,1.182,1.182,0,0,1,.827-.127l.9-3.071c.005-.018.011-.036.017-.054l-.6-1.009a1.614,1.614,0,0,0-2.175-.569l-7.5,4.255a1.548,1.548,0,0,0-.581,2.132l4.357,7.384a1.615,1.615,0,0,0,2.175.569l2.91-1.65A2.6,2.6,0,0,1,556.15,271.664Zm-6.132-3.5a1.13,1.13,0,0,1,.425-1.561,1.178,1.178,0,0,1,1.592.417,1.13,1.13,0,0,1-.425,1.561A1.178,1.178,0,0,1,550.018,268.168Zm1.666,2.738a1.13,1.13,0,0,1,.425-1.561,1.178,1.178,0,0,1,1.592.417,1.129,1.129,0,0,1-.425,1.561A1.178,1.178,0,0,1,551.684,270.906Zm3.221,3.176a1.178,1.178,0,0,1-1.592-.417,1.13,1.13,0,0,1,.425-1.561,1.178,1.178,0,0,1,1.592.417A1.13,1.13,0,0,1,554.9,274.082Zm-.162-8.593a1.13,1.13,0,0,1,.425-1.561,1.178,1.178,0,0,1,1.592.417,1.13,1.13,0,0,1-.425,1.561A1.178,1.178,0,0,1,554.742,265.489Z" transform="translate(-544.515 -253.115)" fill="#fff"/>
  </g>
</svg>
