<svg xmlns="http://www.w3.org/2000/svg" width="23" height="16.469" viewBox="0 0 23 16.469">
  <g id="Group_182" data-name="Group 182" transform="translate(-2 -7.648)">
    <rect id="Rectangle_5" data-name="Rectangle 5" width="16.518" height="1.802" transform="translate(5.241 22.314)" fill="#fff"/>
    <path id="Path_13" data-name="Path 13" d="M171.8,209.194a1.2,1.2,0,0,0-.7,2.175c-1.258,1.689-3.913,4.982-5.477,4.982-1.61,0-3.17-4.9-3.812-7.2a1.2,1.2,0,1,0-.614,0c-.642,2.3-2.2,7.2-3.812,7.2-1.564,0-4.219-3.294-5.477-4.982a1.189,1.189,0,1,0-.459.2l1.8,8.684h16.518l1.8-8.684a1.2,1.2,0,1,0,.243-2.378Z" transform="translate(-148 -199.144)" fill="#fff"/>
  </g>
</svg>
