<svg xmlns="http://www.w3.org/2000/svg" width="21.803" height="14.653" viewBox="0 0 21.803 14.653">
  <g id="ic" transform="translate(-1082.551 -14.817)">
    <path id="Path_19" data-name="Path 19" d="M2,0H18a2,2,0,0,1,2,2V9a2,2,0,0,1-2,2H2A2,2,0,0,1,0,9V2A2,2,0,0,1,2,0Z" transform="matrix(0.985, -0.174, 0.174, 0.985, 1082.551, 18.29)" fill="rgba(255,255,255,0.39)"/>
    <rect id="Rectangle_6" data-name="Rectangle 6" width="20" height="11" rx="2" transform="translate(1084.354 18.47)" fill="#fff"/>
    <path id="Path_14" data-name="Path 14" d="M3.15.546l.765,1.811,1.959.168a.154.154,0,0,1,.088.27L4.476,4.083,4.921,6a.154.154,0,0,1-.23.167L3.007,5.15,1.324,6.165A.154.154,0,0,1,1.094,6l.445-1.915L.053,2.8a.154.154,0,0,1,.088-.27L2.1,2.357,2.865.546a.154.154,0,0,1,.284,0Z" transform="translate(1091 20.548)" fill="#3f3fc5"/>
  </g>
</svg>
