<svg xmlns="http://www.w3.org/2000/svg" width="21.663" height="14.842" viewBox="0 0 21.663 14.842">
  <path id="Path_2" data-name="Path 2" d="M43.49,487.5a4.075,4.075,0,0,1-1.535-3c-.008-.2.106-.338.314-.282a3.475,3.475,0,0,0,3.022-.838l1.911,1.7a3.45,3.45,0,0,0-.264,3.056c.091.2-.024.33-.223.358a4.075,4.075,0,0,1-3.225-.99Zm16.695-4.716a1.015,1.015,0,1,0-.648-.772l-12.066,9.545c-.682.572.536,2.024,1.218,1.452l11.5-10.225Zm1.9,4.716a4.076,4.076,0,0,1-3.225.99c-.2-.027-.314-.163-.223-.358a3.45,3.45,0,0,0-.264-3.056l1.911-1.7a3.476,3.476,0,0,0,3.022.838c.208-.056.321.081.314.282a4.075,4.075,0,0,1-1.535,3Zm-3.111-5.685-2.006,1.587A3.451,3.451,0,0,0,54,482.614c-.208.055-.321-.081-.313-.282a4.328,4.328,0,0,1,4.76-3.994c.2.027.314.163.223.358a3.476,3.476,0,0,0,.3,3.123Zm-13.584.969,5.818,5.175,1.174-.929-6.343-5.018a1.015,1.015,0,1,0-.648.772Zm7.78,6.92,1.22-1.085,3.714,2.938c.682.572-.536,2.024-1.218,1.452l-3.715-3.3ZM46.6,481.819l2.006,1.587a3.451,3.451,0,0,1,2.965-.792c.208.056.321-.081.313-.282a4.328,4.328,0,0,0-4.76-3.994c-.2.027-.314.163-.223.358A3.476,3.476,0,0,1,46.6,481.819Z" transform="translate(-41.954 -478.303)" fill="#fff" fill-rule="evenodd"/>
</svg>
