<svg id="user" xmlns="http://www.w3.org/2000/svg" width="24.691" height="28.093" viewBox="0 0 24.691 28.093">
  <g id="Group_141" data-name="Group 141" transform="translate(4.938)">
    <g id="Group_140" data-name="Group 140">
      <path id="Path_82" data-name="Path 82" d="M128.407,0a7.407,7.407,0,1,0,7.407,7.407A7.416,7.416,0,0,0,128.407,0Zm0,13.169a5.761,5.761,0,1,1,5.761-5.761A5.768,5.768,0,0,1,128.407,13.169Z" transform="translate(-121)" fill="#a7a1ff"/>
    </g>
  </g>
  <g id="Group_143" data-name="Group 143" transform="translate(0 16.461)">
    <g id="Group_142" data-name="Group 142" transform="translate(0)">
      <path id="Path_83" data-name="Path 83" d="M52.562,303.193A10.56,10.56,0,0,0,44.992,300H41.7a10.56,10.56,0,0,0-7.57,3.193A10.8,10.8,0,0,0,31,310.809a.823.823,0,0,0,.823.823H54.868a.823.823,0,0,0,.823-.823A10.8,10.8,0,0,0,52.562,303.193Zm-19.88,6.793a9.109,9.109,0,0,1,9.017-8.34h3.292a9.109,9.109,0,0,1,9.017,8.34Z" transform="translate(-31 -300)" fill="#a7a1ff"/>
    </g>
  </g>
</svg>
