<svg xmlns="http://www.w3.org/2000/svg" width="18.373" height="18.373" viewBox="0 0 18.373 18.373">
  <g id="Group_181" data-name="Group 181" transform="translate(-32 -14.519)">
    <path id="Path_15" data-name="Path 15" d="M17.834,1.326H15.477q.013-.392.013-.788A.538.538,0,0,0,14.952,0H3.421a.538.538,0,0,0-.538.538q0,.4.013.788H.538A.538.538,0,0,0,0,1.864,11.666,11.666,0,0,0,1.775,8.272a5.616,5.616,0,0,0,4.266,2.771,5.528,5.528,0,0,0,1.166.979l.3,2.392A2.923,2.923,0,0,1,4.324,17.3H4.286a.538.538,0,1,0,0,1.077h9.8a.538.538,0,1,0,0-1.077h-.038c-3.3-.1-3.1-2.838-3.131-2.883l.248-2.392a5.527,5.527,0,0,0,1.166-.979A5.616,5.616,0,0,0,16.6,8.272a11.666,11.666,0,0,0,1.775-6.407A.538.538,0,0,0,17.834,1.326ZM2.671,7.675A10.374,10.374,0,0,1,1.088,2.4H2.956a17.987,17.987,0,0,0,1.672,6.53q.215.431.449.814A5.191,5.191,0,0,1,2.671,7.675Zm13.03,0A5.191,5.191,0,0,1,13.3,9.746q.234-.383.449-.814A17.99,17.99,0,0,0,15.417,2.4h1.868A10.374,10.374,0,0,1,15.7,7.675Zm0,0" transform="translate(32 14.519)" fill="#fff"/>
    <path id="Path_16" data-name="Path 16" d="M3.15.546l.765,1.811,1.959.168a.154.154,0,0,1,.088.27L4.476,4.083,4.921,6a.154.154,0,0,1-.23.167L3.007,5.15,1.324,6.165A.154.154,0,0,1,1.094,6l.445-1.915L.053,2.8a.154.154,0,0,1,.088-.27L2.1,2.357,2.865.546a.154.154,0,0,1,.284,0Z" transform="translate(38 16.548)" fill="#3f3fc5"/>
  </g>
</svg>
