<svg xmlns="http://www.w3.org/2000/svg" width="64" height="236" viewBox="0 0 64 236">
    <path fill="#F3A31E" fill-rule="evenodd" d="M53.5 236c-5.799 0-10.5-4.701-10.5-10.5S47.701 215 53.5 215 64 219.701 64 225.5 59.299 236 53.5 236zM54 98a6 6 0 1 1 0-12 6 6 0 0 1 0 12zm0 92a9 9 0 1 1 0-18 9 9 0 0 1 0 18zm-.5-138a4.5 4.5 0 1 1 0-9 4.5 4.5 0 0 1 0 9zm0 92a7.5 7.5 0 1 1 0-15 7.5 7.5 0 0 1 0 15zM54 6a3 3 0 1 1 0-6 3 3 0 0 1 0 6zM10.5 236C4.701 236 0 231.299 0 225.5S4.701 215 10.5 215 21 219.701 21 225.5 16.299 236 10.5 236zM10 98a6 6 0 1 1 0-12 6 6 0 0 1 0 12zm0 92a9 9 0 1 1 0-18 9 9 0 0 1 0 18zm.5-138a4.5 4.5 0 1 1 0-9 4.5 4.5 0 0 1 0 9zm0 92a7.5 7.5 0 1 1 0-15 7.5 7.5 0 0 1 0 15zM10 6a3 3 0 1 1 0-6 3 3 0 0 1 0 6z" opacity=".401"/>
</svg>
