<svg width="49" height="49" viewBox="0 0 49 49" fill="none" xmlns="http://www.w3.org/2000/svg">
<path d="M44.2148 16.4609C44.4665 16.4609 44.7135 16.3585 44.8914 16.1804C45.0695 16.0025 45.1719 15.7556 45.1719 15.5039C45.1719 15.2522 45.0695 15.0053 44.8914 14.8273C44.7135 14.6493 44.4665 14.5469 44.2148 14.5469C43.9631 14.5469 43.7162 14.6492 43.5382 14.8273C43.3602 15.0054 43.2578 15.2522 43.2578 15.5039C43.2578 15.7556 43.3601 16.0025 43.5382 16.1804C43.7162 16.3585 43.9631 16.4609 44.2148 16.4609Z" fill="#045CB3"/>
<path d="M18.8056 42.4603H18.7914C18.2629 42.4603 17.8344 42.8889 17.8344 43.4174C17.8344 43.9458 18.2629 44.3744 18.7914 44.3744H18.8056C19.3341 44.3744 19.7627 43.9458 19.7627 43.4174C19.7627 42.8889 19.3341 42.4603 18.8056 42.4603Z" fill="#045CB3"/>
<path d="M49 38.4335V6.69922C49 5.1161 47.712 3.82812 46.1289 3.82812H42.8507V3.25391C42.8507 1.45966 41.391 0 39.5968 0C37.8025 0 36.3429 1.45966 36.3429 3.25391V3.82812H27.7418V3.25391C27.7418 1.45966 26.2821 0 24.4878 0C22.6936 0 21.2339 1.45966 21.2339 3.25391V3.82812H12.6328V3.25391C12.6328 1.45966 11.1731 0 9.37891 0C7.58466 0 6.125 1.45966 6.125 3.25391V3.82812H2.87109C1.28797 3.82812 0 5.1161 0 6.69922V46.1289C0 47.712 1.28797 49 2.87109 49H38.4335C38.6977 49 38.9368 48.8929 39.1099 48.7199C39.11 48.7198 39.1101 48.7198 39.1102 48.7197L48.7197 39.1102C48.8928 38.937 49 38.6978 49 38.4335ZM38.2569 3.25391C38.2569 2.51508 38.858 1.91406 39.5968 1.91406C40.3356 1.91406 40.9366 2.51508 40.9366 3.25391V7.94336C40.9366 8.68219 40.3356 9.2832 39.5968 9.2832C38.858 9.2832 38.2569 8.68219 38.2569 7.94336V3.25391ZM23.148 3.25391C23.148 2.51508 23.749 1.91406 24.4878 1.91406C25.2267 1.91406 25.8277 2.51508 25.8277 3.25391V7.94336C25.8277 8.68219 25.2267 9.2832 24.4878 9.2832C23.749 9.2832 23.148 8.68219 23.148 7.94336V3.25391ZM8.03906 3.25391C8.03906 2.51508 8.64008 1.91406 9.37891 1.91406C10.1177 1.91406 10.7188 2.51508 10.7188 3.25391V7.94336C10.7188 8.68219 10.1177 9.2832 9.37891 9.2832C8.64008 9.2832 8.03906 8.68219 8.03906 7.94336V3.25391ZM1.91406 46.1289V44.3744H14.9775C15.506 44.3744 15.9346 43.9458 15.9346 43.4174C15.9346 42.8889 15.506 42.4603 14.9775 42.4603H1.91406V16.4609H40.3867C40.9152 16.4609 41.3438 16.0324 41.3438 15.5039C41.3438 14.9754 40.9152 14.5469 40.3867 14.5469H1.91406V6.69922C1.91406 6.17151 2.34339 5.74219 2.87109 5.74219H6.125V7.94336C6.125 9.7376 7.58466 11.1973 9.37891 11.1973C11.1731 11.1973 12.6328 9.7376 12.6328 7.94336V5.74219H21.2339V7.94336C21.2339 9.7376 22.6936 11.1973 24.4878 11.1973C26.2821 11.1973 27.7418 9.7376 27.7418 7.94336V5.74219H36.3429V7.94336C36.3429 9.7376 37.8025 11.1973 39.5968 11.1973C41.391 11.1973 42.8507 9.7376 42.8507 7.94336V5.74219H46.1289C46.6566 5.74219 47.0859 6.17151 47.0859 6.69922V37.4765H40.3476C38.7645 37.4765 37.4765 38.7645 37.4765 40.3476V47.0859H2.87109C2.34339 47.0859 1.91406 46.6566 1.91406 46.1289ZM39.3905 45.7324V40.3475C39.3905 39.8198 39.8199 39.3904 40.3476 39.3904H45.7325L39.3905 45.7324Z" fill="#045CB3"/>
<path d="M18.7637 33.5452V30.2422V26.9392C18.7637 25.9109 17.9271 25.0742 16.8987 25.0742H12.7535C12.2251 25.0742 11.7965 25.5028 11.7965 26.0312C11.7965 26.5597 12.2251 26.9883 12.7535 26.9883H16.8496V29.2852H12.7535C12.2251 29.2852 11.7965 29.7137 11.7965 30.2422C11.7965 30.7707 12.2251 31.1992 12.7535 31.1992H16.8496V33.4961H12.7535C12.2251 33.4961 11.7965 33.9247 11.7965 34.4531C11.7965 34.9816 12.2251 35.4102 12.7535 35.4102H16.8987C17.927 35.4102 18.7637 34.5735 18.7637 33.5452Z" fill="#045CB3"/>
<path d="M27.0706 26.9883C27.5991 26.9883 28.0276 26.5597 28.0276 26.0312C28.0276 25.5028 27.5991 25.0742 27.0706 25.0742H22.9254C21.8971 25.0742 21.0604 25.9109 21.0604 26.9392V30.2422V33.5452C21.0604 34.5735 21.8971 35.4102 22.9254 35.4102H26.1626C27.1909 35.4102 28.0275 34.5735 28.0275 33.5452V31.1502C28.0275 30.1219 27.1909 29.2853 26.1626 29.2853H24.7546H22.9745V26.9884H27.0706V26.9883ZM24.7546 31.1992H26.1135V33.4961H22.9745V31.1992H24.7546Z" fill="#045CB3"/>
<path d="M35.4268 29.2852H33.8083H32.2387V26.9883H36.3348C36.8633 26.9883 37.2919 26.5597 37.2919 26.0313C37.2919 25.5028 36.8633 25.0742 36.3348 25.0742H32.1896C31.1613 25.0742 30.3247 25.9109 30.3247 26.9392V29.3342C30.3247 30.3625 31.1613 31.1991 32.1896 31.1991H33.8083H35.3777V33.496H31.2816C30.7531 33.496 30.3246 33.9246 30.3246 34.453C30.3246 34.9815 30.7531 35.4101 31.2816 35.4101H35.4268C36.4551 35.4101 37.2918 34.5734 37.2918 33.5451V31.1501C37.2918 30.1218 36.4551 29.2852 35.4268 29.2852Z" fill="#045CB3"/>
</svg>
