<svg width="59" height="59" viewBox="0 0 59 59" fill="none" xmlns="http://www.w3.org/2000/svg">
<g clip-path="url(#clip0)">
<path d="M34.4167 31.9505H31.8375L33.1433 27.5986C33.3216 27.0031 33.2081 26.358 32.8368 25.8597C32.4659 25.361 31.8807 25.0671 31.2591 25.0675H27.4122C26.5448 25.0716 25.7814 25.6396 25.5284 26.4697L23.1683 34.3362C22.9896 34.9317 23.1035 35.5768 23.4749 36.0755C23.8462 36.5738 24.4314 36.8678 25.0535 36.8673H28.2657L25.7485 44.4233C25.5995 44.8716 25.7904 45.3623 26.2027 45.5923C26.615 45.8223 27.1331 45.7264 27.4361 45.3641L35.926 35.1771C36.4149 34.591 36.5202 33.7749 36.197 33.0839C35.8738 32.3925 35.1797 31.951 34.4167 31.9505ZM29.2632 40.1015L30.5649 36.1948C30.6649 35.8946 30.6145 35.5646 30.429 35.3085C30.244 35.0519 29.9469 34.9002 29.6309 34.9007H25.0535L27.4131 27.0341H31.26L29.9541 31.386C29.7759 31.9816 29.8893 32.6262 30.2602 33.1245C30.6311 33.6232 31.2158 33.9171 31.8375 33.9171H34.4167L29.2632 40.1015Z" fill="#045CB3"/>
<path d="M57.0334 20.1507H55.0667C53.9806 20.1507 53.1001 21.0312 53.1001 22.1173V27.0342H51.1335V22.1173C51.1335 20.4879 49.8128 19.1672 48.1833 19.1672H32.4502V17.2005H37.3665C38.4527 17.2005 39.3332 16.3201 39.3332 15.2339V14.2508C39.33 11.5365 37.1307 9.33714 34.4168 9.33398H24.5832C21.8693 9.33714 19.67 11.5365 19.6668 14.2508V15.2339C19.6668 16.3201 20.5473 17.2005 21.6335 17.2005H26.5498V19.1672H25.4781C24.7007 19.1717 23.9413 19.3999 23.2904 19.8253L15.9505 24.7308C15.6197 24.9473 15.2339 25.0639 14.8387 25.0675H11.7998C10.1708 25.0675 8.85009 26.3882 8.85009 28.0173V34.9007H5.89991V29.9839C5.89991 28.8977 5.01945 28.0173 3.93327 28.0173H1.96664C0.880463 28.0173 0 28.8977 0 29.9839V45.7174C0 46.8036 0.880463 47.6841 1.96664 47.6841H3.93327C5.01945 47.6841 5.89991 46.8036 5.89991 45.7174V40.8006H8.85009V46.7005C8.85009 48.33 10.1708 49.6507 11.7998 49.6507H32.4502C33.3009 49.6485 34.1283 49.373 34.8098 48.8639L45.0368 41.194C45.378 40.9402 45.7913 40.8024 46.2166 40.8006H48.1833C49.8128 40.8006 51.1335 39.4799 51.1335 37.8504V32.9341H53.1001V37.8504C53.1001 38.9366 53.9806 39.8175 55.0667 39.8175H57.0334C58.1195 39.8175 59 38.9366 59 37.8504V22.1173C59 21.0312 58.1195 20.1507 57.0334 20.1507ZM21.6335 14.2508C21.6335 12.6213 22.9541 11.3006 24.5832 11.3006H34.4168C36.0459 11.3006 37.3665 12.6213 37.3665 14.2508V15.2339H21.6335V14.2508ZM28.5165 17.2005H30.4835V19.1672H28.5165V17.2005ZM3.93327 45.7174H1.96664V29.9839H3.93327V45.7174ZM5.89991 38.834V36.8673H8.85009V38.834H5.89991ZM49.1668 37.8504C49.1668 38.3938 48.7266 38.834 48.1833 38.834H46.2166C45.3659 38.8358 44.5385 39.1117 43.8566 39.6208L33.63 47.2907C33.2888 47.5445 32.8751 47.6823 32.4502 47.6841H11.7998C11.257 47.6841 10.8167 47.2438 10.8167 46.7005V28.0173C10.8167 27.4744 11.257 27.0342 11.7998 27.0342H14.8387C15.6161 27.0297 16.3754 26.8014 17.0263 26.3761L24.3662 21.4705C24.6971 21.254 25.0828 21.1374 25.4781 21.1338H48.1833C48.7266 21.1338 49.1668 21.574 49.1668 22.1173V37.8504ZM51.1335 30.9674V29.0008H53.1001V30.9674H51.1335ZM57.0334 37.8504H55.0667V22.1173H57.0334V37.8504Z" fill="#045CB3"/>
<path d="M14.4645 29.2857C14.0702 28.922 13.4625 28.922 13.0682 29.2857C12.9818 29.3816 12.912 29.491 12.8621 29.6103C12.8067 29.7269 12.7797 29.8551 12.7833 29.9839C12.7783 30.3841 13.0169 30.7473 13.386 30.9022C13.7551 31.057 14.1814 30.9728 14.4636 30.6888C14.7459 30.4052 14.8282 29.9785 14.6711 29.6103C14.6212 29.491 14.5514 29.3816 14.4645 29.2857Z" fill="#045CB3"/>
<path d="M13.7665 32.9341C13.2237 32.9341 12.7834 33.3743 12.7834 33.9172V42.7673C12.7834 43.3106 13.2237 43.7508 13.7665 43.7508C14.3099 43.7508 14.7501 43.3106 14.7501 42.7673V33.9172C14.7501 33.3743 14.3099 32.9341 13.7665 32.9341Z" fill="#045CB3"/>
</g>
<defs>
<clipPath id="clip0">
<rect width="59" height="59" fill="white"/>
</clipPath>
</defs>
</svg>
