<svg width="59" height="59" viewBox="0 0 59 59" fill="none" xmlns="http://www.w3.org/2000/svg">
<g clip-path="url(#clip0)">
<path d="M58.5143 16.8527L29.9976 0.136033C29.6976 -0.0390078 29.3289 -0.0448848 29.0251 0.123242L0.508414 15.8567C0.194746 16.0287 0 16.3591 0 16.717V58.017C0 58.5608 0.440541 59.0003 0.983295 59.0003H5.9C6.44275 59.0003 6.8833 58.5608 6.8833 58.017V23.6004H52.1166V58.0171C52.1166 58.5609 52.5561 59.0004 53.0999 59.0004H58.0166C58.5604 59.0004 58.9999 58.5609 58.9999 58.0171V17.7004C59 17.3512 58.8152 17.0287 58.5143 16.8527ZM57.0333 57.0337H54.0833V22.617C54.0833 22.0742 53.6438 21.6337 53.1 21.6337H5.9C5.35725 21.6337 4.91671 22.0742 4.91671 22.617V57.0337H1.9667V17.2972L29.4852 2.11449L57.0333 18.2638V57.0337Z" fill="#045CB3"/>
<path d="M49.1668 45.233H37.3668C36.823 45.233 36.3835 45.6725 36.3835 46.2163V58.0163C36.3835 58.5601 36.823 58.9996 37.3668 58.9996H49.1668C49.7106 58.9996 50.1501 58.5601 50.1501 58.0163V46.2163C50.1501 45.6725 49.7106 45.233 49.1668 45.233ZM48.1834 57.033H38.3501V47.1997H48.1834V57.033Z" fill="#045CB3"/>
<path d="M44.2501 46.2164V49.1664H42.2834V46.2164H40.3167V50.1497C40.3167 50.6935 40.7562 51.133 41.2999 51.133H45.2332C45.777 51.133 46.2165 50.6935 46.2165 50.1497V46.2164H44.2501Z" fill="#045CB3"/>
<path d="M37.3668 45.233H25.5668C25.024 45.233 24.5835 45.6725 24.5835 46.2163V58.0163C24.5835 58.5601 25.024 58.9996 25.5668 58.9996H37.3668C37.9106 58.9996 38.3501 58.5601 38.3501 58.0163V46.2163C38.3501 45.6725 37.9106 45.233 37.3668 45.233ZM36.3834 57.033H26.5501V47.1997H36.3834V57.033Z" fill="#045CB3"/>
<path d="M32.45 46.2164V49.1664H30.4833V46.2164H28.5166V50.1497C28.5166 50.6935 28.9571 51.133 29.4999 51.133H33.4332C33.977 51.133 34.4165 50.6935 34.4165 50.1497V46.2164H32.45Z" fill="#045CB3"/>
<path d="M49.1668 33.4331H37.3668C36.823 33.4331 36.3835 33.8726 36.3835 34.4164V46.2164C36.3835 46.7602 36.823 47.1997 37.3668 47.1997H49.1668C49.7106 47.1997 50.1501 46.7602 50.1501 46.2164V34.4164C50.1501 33.8726 49.7106 33.4331 49.1668 33.4331ZM48.1834 45.2331H38.3501V35.3998H48.1834V45.2331Z" fill="#045CB3"/>
<path d="M44.2501 34.4163V37.3663H42.2834V34.4163H40.3167V38.3496C40.3167 38.8933 40.7562 39.3328 41.2999 39.3328H45.2332C45.777 39.3328 46.2165 38.8933 46.2165 38.3496V34.4163H44.2501Z" fill="#045CB3"/>
<path d="M53.1001 29.4998H5.90015V31.4664H53.1001V29.4998Z" fill="#045CB3"/>
<path d="M53.1001 25.5664H5.90015V27.5331H53.1001V25.5664Z" fill="#045CB3"/>
<path d="M34.4167 13.7664H24.5834C24.0406 13.7664 23.6001 14.2069 23.6001 14.7497V18.6829C23.6001 19.2257 24.0406 19.6662 24.5834 19.6662H34.4167C34.9605 19.6662 35.4 19.2257 35.4 18.6829V14.7497C35.4 14.2069 34.9605 13.7664 34.4167 13.7664ZM33.4333 17.6998H25.5666V15.7331H33.4333V17.6998Z" fill="#045CB3"/>
</g>
<defs>
<clipPath id="clip0">
<rect width="59" height="59" fill="white"/>
</clipPath>
</defs>
</svg>
