<svg width="53" height="53" viewBox="0 0 53 53" fill="none" xmlns="http://www.w3.org/2000/svg">
<path d="M25.616 28.5076H22.163L17.5054 33.6469V28.5076H14.6948V40.9545H17.5054V37.3409H17.5857L18.7902 35.9757L22.4038 40.8742H25.6159C24.0902 38.7863 21.8416 35.6545 20.6371 33.9681L25.616 28.5076Z" fill="#045CB3"/>
<path d="M35.4934 34.5304V37.9031C34.851 38.3046 34.0479 38.4652 33.0843 38.4652C31.2373 38.4652 29.551 37.0197 29.551 34.6107C29.551 32.1212 31.3177 30.6759 33.3252 30.6759C34.6101 30.6759 35.4131 31.1577 36.3768 31.9607L37.8223 29.8728C36.5374 28.6683 34.9314 28.1061 33.1647 28.1061C29.6314 28.1061 26.7404 30.7561 26.7404 34.5304C26.6601 38.3849 29.5511 41.0349 33.1647 41.0349C35.3328 41.0349 37.0192 40.3121 38.304 38.947V34.5303H35.4934V34.5304Z" fill="#045CB3"/>
<path d="M52.9194 49.6273L45.7725 17.5864C45.6118 16.7833 44.8892 16.1409 44.0058 16.1409H30.9967V13.3302C32.8437 11.9651 33.968 9.7166 33.968 7.38781C33.968 3.37275 30.5952 0 26.4997 0C22.4042 0 19.0316 3.37275 19.0316 7.46813C19.0316 9.79693 20.1559 11.9651 22.0028 13.4106V16.2212H8.99367C8.11037 16.2212 7.38763 16.7833 7.22697 17.6667L0.0800454 49.6273C-0.0806108 50.4303 0.0800454 51.3136 0.642135 51.956C1.124 52.5985 1.92697 53 2.81037 53H50.2695C51.1528 53 51.8755 52.5985 52.4376 51.956C52.9194 51.3136 53.08 50.4303 52.9194 49.6273ZM22.0028 10.9212V11.1621C21.1997 10.1181 20.6376 8.8333 20.6376 7.46813C20.6376 4.25604 23.2876 1.60605 26.4997 1.60605C29.7118 1.60605 32.3618 4.25604 32.3618 7.46813C32.3618 8.8333 31.8799 10.1181 30.9966 11.1621V10.9212C30.9966 10.4393 30.6754 10.1181 30.1936 10.1181H22.8057C22.324 10.1181 22.0028 10.4394 22.0028 10.9212ZM29.3906 11.7243V19.1924H23.6087V11.7243H29.3906ZM8.75279 17.9076C8.75279 17.8273 8.83312 17.7469 8.91345 17.7469H22.0028V19.9954C22.0028 20.4773 22.324 20.7985 22.8059 20.7985H30.1938C30.6755 20.7985 30.9968 20.4773 30.9968 19.9954V17.7469H44.0862C44.1665 17.7469 44.2468 17.8273 44.2468 17.9076L50.2696 45.1303H2.73005L8.75279 17.9076ZM51.1528 50.9924C50.9119 51.2333 50.5907 51.394 50.1892 51.394H2.81037C2.48916 51.394 2.08763 51.2333 1.92707 50.9924C1.60587 50.6712 1.52554 50.35 1.60587 49.9485L2.32861 46.7364H50.671L51.3938 49.9485C51.474 50.35 51.3937 50.6712 51.1528 50.9924Z" fill="#045CB3"/>
</svg>
