<svg width="59" height="59" viewBox="0 0 59 59" fill="none" xmlns="http://www.w3.org/2000/svg">
<path d="M48.8594 0.921875H29.5C29.2557 0.921875 29.0206 1.01867 28.8482 1.19198L24.8906 5.14959L22.7768 3.03573C22.4163 2.67528 21.8337 2.67528 21.4732 3.03573L19.3594 5.14959L15.4018 1.19198C15.2294 1.01867 14.9943 0.921875 14.75 0.921875H8.29688C7.788 0.921875 7.375 1.33488 7.375 1.84375V5.53125C7.375 6.04012 7.788 6.45312 8.29688 6.45312H12.5246L15.2902 9.21875L13.1764 11.3326C12.8159 11.6931 12.8159 12.2757 13.1764 12.6361L15.2902 14.75L11.3326 18.7076C11.1593 18.88 11.0625 19.1151 11.0625 19.3594V55.3125C11.0625 56.8373 12.3033 58.0781 13.8281 58.0781H48.8594C50.3842 58.0781 51.625 56.8373 51.625 55.3125V3.6875C51.625 2.16272 50.3842 0.921875 48.8594 0.921875ZM13.558 4.87948C13.3856 4.70617 13.1505 4.60938 12.9062 4.60938H9.21875V2.76562H14.3683L18.0558 6.45312L16.5938 7.91522L13.558 4.87948ZM15.1317 11.9844L22.125 4.99103L23.5871 6.45312L16.5938 13.4465L15.1317 11.9844ZM29.8817 2.76562H48.8594C49.3673 2.76562 49.7812 3.17955 49.7812 3.6875V21.2031H12.9062V19.741L29.8817 2.76562ZM49.7812 23.0469V50.7031H12.9062V23.0469H49.7812ZM48.8594 56.2344H13.8281C13.3202 56.2344 12.9062 55.8205 12.9062 55.3125V52.5469H49.7812V55.3125C49.7812 55.8205 49.3673 56.2344 48.8594 56.2344Z" fill="#045CB3"/>
<path d="M34.1094 13.8281H45.1719C46.6967 13.8281 47.9375 12.5873 47.9375 11.0625V7.375C47.9375 5.85022 46.6967 4.60938 45.1719 4.60938H34.1094C32.5846 4.60938 31.3438 5.85022 31.3438 7.375V11.0625C31.3438 12.5873 32.5846 13.8281 34.1094 13.8281ZM33.1875 7.375C33.1875 6.86705 33.6014 6.45312 34.1094 6.45312H45.1719C45.6798 6.45312 46.0938 6.86705 46.0938 7.375V11.0625C46.0938 11.5705 45.6798 11.9844 45.1719 11.9844H34.1094C33.6014 11.9844 33.1875 11.5705 33.1875 11.0625V7.375Z" fill="#045CB3"/>
<path d="M24.8049 45.8486C26.3352 47.7624 28.6187 48.8594 31.069 48.8594H31.6194C34.0697 48.8594 36.3523 47.7624 37.8835 45.8486C39.0165 44.4316 39.6406 42.6524 39.6406 40.8373C39.6406 38.6773 39.0423 36.5634 37.9103 34.7243L32.1292 25.3295C31.7936 24.7837 30.8948 24.7837 30.5592 25.3295L24.7782 34.7243C23.6452 36.5644 23.0469 38.6782 23.0469 40.8373C23.0469 42.6524 23.671 44.4316 24.8049 45.8486ZM26.3472 35.6904L31.3438 27.5715L36.3403 35.6904C37.2935 37.2392 37.7969 39.0193 37.7969 40.8373C37.7969 42.2348 37.3166 43.6056 36.4436 44.6971C35.2636 46.1703 33.5055 47.0157 31.6185 47.0157H31.0681C29.181 47.0157 27.423 46.1703 26.2439 44.6971C25.3709 43.6056 24.8906 42.2348 24.8906 40.8373C24.8906 39.0193 25.394 37.2392 26.3472 35.6904Z" fill="#045CB3"/>
<path d="M35.9531 40.5625H34.1094C34.1094 42.0873 32.8685 43.3281 31.3438 43.3281V45.1719C33.8854 45.1719 35.9531 43.1041 35.9531 40.5625Z" fill="#045CB3"/>
</svg>
