<svg width="59" height="59" viewBox="0 0 59 59" fill="none" xmlns="http://www.w3.org/2000/svg">
<path d="M8.21127 38.3196C10.0559 38.3196 11.5566 39.8203 11.5566 41.6649C11.5566 43.5096 10.0559 45.0103 8.21127 45.0103C6.3666 45.0103 4.8659 43.5096 4.8659 41.6649C4.8659 39.8203 6.3666 38.3196 8.21127 38.3196ZM8.21127 43.1856C9.04983 43.1856 9.73191 42.5035 9.73191 41.6649C9.73191 40.8264 9.04983 40.1443 8.21127 40.1443C7.37271 40.1443 6.69064 40.8264 6.69064 41.6649C6.69064 42.5035 7.37271 43.1856 8.21127 43.1856Z" fill="#045CB3"/>
<path d="M36.7989 41.969C37.6375 41.969 38.3196 42.6511 38.3196 43.4896C38.3196 44.3282 37.6375 45.0103 36.7989 45.0103C35.9604 45.0103 35.2783 44.3282 35.2783 43.4896C35.2783 42.6511 35.9604 41.969 36.7989 41.969Z" fill="#045CB3"/>
<path d="M0.912308 48.0516H3.05809C1.19463 46.545 0 44.2425 0 41.6649C0 39.3739 0.944115 37.3001 2.46256 35.8091C2.44389 35.7365 2.43295 35.6607 2.43295 35.5824V29.5C2.43295 28.9961 2.84145 28.5875 3.34525 28.5875H5.06593L8.25919 15.8144H8.21114C8.21033 15.8143 8.20953 15.8143 8.20872 15.8144C7.7048 15.8144 7.2963 15.4059 7.2963 14.902C7.2963 14.8773 7.29722 14.853 7.29918 14.8289C7.33859 11.6763 9.91534 9.12366 13.077 9.12366H25.2423C25.7462 9.12366 26.1547 9.53216 26.1547 10.0361V14.9021C26.1547 15.406 25.7462 15.8145 25.2423 15.8145H24.9382V24.946C27.3563 24.9867 29.6074 25.1887 31.629 25.5281V20.9846C31.629 20.5919 31.8803 20.2433 32.2527 20.1191L35.9022 18.9026C36.1801 18.81 36.4862 18.8566 36.7242 19.0279C36.9621 19.1994 37.1031 19.4749 37.1031 19.7682V26.9986C40.1636 28.235 41.9692 29.9511 41.9692 31.9331V37.1031H43.8318V35.5825C43.8318 35.0786 44.2403 34.6701 44.7442 34.6701H50.2184C53.7401 34.6701 56.6051 37.535 56.6051 41.0567V45.6186H58.0876C58.5915 45.6186 59 46.0271 59 46.531C59 47.035 58.5915 47.4435 58.0876 47.4435H55.7306C55.7241 47.4435 55.7179 47.4427 55.7116 47.4425C55.7051 47.4427 55.6989 47.4435 55.6925 47.4435H50.2183C46.6967 47.4435 43.8317 44.5785 43.8317 41.0568V38.928H41.969V39.2321C41.969 39.3731 41.9361 39.506 41.8791 39.6253C42.6979 40.699 43.1855 42.0383 43.1855 43.4899C43.1855 45.2757 42.4478 46.8916 41.2624 48.0518H42.2732C42.7771 48.0518 43.1856 48.4603 43.1856 48.9642C43.1856 49.4681 42.7771 49.8766 42.2732 49.8766H0.912308C0.40839 49.8766 0 49.4681 0 48.9642C0 48.4601 0.408504 48.0516 0.912308 48.0516ZM45.6566 41.0567C45.6566 43.5722 47.7031 45.6186 50.2184 45.6186H54.7802V41.0567C54.7802 38.5413 52.7339 36.4948 50.2183 36.4948H45.6564V41.0567H45.6566ZM4.25768 30.4124V34.4707C5.43134 33.8232 6.77877 33.4537 8.21125 33.4537C10.8084 33.4537 13.126 34.667 14.6318 36.555C14.7386 36.1697 15.0909 35.8866 15.5102 35.8866H19.1104L17.2856 30.4124H4.25768ZM6.94679 28.5875H17.9433C18.336 28.5875 18.6846 28.8389 18.8088 29.2114L21.0338 35.8866H23.1134V15.8144H10.14L6.94679 28.5875ZM24.3299 10.9484H13.0773C11.2112 10.9484 9.64281 12.248 9.22993 13.9897H24.3299V10.9484ZM16.4226 37.7113V43.1856H30.4124V37.7113H16.4226ZM35.2783 21.0339L33.4536 21.6421V25.8505C33.4536 25.8623 33.4522 25.8738 33.4517 25.8855C34.0901 26.0297 34.7001 26.1888 35.2783 26.3621V21.0339ZM40.1444 31.9329C40.1444 30.7434 38.5504 29.4563 35.8803 28.4898C33.0092 27.4509 29.1516 26.8477 24.9382 26.7716V31.0205H34.9743C35.4782 31.0205 35.8867 31.429 35.8867 31.9329C35.8867 32.4368 35.4782 32.8453 34.9743 32.8453H24.9382V35.8866H31.3249C31.8288 35.8866 32.2373 36.2951 32.2373 36.799V37.1031H40.1447V31.9329H40.1444ZM36.7989 48.0516C39.3144 48.0516 41.3608 46.0052 41.3608 43.4897C41.3608 40.9741 39.3144 38.9278 36.7989 38.9278C34.2835 38.9278 32.237 40.9741 32.237 43.4897C32.237 46.0052 34.2835 48.0516 36.7989 48.0516ZM32.3355 48.0516C31.4979 47.2319 30.8848 46.1845 30.5968 45.0103H15.7075C15.1743 46.2004 14.3667 47.2412 13.3645 48.0516H32.3355ZM8.21137 48.0516C11.733 48.0516 14.598 45.1866 14.598 41.6649C14.598 38.1432 11.733 35.2783 8.21137 35.2783C4.68969 35.2783 1.82473 38.1432 1.82473 41.6649C1.82473 45.1866 4.68969 48.0516 8.21137 48.0516Z" fill="#045CB3"/>
</svg>
