<svg width="59" height="51" viewBox="0 0 59 51" fill="none" xmlns="http://www.w3.org/2000/svg">
<path d="M58.1934 0.554084H31.2009C30.9835 0.555392 30.7751 0.64137 30.6201 0.793771L23.978 7.43588C23.825 7.59057 23.739 7.79913 23.7383 8.01666V13.3405H18.9169C18.7917 13.3406 18.6682 13.3697 18.5562 13.4257C18.4442 13.4817 18.3467 13.563 18.2716 13.6631L13.653 19.7844H3.72438C3.61838 19.7842 3.51338 19.8049 3.4154 19.8453C3.31742 19.8858 3.2284 19.9452 3.15345 20.0201C3.0785 20.0951 3.01909 20.1841 2.97864 20.2821C2.93819 20.38 2.91749 20.485 2.91773 20.591V30.9253C2.91798 31.1391 3.00304 31.3441 3.15426 31.4954C3.30549 31.6466 3.51052 31.7316 3.72438 31.7319H10.9565V35.908H7.26898C5.34113 35.908 3.49224 36.6738 2.12904 38.037C0.765837 39.4002 0 41.2491 0 43.177C0 45.1048 0.765837 46.9537 2.12904 48.3169C3.49224 49.6801 5.34113 50.446 7.26898 50.446H30.5648C32.4926 50.446 34.3415 49.6801 35.7047 48.3169C37.0679 46.9537 37.8338 45.1048 37.8338 43.177C37.8338 41.2491 37.0679 39.4002 35.7047 38.037C34.3415 36.6738 32.4926 35.908 30.5648 35.908H26.8819V31.7319H34.1094C34.3232 31.7316 34.5283 31.6466 34.6795 31.4954C34.8307 31.3441 34.9158 31.1391 34.916 30.9253V14.1517C34.9164 14.0455 34.8958 13.9402 34.8554 13.8419C34.8151 13.7436 34.7558 13.6543 34.6808 13.5789C34.6059 13.5036 34.5169 13.4437 34.4188 13.4028C34.3208 13.3619 34.2156 13.3407 34.1094 13.3405H29.9609V10.2522L33.441 6.77674H52.7773V33.3544H45.4392V32.9903C45.4384 32.0431 45.0617 31.135 44.392 30.4652C43.7222 29.7955 42.8141 29.4188 41.867 29.418H41.7148C41.6088 29.4177 41.5038 29.4384 41.4059 29.4789C41.3079 29.5193 41.2189 29.5788 41.1439 29.6537C41.069 29.7287 41.0096 29.8177 40.9691 29.9157C40.9287 30.0136 40.908 30.1186 40.9082 30.2246V34.161C40.91 34.3049 40.948 34.446 41.0188 34.5713L45.6282 42.4072C45.7002 42.5276 45.8022 42.6274 45.9241 42.6969C46.0461 42.7663 46.1839 42.8031 46.3242 42.8036H58.1934C58.2994 42.8039 58.4044 42.7832 58.5023 42.7427C58.6003 42.7023 58.6893 42.6428 58.7643 42.5679C58.8392 42.4929 58.8986 42.4039 58.9391 42.3059C58.9795 42.208 59.0002 42.103 59 41.997V1.35611C58.9998 1.25045 58.9788 1.14587 58.9381 1.04834C58.8975 0.950814 58.838 0.862266 58.7631 0.787766C58.6881 0.713267 58.5992 0.654278 58.5015 0.61418C58.4037 0.574081 58.299 0.553659 58.1934 0.554084ZM25.3516 9.2151L28.3477 10.4596V13.3405H25.3516V9.2151ZM30.5648 37.5213C32.0648 37.5213 33.5033 38.1171 34.5639 39.1778C35.6246 40.2384 36.2205 41.677 36.2205 43.177C36.2205 44.677 35.6246 46.1155 34.5639 47.1762C33.5033 48.2368 32.0648 48.8327 30.5648 48.8327H27.4304V46.7815C27.4304 46.5676 27.3454 46.3624 27.1941 46.2111C27.0429 46.0598 26.8377 45.9749 26.6237 45.9749C26.4098 45.9749 26.2046 46.0598 26.0534 46.2111C25.9021 46.3624 25.8171 46.5676 25.8171 46.7815V48.8327H23.577V46.7815C23.577 46.5676 23.492 46.3624 23.3407 46.2111C23.1894 46.0598 22.9842 45.9749 22.7703 45.9749C22.5564 45.9749 22.3512 46.0598 22.1999 46.2111C22.0487 46.3624 21.9637 46.5676 21.9637 46.7815V48.8327H19.7235V46.7815C19.7235 46.5676 19.6385 46.3624 19.4873 46.2111C19.336 46.0598 19.1308 45.9749 18.9169 45.9749C18.7029 45.9749 18.4978 46.0598 18.3465 46.2111C18.1952 46.3624 18.1102 46.5676 18.1102 46.7815V48.8327H15.8701V46.7815C15.8701 46.5676 15.7851 46.3624 15.6338 46.2111C15.4825 46.0598 15.2774 45.9749 15.0634 45.9749C14.8495 45.9749 14.6443 46.0598 14.4931 46.2111C14.3418 46.3624 14.2568 46.5676 14.2568 46.7815V48.8327H12.0166V46.7815C12.0166 46.5676 11.9317 46.3624 11.7804 46.2111C11.6291 46.0598 11.4239 45.9749 11.21 45.9749C10.9961 45.9749 10.7909 46.0598 10.6396 46.2111C10.4883 46.3624 10.4034 46.5676 10.4034 46.7815V48.8327H7.26898C5.769 48.8327 4.33045 48.2368 3.2698 47.1762C2.20915 46.1155 1.61328 44.677 1.61328 43.177C1.61328 41.677 2.20915 40.2384 3.2698 39.1778C4.33045 38.1171 5.769 37.5213 7.26898 37.5213H10.9565V39.3696C10.9565 39.5836 11.0415 39.7887 11.1927 39.94C11.344 40.0913 11.5492 40.1763 11.7631 40.1763C11.9771 40.1763 12.1822 40.0913 12.3335 39.94C12.4848 39.7887 12.5698 39.5836 12.5698 39.3696V37.5213H14.5334V39.3696C14.5334 39.5836 14.6183 39.7887 14.7696 39.94C14.9209 40.0913 15.1261 40.1763 15.34 40.1763C15.5539 40.1763 15.7591 40.0913 15.9104 39.94C16.0617 39.7887 16.1466 39.5836 16.1466 39.3696V37.5213H18.1102V39.3696C18.1102 39.5836 18.1952 39.7887 18.3465 39.94C18.4978 40.0913 18.7029 40.1763 18.9169 40.1763C19.1308 40.1763 19.336 40.0913 19.4873 39.94C19.6385 39.7887 19.7235 39.5836 19.7235 39.3696V37.5213H21.6871V39.3696C21.6871 39.5836 21.7721 39.7887 21.9234 39.94C22.0746 40.0913 22.2798 40.1763 22.4937 40.1763C22.7077 40.1763 22.9129 40.0913 23.0641 39.94C23.2154 39.7887 23.3004 39.5836 23.3004 39.3696V37.5213H25.2686V39.3696C25.2686 39.5836 25.3536 39.7887 25.5049 39.94C25.6561 40.0913 25.8613 40.1763 26.0752 40.1763C26.2892 40.1763 26.4943 40.0913 26.6456 39.94C26.7969 39.7887 26.8819 39.5836 26.8819 39.3696V37.5213H30.5648ZM12.5698 35.908V31.7319H25.2686V35.908H12.5698ZM33.3027 25.3341H21.83V19.7383H33.3027V25.3341ZM33.3027 14.9538V18.125H21.0234C20.8095 18.1253 20.6045 18.2103 20.4532 18.3616C20.302 18.5128 20.217 18.7178 20.2167 18.9317V26.1407C20.217 26.3546 20.302 26.5596 20.4532 26.7108C20.6045 26.8621 20.8095 26.9471 21.0234 26.9474H33.3027V30.1186H4.53102V26.7446H14.9482C15.1621 26.7446 15.3673 26.6596 15.5186 26.5083C15.6699 26.357 15.7548 26.1518 15.7548 25.9379C15.7548 25.724 15.6699 25.5188 15.5186 25.3675C15.3673 25.2163 15.1621 25.1313 14.9482 25.1313H4.53102V21.3977H14.054C14.1787 21.3974 14.3017 21.3687 14.4135 21.3135C14.5254 21.2584 14.6232 21.1784 14.6993 21.0796L19.3179 14.9538H33.3027ZM28.9653 8.96619L25.9692 7.72627L30.9105 2.78041L32.155 5.7765L28.9653 8.96619ZM33.6438 5.16346L32.4039 2.16736H52.7773V5.16346H33.6438ZM42.5215 31.1419C42.903 31.2778 43.2332 31.5284 43.4667 31.8593C43.7003 32.1902 43.8257 32.5852 43.8259 32.9903V33.3544H42.5215V31.1419ZM57.3867 41.1903H46.7852L45.43 38.8856H50.6248C50.8387 38.8856 51.0439 38.8007 51.1951 38.6494C51.3464 38.4981 51.4314 38.2929 51.4314 38.079C51.4314 37.8651 51.3464 37.6599 51.1951 37.5086C51.0439 37.3573 50.8387 37.2724 50.6248 37.2724H44.4805L43.1253 34.9677H57.3867V41.1903ZM57.3867 33.3544H54.3906V6.77674H57.3867V33.3544ZM57.3867 5.16346H54.3906V2.16736H57.3867V5.16346Z" fill="#045CB3"/>
</svg>
