<svg width="59" height="41" viewBox="0 0 59 41" fill="none" xmlns="http://www.w3.org/2000/svg">
<path d="M48.1222 16.9016C47.4693 16.7148 46.789 17.0928 46.6024 17.7455C46.4157 18.3981 46.7936 19.0786 47.4461 19.2652C53.0565 20.8698 56.5417 23.1971 56.5417 25.3389C56.5417 26.9063 54.6353 28.6268 51.3114 30.0591C47.6543 31.6349 42.4665 32.7879 36.6977 33.3072L31.6626 33.239C31.6568 33.239 31.6512 33.2388 31.6455 33.2388C30.9744 33.2388 30.426 33.7783 30.4169 34.4514C30.4076 35.1302 30.9506 35.688 31.6292 35.6971L36.7277 35.7661C36.7333 35.7661 36.7388 35.7663 36.7444 35.7663C36.7809 35.7663 36.8173 35.7647 36.8535 35.7615C42.9005 35.2224 48.3805 33.999 52.2842 32.3168C57.8349 29.9248 59 27.2019 59 25.3389C59 21.9042 55.1368 18.9078 48.1222 16.9016Z" fill="#045CB3"/>
<path d="M11.9081 15.5014C11.2294 15.5014 10.679 16.0517 10.679 16.7305C10.679 17.4094 11.2294 17.9597 11.9081 17.9597H16.9626V23.0402H11.9081C11.2294 23.0402 10.679 23.5905 10.679 24.2694C10.679 24.9483 11.2294 25.4986 11.9081 25.4986H18.1917C18.8706 25.4986 19.4209 24.9483 19.4209 24.2694V9.19169C19.4209 8.51282 18.8706 7.96252 18.1917 7.96252H11.9081C11.2294 7.96252 10.679 8.51282 10.679 9.19169C10.679 9.87056 11.2294 10.4209 11.9081 10.4209H16.9626V15.5014H11.9081Z" fill="#045CB3"/>
<path d="M23.2165 25.4987H30.7554C31.4342 25.4987 31.9846 24.9484 31.9846 24.2695V16.7307C31.9846 16.0518 31.4343 15.5015 30.7554 15.5015H24.4456V10.4209H29.5001C30.179 10.4209 30.7293 9.87056 30.7293 9.19169C30.7293 8.51282 30.179 7.96252 29.5001 7.96252H23.2165C22.5376 7.96252 21.9873 8.51282 21.9873 9.19169V24.2695C21.9873 24.9484 22.5376 25.4987 23.2165 25.4987ZM24.4456 17.9597H29.5263V23.0402H24.4456V17.9597Z" fill="#045CB3"/>
<path d="M35.7836 25.4987H43.3226C44.0013 25.4987 44.5517 24.9484 44.5517 24.2695V9.19169C44.5517 8.51282 44.0013 7.96252 43.3226 7.96252H35.7836C35.1049 7.96252 34.5544 8.51282 34.5544 9.19169V24.2695C34.5544 24.9484 35.1049 25.4987 35.7836 25.4987ZM37.0128 10.4209H42.0934V23.0403H37.0128V10.4209Z" fill="#045CB3"/>
<path d="M22.4762 28.5555C22.0377 28.0373 21.2621 27.9726 20.7439 28.411C20.2256 28.8494 20.1609 29.6249 20.5992 30.1433L23.3484 33.3932C17.5472 32.9508 12.2931 31.8876 8.42999 30.3633C4.63494 28.8657 2.45833 27.0345 2.45833 25.3388C2.45833 23.3699 5.37588 21.2482 10.2627 19.663C10.9085 19.4536 11.2621 18.7603 11.0527 18.1145C10.8433 17.4688 10.1498 17.1152 9.50428 17.3245C6.66135 18.2466 4.40693 19.3437 2.80348 20.585C0.943263 22.0256 0 23.6249 0 25.3388C0 28.1787 2.60313 30.7067 7.52766 32.6499C11.5303 34.2293 16.8972 35.338 22.7971 35.816L20.3457 38.5329C19.8909 39.0369 19.9307 39.8142 20.4348 40.2689C20.6698 40.481 20.9643 40.5855 21.2578 40.5855C21.5935 40.5855 21.9281 40.4487 22.1707 40.1798L26.6433 35.2232C26.8471 34.9974 26.9599 34.704 26.9599 34.3997V34.3058C26.9599 34.0151 26.8569 33.7339 26.6692 33.512L22.4762 28.5555Z" fill="#045CB3"/>
<path d="M46.882 7.89932H51.9067C52.5855 7.89932 53.1359 7.34903 53.1359 6.67016V1.6436C53.1359 0.964727 52.5855 0.414429 51.9067 0.414429H46.882C46.2033 0.414429 45.6528 0.964727 45.6528 1.6436V6.67016C45.6528 7.34903 46.2033 7.89932 46.882 7.89932ZM48.1112 2.87276H50.6775V5.44099H48.1112V2.87276Z" fill="#045CB3"/>
</svg>
