<svg width="59" height="59" viewBox="0 0 59 59" fill="none" xmlns="http://www.w3.org/2000/svg">
<path d="M9.58606 3.84314H5.78503V11.4452H7.68555V9.54468H9.58606C11.1578 9.54468 12.4369 8.26571 12.4369 6.69381C12.4369 5.1217 11.158 3.84314 9.58606 3.84314ZM9.58606 7.64416H7.68555V5.74365H9.58606C10.1097 5.74365 10.5364 6.16937 10.5364 6.69401C10.5364 7.21865 10.1097 7.64416 9.58606 7.64416Z" fill="#045CB3"/>
<path d="M43.7955 49.4547C43.7955 44.215 39.5327 39.9521 34.2929 39.9521C29.0532 39.9521 24.7904 44.215 24.7904 49.4547C24.7904 52.5648 26.2994 55.3225 28.6161 57.0567H14.3375V53.2557H11.4866V32.3501H9.58608V15.2455H14.0133L17.2716 7.64343L14.0133 0.0413818H3.25834L0 7.64343L3.25834 15.2455H7.68557V32.3501H5.78506V53.2557H2.93439V57.0567H0.0835212V58.9572H2.93439H14.3375H58.9996V57.0567H39.9697C42.2864 55.3225 43.7955 52.5646 43.7955 49.4547ZM4.51095 13.345L2.06776 7.64343L4.51095 1.94189H12.7611L15.2041 7.64343L12.7609 13.345H4.51095ZM7.68557 34.2506H9.58608V53.2557H7.68557V34.2506ZM12.4372 57.0565H4.8349V55.156H5.78526H11.4868H12.4372V57.0565ZM34.2929 57.0565C30.1013 57.0565 26.6909 53.6462 26.6909 49.4545C26.6909 45.2628 30.1013 41.8524 34.2929 41.8524C38.4846 41.8524 41.895 45.2628 41.895 49.4545C41.895 53.6462 38.4846 57.0565 34.2929 57.0565Z" fill="#045CB3"/>
<path d="M52.5064 7.64417C48.6247 7.64417 45.2237 10.266 44.2354 14.0193L41.1623 25.6989H36.1934C29.7907 25.6989 23.8647 29.117 20.6255 34.6379L18.1387 35.4666V41.8534H14.3376V49.4554H18.1387H20.0392H22.8901V47.5549H20.039V41.8534V36.837L22.6407 35.9694C26.0606 34.8291 29.6222 34.2513 33.2274 34.2513H33.9098C38.0909 34.2513 41.986 36.1243 44.5972 39.3885C46.4511 41.7052 47.4956 44.593 47.5801 47.5549H45.6958V49.4554H47.5963H48.5467H58.9996V47.5549H49.4924C49.4078 44.1626 48.2047 40.8538 46.082 38.2005C43.1076 34.4832 38.6719 32.3508 33.9102 32.3508H33.2278C29.9494 32.3508 26.7053 32.8041 23.5609 33.6973C26.5999 29.8839 31.2389 27.5994 36.1936 27.5994H42.6278L46.0745 14.504C46.8424 11.5838 49.4879 9.54468 52.5068 9.54468H59V7.64417H52.5064ZM18.1385 47.5549H16.238V43.7539H18.1385V47.5549Z" fill="#045CB3"/>
<path d="M34.2929 44.704C31.6731 44.704 29.5415 46.8354 29.5415 49.4554C29.5415 52.0753 31.6729 54.2065 34.2929 54.2065C36.9126 54.2065 39.0443 52.0751 39.0443 49.4554C39.0443 46.8358 36.9126 44.704 34.2929 44.704ZM34.2929 52.306C32.7212 52.306 31.442 51.0271 31.442 49.4554C31.442 47.8837 32.721 46.6045 34.2929 46.6045C35.8646 46.6045 37.1438 47.8835 37.1438 49.4554C37.1435 51.0269 35.8646 52.306 34.2929 52.306Z" fill="#045CB3"/>
<path d="M48.2027 14.5117L45.4157 24.9646C45.1858 25.8266 45.3654 26.7273 45.9099 27.4362C46.4544 28.1451 47.2773 28.55 48.1696 28.55H58.9996V26.6495H48.1696C47.8722 26.6495 47.5976 26.5136 47.4161 26.2779C47.2355 26.0413 47.1747 25.7419 47.2517 25.454L50.0387 15.0011C50.1498 14.5859 50.5271 14.296 50.9577 14.296H58.9996V12.3955H50.9577C49.668 12.3953 48.5343 13.2658 48.2027 14.5117Z" fill="#045CB3"/>
</svg>
