<svg width="59" height="59" viewBox="0 0 59 59" fill="none" xmlns="http://www.w3.org/2000/svg">
<g clip-path="url(#clip0)">
<path d="M38.7927 35.9078H27.7183V25.9051C27.7183 25.3692 27.3611 25.012 26.8252 25.012C26.2892 25.012 25.932 25.3692 25.932 25.9051V41.5344L25.7533 41.445L19.9482 30.8172C19.2337 29.1204 17.6261 28.0486 15.8399 28.0486H3.96182C3.42591 28.0486 3.06867 28.4059 3.06867 28.9418V37.1583C1.28249 37.5155 0.0322266 39.1231 0.0322266 40.9986C0.0322266 45.4641 0.0322266 48.9471 0.0322266 53.6806C0.0322266 54.2165 0.389462 54.5738 0.925374 54.5738H3.15813C3.3368 56.9851 5.39088 58.9499 7.98087 58.9499C10.4815 58.9499 12.5357 56.9851 12.8036 54.5738H15.9294C16.1973 57.0744 18.2515 58.9499 20.7521 58.9499C23.2528 58.9499 25.307 56.9851 25.5749 54.5738H26.8253C27.3612 54.5738 27.7184 54.1272 27.7184 53.6806C27.7184 44.7496 27.7184 46.7145 27.7184 37.6941H38.7928C39.3288 37.6941 39.686 37.3369 39.686 36.801C39.686 36.2651 39.3285 35.9078 38.7927 35.9078ZM4.85497 29.7455H15.8401V29.9242C16.9118 29.9242 17.8941 30.5493 18.3407 31.621C18.3407 31.621 18.3407 31.7103 18.43 31.7103L22.8956 39.9269L22.8062 39.8375C22.3596 39.6589 21.8238 39.6589 21.4666 39.9269C21.02 40.1948 20.8415 40.6414 20.8415 41.0879V43.142H13.786V38.7658C13.786 37.7835 12.9822 36.9797 11.9998 36.9797H4.85497V29.7455ZM7.98075 57.1637C6.28391 57.1637 4.94419 55.8241 4.94419 54.1271C4.94419 52.4303 6.2838 51.0905 7.98075 51.0905C9.67771 51.0905 11.0173 52.4301 11.0173 54.1271C11.0173 55.8239 9.58837 57.1637 7.98075 57.1637ZM20.7521 57.1637C19.0553 57.1637 17.7156 55.8241 17.7156 54.1271C17.7156 52.4303 19.0552 51.0905 20.7521 51.0905C22.4491 51.0905 23.7887 52.4301 23.7887 54.1271C23.7886 55.8239 22.449 57.1637 20.7521 57.1637ZM25.9321 52.7875H25.307C24.6819 50.7334 22.8957 49.3044 20.6629 49.3044C18.4302 49.3044 16.5546 50.8226 16.0189 52.7875H12.5357C11.9106 50.7334 10.1244 49.3044 7.89165 49.3044C5.65889 49.3044 3.78338 50.8226 3.24758 52.7875H1.81841V48.1433H25.9321V52.7875ZM26.0213 46.3571H1.81841V41.0878C1.81841 39.8374 2.80078 38.8551 3.96182 38.8551H11.9103V44.1244C11.9103 44.6603 12.2676 45.0175 12.8035 45.0175H21.6452C22.1811 45.0175 22.5383 44.6603 22.5383 44.1244V41.8023L26.0215 43.6778V46.3571H26.0213Z" fill="#045CB3"/>
<path d="M58.6195 19.6536L30.0403 0.183933C29.7724 0.00525785 29.3258 0.00525785 29.0579 0.183933L0.38946 19.6536C0.0322238 19.8323 -0.0571139 20.2787 0.0322238 20.636C0.121562 20.9932 0.478798 21.2611 0.925371 21.2611H1.46128V26.3517C1.46128 26.8876 1.81852 27.2449 2.35443 27.2449C2.89034 27.2449 3.24758 26.8876 3.24758 26.3517V21.2611H55.7618V57.1637H27.8969C27.3609 57.1637 27.0037 57.521 27.0037 58.0569C27.0037 58.5928 27.3609 58.95 27.8969 58.95H56.6546C57.1906 58.95 57.5478 58.5928 57.5478 58.0569V21.2611H58.0837C58.4409 21.2611 58.7982 20.9932 58.9768 20.636C59.0661 20.2787 58.8874 19.8321 58.6195 19.6536ZM3.78326 19.4749L29.5045 1.97023L55.2257 19.475H3.78326V19.4749Z" fill="#045CB3"/>
<path d="M39.7751 43.9459H30.4869C29.951 43.9459 29.5938 44.3032 29.5938 44.8391V54.1273C29.5938 54.6632 29.951 55.0205 30.4869 55.0205H39.7751C40.3109 55.0205 40.6683 54.6632 40.6683 54.1273V44.8391C40.6683 44.3032 40.2217 43.9459 39.7751 43.9459ZM38.882 53.2341H31.3799V45.732H38.882V53.2341Z" fill="#045CB3"/>
<path d="M52.8145 43.9459H43.5262C42.9903 43.9459 42.6331 44.3032 42.6331 44.8391V54.1273C42.6331 54.6632 42.9903 55.0205 43.5262 55.0205H52.8145C53.3504 55.0205 53.7076 54.6632 53.7076 54.1273V44.8391C53.7075 44.3032 53.3502 43.9459 52.8145 43.9459ZM51.9213 53.2341H44.4192V45.732H51.9213V53.2341Z" fill="#045CB3"/>
<path d="M52.8145 30.9066H43.5262C42.9903 30.9066 42.6331 31.2639 42.6331 31.7998V41.088C42.6331 41.5346 42.9903 41.9812 43.5262 41.9812H52.8145C53.3504 41.9812 53.7076 41.6239 53.7076 41.088V31.7998C53.7075 31.2639 53.3502 30.9066 52.8145 30.9066ZM51.9213 40.1949H44.4192V32.6928H51.9213V40.1949Z" fill="#045CB3"/>
<path d="M39.7751 23.6725H30.4869C29.951 23.6725 29.5938 24.0297 29.5938 24.5656V33.8539C29.5938 34.3898 29.951 34.747 30.4869 34.747H39.7751C40.3109 34.747 40.6683 34.3898 40.6683 33.8539V24.5655C40.6683 24.0297 40.3109 23.6725 39.7751 23.6725ZM38.882 32.8714H31.3799V25.3693H38.882V32.8714Z" fill="#045CB3"/>
<path d="M29.6832 6.43567C26.6467 6.43567 24.146 8.93632 24.146 11.9729C24.146 15.0094 26.6467 17.5101 29.6832 17.5101C32.7198 17.5101 35.2204 15.0094 35.2204 11.9729C35.2204 8.93644 32.7198 6.43567 29.6832 6.43567ZM29.6832 15.7239C27.6291 15.7239 25.9322 14.0271 25.9322 11.9729C25.9322 9.91881 27.629 8.22185 29.6832 8.22185C31.7374 8.22185 33.4343 9.91869 33.4343 11.9729C33.4343 14.0271 31.7374 15.7239 29.6832 15.7239Z" fill="#045CB3"/>
</g>
<defs>
<clipPath id="clip0">
<rect width="59" height="59" fill="white"/>
</clipPath>
</defs>
</svg>
