<svg width="30" height="30" viewBox="0 0 30 30" fill="none" xmlns="http://www.w3.org/2000/svg">
<g clip-path="url(#clip0)">
<path d="M25.0974 18.7081C26.3509 16.8043 27.0818 14.5271 27.0818 12.082C27.0818 5.41992 21.6616 0 14.9995 0C8.33748 0 2.91756 5.41992 2.91756 12.082C2.91756 14.5271 3.64838 16.8043 4.90173 18.7081L0.175781 25.6004L5.58357 24.5922L6.59203 30L11.0488 23.5C12.2875 23.9298 13.6166 24.164 14.9995 24.164C16.3827 24.164 17.7118 23.9298 18.9503 23.5L23.4073 30L24.4155 24.5922L29.8233 25.6004L25.0974 18.7081ZM7.54761 25.4796L6.9976 22.5298L4.048 23.08L6.03836 20.1771C6.99165 21.2313 8.12805 22.1166 9.39651 22.7836L7.54761 25.4796ZM4.68567 12.082C4.68567 6.39496 9.31252 1.76811 14.9995 1.76811C20.6868 1.76811 25.3136 6.39496 25.3136 12.082C25.3136 17.7692 20.6868 22.3961 14.9995 22.3961C9.31252 22.3961 4.68567 17.7692 4.68567 12.082ZM23.0015 22.5298L22.4515 25.4796L20.6028 22.7836C21.8713 22.1166 23.0077 21.2313 23.961 20.1771L25.9513 23.0798L23.0015 22.5298Z" fill="white"/>
<path d="M12.8458 14.7353L9.97101 11.8608L8.72086 13.1109L12.8458 17.2358L21.2785 8.80338L20.0283 7.55322L12.8458 14.7353Z" fill="white"/>
</g>
<defs>
<clipPath id="clip0">
<rect width="30" height="30" fill="white"/>
</clipPath>
</defs>
</svg>
