<svg width="23" height="25" viewBox="0 0 23 25" fill="none" xmlns="http://www.w3.org/2000/svg">
<path d="M21.5315 4.30576L13.8993 0.172945C13.1753 -0.21922 12.1798 0.0824452 11.7877 0.806442L7.32303 9.10224H1.89305C1.19922 9.10224 0.656219 9.64524 0.656219 10.3391V12.5111V23.7632C0.656219 24.457 1.19922 25 1.89305 25H19.2388C19.9326 25 20.4756 24.457 20.4756 23.7632V20.6259H20.9885C21.26 20.6259 21.4711 20.4147 21.4711 20.1432V16.5534C21.4711 16.2819 21.26 16.0707 20.9885 16.0707H20.4756V12.5412C20.4756 11.9681 20.0533 11.4552 19.5103 11.3346L22.165 6.41742C22.5571 5.66326 22.2856 4.72809 21.5315 4.30576ZM16.1015 2.4656L11.3352 11.3044H9.97768L15.0758 1.9226L16.1015 2.4656ZM12.6625 1.25894C12.8133 0.987442 13.1753 0.866776 13.4468 1.01761L14.201 1.43994L8.89169 11.3044H7.23253L12.6625 1.25894ZM1.59138 10.3089C1.59138 10.2184 1.71205 10.0676 1.86288 10.0676H6.78003L6.11637 11.2742H1.86288C1.77238 11.2742 1.68188 11.2742 1.59138 11.3044V10.3089ZM19.4801 23.7632C19.4801 23.914 19.3595 24.0347 19.2086 24.0347H1.86288C1.71205 24.0347 1.59138 23.914 1.59138 23.7632V12.5412C1.59138 12.3904 1.71205 12.2697 1.86288 12.2697H6.41803H8.34869H11.8782H18.6656H19.1785C19.3293 12.2697 19.45 12.3904 19.45 12.5412V16.0707H17.6098C16.7953 16.0707 16.1618 16.7344 16.1618 17.5187V19.1779C16.1618 19.9924 16.8255 20.6259 17.6098 20.6259H19.4801V23.7632ZM20.4455 17.036H20.4756V19.6605H20.4455H17.6098C17.3383 19.6605 17.1272 19.4494 17.1272 19.1779V17.5187C17.1272 17.2472 17.3383 17.036 17.6098 17.036H20.4455ZM21.2901 5.93476L18.3942 11.3044H12.4212L16.9462 2.94827L21.0488 5.18059C21.3505 5.30126 21.441 5.66326 21.2901 5.93476Z" fill="#045CB3"/>
</svg>
