<svg width="60" height="60" viewBox="0 0 60 60" fill="none" xmlns="http://www.w3.org/2000/svg">
<path d="M59 35.9991H53.1631L47.7559 34.1993L46 29.8073V26.4991C45.9932 24.2115 44.2671 22.295 41.9932 22.0494C41.9932 21.9122 42 21.775 42 21.6383V6.99915C42 6.55725 41.7104 6.16809 41.2871 6.04114L21.2871 0.0411377C21.0996 -0.0150147 20.9004 -0.0150147 20.7129 0.0411377L0.712891 6.04114C0.290039 6.16809 0 6.55725 0 6.99915V21.6383C0 22.1022 0.03125 22.5602 0.0478515 23.0211C0.0732422 23.6964 0.11084 24.3673 0.170898 25.0343C0.181152 25.1481 0.194824 25.255 0.206055 25.3673C1.43408 38.0641 9.12646 49.2291 20.5532 54.899C20.8345 55.0397 21.1655 55.0397 21.4473 54.899C22.9429 54.1481 24.3872 53.2975 25.769 52.3531C26.083 52.7858 26.4795 53.1515 26.936 53.4293C25.9375 54.6202 25.7192 56.2814 26.376 57.6901C27.0327 59.0983 28.4458 59.9987 30 59.9991H47C47.1978 59.9991 47.3906 59.9406 47.5552 59.8312L53.2998 55.9991H59C59.5522 55.9991 60 55.5514 60 54.9991V36.9991C60 36.4469 59.5522 35.9991 59 35.9991ZM37.3569 31.0861L38.5229 33.9991H32.7129C34.8364 30.1901 35.9644 25.9064 35.9932 21.545L40 20.3434V21.6383C40 21.8522 39.9932 22.0651 39.9893 22.2794C38.2021 22.9142 37.0059 24.6027 37 26.4991V29.2281C36.9995 29.8649 37.1206 30.4952 37.3569 31.0861ZM23 37.9991C23.001 39.0206 23.395 40.0031 24.1001 40.7423C23.729 41.0123 23.3652 41.2921 22.9819 41.5421L21 42.8102L19.022 41.5392C14.5879 38.6969 11.2163 34.4694 9.43115 29.5143L33.9712 22.152C33.8345 26.3478 32.5962 30.4337 30.3809 33.9991H27C24.791 33.9991 23 35.7902 23 37.9991ZM2.54297 27.7365C2.53516 27.6862 2.52588 27.6364 2.51807 27.588L6.49219 26.399C6.60986 26.9991 6.75293 27.5992 6.91309 28.1852L2.88184 29.3951C2.75 28.8214 2.64111 28.274 2.54297 27.7365ZM2.08203 23.7194L6.03711 22.5323C6.06494 23.1593 6.11084 23.7823 6.18311 24.4L2.23682 25.5841C2.22705 25.4943 2.21924 25.4054 2.20898 25.3151C2.1582 24.7994 2.11182 24.276 2.08203 23.7194ZM34 12.0553L8 19.8551V12.7042L21.0342 8.04944L34 11.7531V12.0553ZM34 14.1432V16.0553L8.13623 23.8141C8.07324 23.193 8.03418 22.5675 8.01807 21.9381L34 14.1432ZM40 16.3434V18.255L36 19.4552V17.5431L40 16.3434ZM40 14.255L36 15.4552V13.5431L40 12.3434V14.255ZM8.41602 25.818L24.688 20.9371L34 18.1432V20.0553L8.82812 27.6071C8.66992 27.0172 8.52881 26.422 8.41602 25.818ZM2 7.74329L21 2.04309L40 7.74329V10.255L36 11.4552V10.9991C36 10.5529 35.7041 10.1608 35.2749 10.0382L21.2749 6.03821C21.0747 5.9801 20.8604 5.98645 20.6641 6.05725L6.66406 11.0573C6.26562 11.1993 6 11.5763 6 11.9991V20.4552L2 21.6554V7.74329ZM21 52.8771C12.3867 48.4528 5.99414 40.6534 3.34619 31.339L7.51318 30.089C9.43604 35.5021 13.104 40.1217 17.9399 43.2213L20.459 44.8405C20.7886 45.0524 21.2114 45.0524 21.541 44.8405L24.0601 43.2213L24.0859 43.2042C23.7339 44.8634 24.4795 46.5621 25.939 47.4264C25.332 48.1461 24.9995 49.0577 25 49.9991C25.002 50.1383 25.0112 50.277 25.0278 50.4152C23.7417 51.3248 22.3965 52.1476 21 52.8771ZM46.7002 57.9991H30C28.8955 57.9991 28 57.1036 28 55.9991C27.998 54.9611 28.7983 54.0973 29.834 54.0201C30.3716 53.9645 30.7725 53.5001 30.749 52.9601C30.728 52.423 30.2866 51.9987 29.749 51.9991H29C27.8955 51.9991 27 51.1036 27 49.9991C27 48.8947 27.8955 47.9991 29 47.9991C29.5522 47.9991 30 47.5514 30 46.9991C30 46.4469 29.5522 45.9991 29 45.9991H28C26.8955 45.9991 26 45.1036 26 43.9991C26 42.8947 26.8955 41.9991 28 41.9991C28.5522 41.9991 29 41.5514 29 40.9991C29 40.4469 28.5522 39.9991 28 39.9991H27C25.8955 39.9991 25 39.1036 25 37.9991C25 36.8947 25.8955 35.9991 27 35.9991H40C40.332 35.9996 40.6426 35.8351 40.8286 35.5597C41.0151 35.2848 41.0527 34.9357 40.9292 34.6271L39.2148 30.3434C39.0723 29.9889 38.9995 29.6105 39 29.2281V26.4991C39 25.1183 40.1191 23.9991 41.5 23.9991C42.8809 23.9991 44 25.1183 44 26.4991V29.9991C44 30.1266 44.0244 30.2526 44.0708 30.3712L46.0708 35.3712C46.1812 35.6437 46.4053 35.8546 46.6841 35.9484L52 37.7203V54.464L46.7002 57.9991ZM58 53.9991H54V37.9991H58V53.9991Z" fill="#045CB3"/>
</svg>
