<svg width="60" height="60" viewBox="0 0 60 60" fill="none" xmlns="http://www.w3.org/2000/svg">
<path d="M59.4 6.99331L43.4 0.0813107C43.1473 -0.0276886 42.8608 -0.0276886 42.608 0.0813107L33.132 4.17331C28.11 -0.199492 20.9956 -1.23341 14.9366 1.52901C8.8776 4.29144 4.9924 10.3403 5 16.9993V21.9993C2.23995 22.0026 0.00330612 24.2393 0 26.9993V54.9993C0.00330612 57.7594 2.23995 59.996 5 59.9993H39C41.7601 59.996 43.9967 57.7594 44 54.9993V41.6993C44.032 41.6793 44.069 41.6713 44.1 41.6493L55.157 33.7773C58.184 31.6284 59.9876 28.1505 60 24.4383V7.91131C60.0006 7.51315 59.7649 7.15258 59.4 6.99331ZM7 16.9993C6.99821 11.3 10.2275 6.09244 15.3335 3.56054C20.4395 1.02864 26.5394 1.6102 31.075 5.06131L26.6 6.99331C26.588 6.99972 26.5763 7.00673 26.565 7.01431C23.1641 5.45373 19.2027 5.73182 16.0532 7.75224C12.9037 9.77266 10.9994 13.2575 11 16.9993V21.9993H7L7 16.9993ZM26 21.9993H12.9999L13 16.9993C12.9882 13.8811 14.5975 10.9807 17.2494 9.34031C19.9014 7.69997 23.2152 7.55531 26 8.95831V21.9993ZM39 57.9993H5C3.34315 57.9993 2 56.6562 2 54.9993V53.9993H8C8.55229 53.9993 9 53.5516 9 52.9993C9 52.447 8.55229 51.9993 8 51.9993H2V49.9993H8C8.55229 49.9993 9 49.5516 9 48.9993C9 48.447 8.55229 47.9993 8 47.9993H2V45.9993H8C8.55229 45.9993 9 45.5516 9 44.9993C9 44.447 8.55229 43.9993 8 43.9993H2V41.9993H8C8.55229 41.9993 9 41.5516 9 40.9993C9 40.447 8.55229 39.9993 8 39.9993H2V37.9993H8C8.55229 37.9993 9 37.5516 9 36.9993C9 36.447 8.55229 35.9993 8 35.9993H2V33.9993H8C8.55229 33.9993 9 33.5516 9 32.9993C9 32.447 8.55229 31.9993 8 31.9993H2V29.9993H8C8.55229 29.9993 9 29.5516 9 28.9993C9 28.447 8.55229 27.9993 8 27.9993H2V26.9993C2 25.3425 3.34315 23.9993 5 23.9993H26V24.4383C26.0116 28.1497 27.8145 31.6271 30.841 33.7753L39.584 39.9993H36C35.4477 39.9993 35 40.447 35 40.9993C35 41.5516 35.4477 41.9993 36 41.9993H42V43.9993H36C35.4477 43.9993 35 44.447 35 44.9993C35 45.5516 35.4477 45.9993 36 45.9993H42V47.9993H36C35.4477 47.9993 35 48.447 35 48.9993C35 49.5516 35.4477 49.9993 36 49.9993H42V51.9993H36C35.4477 51.9993 35 52.447 35 52.9993C35 53.5516 35.4477 53.9993 36 53.9993H42V54.9993C42 56.6562 40.6569 57.9993 39 57.9993ZM58 24.4383C57.9891 27.5027 56.4994 30.3733 54 32.1463L43 39.9763L32 32.1463C29.5006 30.3733 28.0109 27.5027 28 24.4383V8.56831L33.35 6.25731L33.378 6.24531L43 2.08831L58 8.56831V24.4383Z" fill="#045CB3"/>
<path d="M42.6 4.43904L30.6 9.62304C30.2351 9.78231 29.9994 10.1429 30 10.541V24.441C30.0113 26.8587 31.1883 29.1223 33.161 30.52L42.42 37.11C42.7672 37.3572 43.2328 37.3572 43.58 37.11L52.839 30.52C54.8128 29.1224 55.9901 26.8575 56 24.439V10.539C56.0006 10.1409 55.7649 9.78031 55.4 9.62104L43.4 4.43704C43.1447 4.32637 42.8548 4.32709 42.6 4.43904ZM54 11.2V24.439C53.9903 26.2101 53.1259 27.8675 51.679 28.889L43 35.066L34.321 28.889C32.8749 27.8669 32.0107 26.2099 32 24.439V11.2L43 6.44704L54 11.2Z" fill="#045CB3"/>
<path d="M36.7419 21.9141C36.456 21.6997 36.0776 21.6541 35.749 21.7945C35.4205 21.9348 35.1918 22.2398 35.149 22.5945C35.1063 22.9492 35.256 23.2997 35.5419 23.5141L40.1129 26.9421C40.5449 27.2663 41.1563 27.1888 41.4939 26.7671L50.6368 15.3391C50.9817 14.9075 50.9115 14.278 50.4798 13.9331C50.0482 13.5882 49.4187 13.6585 49.0738 14.0901L40.5379 24.7611L36.7419 21.9141Z" fill="#045CB3"/>
<path d="M28 37.0001C28.0012 34.1678 26.0216 31.7204 23.2517 31.1296C20.4817 30.5387 17.6758 31.9654 16.5212 34.5516C15.3666 37.1379 16.1778 40.1793 18.467 41.8471L17.017 49.8211C16.964 50.1127 17.043 50.4128 17.2328 50.6404C17.4226 50.8681 17.7036 50.9998 18 51.0001H26C26.2964 50.9998 26.5774 50.8681 26.7672 50.6404C26.957 50.4128 27.0361 50.1127 26.983 49.8211L25.533 41.8471C27.0794 40.7157 27.9953 38.9161 28 37.0001ZM23.939 40.5001C23.5677 40.7093 23.3698 41.1308 23.446 41.5501L24.8 49.0001H19.2L20.556 41.5491C20.6322 41.1298 20.4343 40.7083 20.063 40.4991C18.4681 39.6152 17.6729 37.7645 18.1294 35.9991C18.5859 34.2337 20.1786 33.0005 22.002 33.0005C23.8255 33.0005 25.4181 34.2337 25.8746 35.9991C26.3311 37.7645 25.5359 39.6152 23.941 40.4991L23.939 40.5001Z" fill="#045CB3"/>
</svg>
