<svg width="60" height="60" viewBox="0 0 60 60" fill="none" xmlns="http://www.w3.org/2000/svg">
<g clip-path="url(#clip0)">
<path d="M59.5083 42.9935V36.8262C59.6028 36.5917 59.597 36.3212 59.491 36.0646C59.3355 34.5566 58.1181 33.4426 56.5575 33.4426H48.6886C47.1756 33.4426 45.9849 34.4896 45.7719 35.9275C45.65 36.1955 45.6384 36.4815 45.7378 36.7279V42.8952C45.6912 43.0223 45.6689 43.1522 45.671 43.2788H41.8035V31.4754H57.5412V26.5574C57.5412 23.6297 55.5058 21.3053 52.6231 20.7715V10.8197C52.6231 10.2295 52.2298 9.83613 51.6396 9.83613V4.91801C51.6396 4.52461 51.4428 4.22953 51.1478 4.03277L47.2133 2.06555C46.9182 1.86879 46.5248 1.86879 46.2298 2.06555C45.9347 2.2623 45.7379 2.6557 45.7379 2.95078V9.83602C45.1478 9.83602 44.7544 10.2294 44.7544 10.8196V20.6556H41.8036V2.95078C41.8033 1.27863 40.5247 0 38.8526 0H21.1476C19.4755 0 18.1969 1.27863 18.1969 2.95078V20.6557H15.2461V10.8197C15.2461 10.2295 14.8527 9.83613 14.2625 9.83613V2.95078C14.2625 2.6557 14.0658 2.2623 13.8691 2.06555C13.574 1.96723 13.1806 1.86879 12.8856 2.06555L8.95088 4.03277C8.55748 4.22953 8.36072 4.52461 8.36072 4.91801V9.83602C7.77057 9.83602 7.37717 10.2294 7.37717 10.8196V20.7714C4.49447 21.3052 2.45916 23.6296 2.45916 26.5573V31.4753H18.1969V43.2785H14.3262C14.3184 43.1836 14.2971 43.0877 14.2625 42.9933V36.8262C14.3571 36.5917 14.3512 36.3212 14.2453 36.0646C14.0898 34.5566 12.8723 33.4426 11.3117 33.4426H3.44272C1.92971 33.4426 0.739082 34.4895 0.526035 35.9275C0.40416 36.1955 0.392559 36.4815 0.491934 36.7279V42.8952C0.402754 43.1387 0.402754 43.392 0.491934 43.6132V49.7805C0.402754 50.0241 0.402754 50.2773 0.491934 50.4986V56.0658C0.491934 57.7379 1.77057 59.0166 3.44272 59.0166H11.3116C12.9838 59.0166 14.2624 57.7379 14.2624 56.0658V50.5969C14.3516 50.3756 14.3516 50.1224 14.2624 49.8789V49.1805H18.1969V53.3116L20.6559 58.1313C21.2461 59.3116 22.3281 60.0002 23.6067 60.0002H36.3936C37.6722 60.0002 38.8527 59.3118 39.3444 58.1313L41.8035 53.3116V49.1805H45.7379V49.7805C45.6487 50.0241 45.6487 50.2773 45.7379 50.4986V56.0658C45.7379 57.7379 47.0165 59.0166 48.6887 59.0166H56.5576C58.2297 59.0166 59.5084 57.7379 59.5084 56.0658V50.5969C59.5976 50.3756 59.5976 50.1224 59.5084 49.8789V43.7116C59.5976 43.4903 59.5976 43.2369 59.5083 42.9935ZM52.6969 52.9344L47.705 49.6065V49.1803V45.1147L52.0329 48C52.114 48.0405 52.1952 48.0807 52.2763 48.1144C52.3373 48.1418 52.4001 48.1627 52.4639 48.1767C52.47 48.1781 52.4762 48.1796 52.4823 48.1809C52.499 48.1842 52.5158 48.1873 52.5327 48.1895C52.5628 48.1937 52.5929 48.1968 52.623 48.1968C52.6563 48.1968 52.6895 48.1932 52.7228 48.1886C52.7291 48.1876 52.7354 48.1868 52.7417 48.1856C52.8989 48.1603 53.056 48.0983 53.2132 48.0983L57.541 45.213V49.7048L52.6969 52.9344ZM52.0329 41.1148C52.114 41.1553 52.1952 41.1955 52.2763 41.2291C52.3373 41.2566 52.4001 41.2774 52.4639 41.2915C52.47 41.2929 52.4762 41.2944 52.4823 41.2957C52.499 41.299 52.5158 41.302 52.5327 41.3043C52.5628 41.3085 52.5929 41.3115 52.623 41.3115C52.6563 41.3115 52.6895 41.308 52.7228 41.3033C52.7291 41.3024 52.7354 41.3016 52.7417 41.3004C52.8989 41.2751 53.056 41.2131 53.2132 41.2131L57.541 38.3278V42.8196L52.6967 46.0491L47.7049 42.7212V38.2294L52.0329 41.1148ZM48.6886 35.4098H56.5575C56.9971 35.4098 57.3273 35.6284 57.4672 35.9837L52.6967 39.1639L47.8125 35.9078C47.9678 35.5975 48.2812 35.4098 48.6886 35.4098ZM47.705 4.52461L49.6722 5.50816V9.83602H47.705V4.52461ZM46.7215 11.8032H50.6559V20.6557H46.7215V11.8032ZM9.34439 11.8032H13.2788V20.6557H9.34439V11.8032ZM10.3279 5.50816L12.2952 4.52461V9.83613H10.3279V5.50816ZM7.45088 46.0492L2.45904 42.7213V38.2295L6.78689 41.1148C6.86799 41.1553 6.94908 41.1955 7.03029 41.2291C7.09135 41.2566 7.15416 41.2774 7.21803 41.2915C7.22412 41.2929 7.23022 41.2944 7.23643 41.2957C7.25318 41.299 7.26994 41.302 7.28682 41.3043C7.31693 41.3085 7.34705 41.3115 7.37717 41.3115C7.41045 41.3115 7.44361 41.308 7.47689 41.3033C7.48322 41.3024 7.48955 41.3016 7.49588 41.3005C7.65303 41.2752 7.81018 41.2132 7.96732 41.2132L12.2952 38.3279V42.8197L7.45088 46.0492ZM3.44272 35.4098H11.3116C11.7512 35.4098 12.0814 35.6284 12.2213 35.9837L7.45088 39.1639L2.56662 35.9078C2.72178 35.5975 3.03525 35.4098 3.44272 35.4098ZM11.3116 57.0492H3.44272C2.85256 57.0492 2.45916 56.6558 2.45916 56.0657V52.0001L6.78701 54.8854C6.86811 54.9259 6.9492 54.9661 7.03041 54.9997C7.09146 55.0271 7.15428 55.048 7.21814 55.0621C7.22424 55.0635 7.23033 55.065 7.23654 55.0663C7.2533 55.0696 7.27006 55.0726 7.28693 55.0748C7.31705 55.0791 7.34717 55.0821 7.37729 55.0821C7.41057 55.0821 7.44373 55.0786 7.47701 55.0739C7.48334 55.073 7.48967 55.0721 7.496 55.0711C7.65314 55.0458 7.81029 54.9838 7.96744 54.9838L12.2953 52.0985V56.0658C12.2952 56.6557 11.9018 57.0492 11.3116 57.0492ZM12.2952 49.705L7.45088 52.9344L2.45904 49.6065V45.1147L6.78701 48C6.86811 48.0405 6.9492 48.0807 7.03041 48.1144C7.09146 48.1418 7.15428 48.1627 7.21814 48.1767C7.22424 48.1781 7.23033 48.1796 7.23654 48.1809C7.2533 48.1842 7.27006 48.1873 7.28693 48.1895C7.31705 48.1937 7.34717 48.1968 7.37729 48.1968C7.41057 48.1968 7.44373 48.1932 7.47701 48.1886C7.48334 48.1876 7.48967 48.1868 7.496 48.1857C7.65314 48.1604 7.81029 48.0984 7.96744 48.0984L12.2953 45.2132V49.1804V49.705H12.2952ZM14.2624 47.2131V45.2459H18.1969V47.2131H14.2624ZM39.7378 52.918L37.5738 57.3443C37.3771 57.7377 36.8853 58.0328 36.3935 58.0328H23.5083C23.0164 58.0328 22.5247 57.836 22.328 57.3443L20.164 52.918V49.1803V43.2786V31.3771C20.164 30.3935 19.3771 29.5082 18.2951 29.5082H4.42627V26.5574C4.42627 24.2951 6.19674 22.6229 8.6558 22.6229H14.2624H18.2952C19.2787 22.6229 20.1641 21.836 20.1641 20.754V2.95078C20.1641 2.36063 20.5575 1.96723 21.1476 1.96723H38.8526C39.4427 1.96723 39.8361 2.36063 39.8361 2.95078V20.754C39.8361 21.7376 40.623 22.6229 41.705 22.6229H45.7378H51.246H51.3443C53.8033 22.6229 55.5738 24.2951 55.5738 26.5574V29.5082H41.6067C40.6231 29.5082 39.7378 30.2951 39.7378 31.3771V52.918ZM41.8033 47.2131V45.2459H45.7378V47.2131H41.8033ZM56.5575 57.0492H48.6886C48.0984 57.0492 47.705 56.6558 47.705 56.0657V52.0001L52.0329 54.8854C52.114 54.9259 52.1952 54.9661 52.2763 54.9997C52.3373 55.0271 52.4001 55.048 52.4639 55.0621C52.47 55.0635 52.4762 55.065 52.4823 55.0663C52.499 55.0696 52.5158 55.0726 52.5327 55.0748C52.5628 55.0791 52.5929 55.0821 52.623 55.0821C52.6563 55.0821 52.6895 55.0786 52.7228 55.0739C52.7291 55.073 52.7354 55.0721 52.7417 55.071C52.8989 55.0457 53.056 54.9837 53.2132 54.9837L57.541 52.0984V56.0657C57.541 56.6557 57.1476 57.0492 56.5575 57.0492Z" fill="#045CB3"/>
<path d="M31.9673 35.4099H28.0329C27.4427 35.4099 27.0493 35.8032 27.0493 36.3934C27.0493 36.9836 27.4427 37.377 28.0329 37.377H31.9673C32.5575 37.377 32.9509 36.9836 32.9509 36.3934C32.9509 35.8032 32.5575 35.4099 31.9673 35.4099Z" fill="#045CB3"/>
<path d="M25.082 40.3278C25.082 40.918 25.4754 41.3113 26.0656 41.3113H33.9345C34.5246 41.3113 34.918 40.918 34.918 40.3278C34.918 39.7376 34.5246 39.3442 33.9345 39.3442H26.0656C25.4754 39.3442 25.082 39.7376 25.082 40.3278Z" fill="#045CB3"/>
<path d="M31.9673 51.1476H28.0329C27.4427 51.1476 27.0493 51.541 27.0493 52.1311C27.0493 52.7213 27.4427 53.1147 28.0329 53.1147H31.9673C32.5575 53.1147 32.9509 52.7213 32.9509 52.1311C32.9509 51.541 32.5575 51.1476 31.9673 51.1476Z" fill="#045CB3"/>
<path d="M33.9345 47.2131H26.0656C25.4754 47.2131 25.082 47.6065 25.082 48.1966C25.082 48.7868 25.4754 49.1802 26.0656 49.1802H33.9345C34.5246 49.1802 34.918 48.7868 34.918 48.1966C34.918 47.6065 34.5246 47.2131 33.9345 47.2131Z" fill="#045CB3"/>
<path d="M35.9017 43.2786H24.0983C23.5081 43.2786 23.1147 43.672 23.1147 44.2622C23.1147 44.8523 23.5081 45.2457 24.0983 45.2457H35.9015C36.4917 45.2457 36.8851 44.8523 36.8851 44.2622C36.8852 43.6721 36.4918 43.2786 35.9017 43.2786Z" fill="#045CB3"/>
<path d="M27.0495 26.5574C27.0495 24.8853 25.7709 23.6066 24.0987 23.6066C22.4266 23.6066 21.1479 24.8853 21.1479 26.5574C21.1479 28.2296 22.4266 29.5082 24.0987 29.5082C25.7709 29.5082 27.0495 28.2296 27.0495 26.5574ZM23.1151 26.5574C23.1151 25.9673 23.5085 25.5739 24.0986 25.5739C24.6888 25.5739 25.0822 25.9673 25.0822 26.5574C25.0822 27.1476 24.6888 27.541 24.0986 27.541C23.5085 27.541 23.1151 27.1476 23.1151 26.5574Z" fill="#045CB3"/>
<path d="M35.902 23.6066C34.2298 23.6066 32.9512 24.8853 32.9512 26.5574C32.9512 28.2296 34.2298 29.5082 35.902 29.5082C37.5741 29.5082 38.8527 28.2296 38.8527 26.5574C38.8527 24.8853 37.574 23.6066 35.902 23.6066ZM35.902 27.541C35.3118 27.541 34.9184 27.1476 34.9184 26.5574C34.9184 25.9673 35.3118 25.5739 35.902 25.5739C36.4921 25.5739 36.8855 25.9673 36.8855 26.5574C36.8855 27.1476 36.4921 27.541 35.902 27.541Z" fill="#045CB3"/>
<path d="M24.0983 20.6557H35.9015C36.4917 20.6557 36.8851 20.2623 36.8851 19.6722V5.90171C36.8851 5.31155 36.4917 4.91815 35.9015 4.91815H24.0983C23.5081 4.91815 23.1147 5.31155 23.1147 5.90171V19.6722C23.1147 20.2623 23.5081 20.6557 24.0983 20.6557ZM25.082 6.88526H34.918V18.6885H25.082V6.88526Z" fill="#045CB3"/>
</g>
<defs>
<clipPath id="clip0">
<rect width="60" height="60" fill="white"/>
</clipPath>
</defs>
</svg>
