<svg width="60" height="54" viewBox="0 0 60 54" fill="none" xmlns="http://www.w3.org/2000/svg">
<path d="M57.3634 22.6045H56.485V19.9673V10.5923C56.485 7.52296 53.9878 5.02581 50.9186 5.02581H26.7805L10.4958 0.373011C10.4911 0.371722 10.4863 0.371019 10.4816 0.36973C10.4768 0.368441 10.4722 0.366566 10.4674 0.365394C10.4576 0.362933 10.4478 0.361761 10.4381 0.359652C10.423 0.356488 10.4079 0.353206 10.3928 0.350746C10.379 0.348519 10.3656 0.347113 10.3519 0.345472C10.3359 0.343597 10.3201 0.341956 10.3043 0.341019C10.2914 0.340316 10.2786 0.340199 10.2657 0.339964C10.2493 0.33973 10.233 0.339613 10.2167 0.340316C10.2047 0.340785 10.1926 0.341956 10.1806 0.342894C10.1639 0.3443 10.1471 0.345824 10.1306 0.348285C10.1194 0.349925 10.1082 0.352035 10.0971 0.354027C10.08 0.357074 10.0631 0.360355 10.0463 0.364456C10.0359 0.367034 10.0257 0.369964 10.0154 0.372894C9.9983 0.377816 9.98143 0.382855 9.96455 0.388714C9.95506 0.392113 9.94568 0.395745 9.93619 0.399495C9.9192 0.406058 9.90232 0.412972 9.8858 0.420589C9.87701 0.424691 9.86846 0.429144 9.85979 0.43348C9.84326 0.4418 9.82697 0.450238 9.81104 0.45973C9.80272 0.464534 9.79475 0.469691 9.78654 0.474847C9.77084 0.484691 9.75537 0.494769 9.74037 0.505667C9.73252 0.511292 9.7249 0.517386 9.71717 0.523362C9.70275 0.534495 9.68846 0.545862 9.67475 0.557933C9.66701 0.564729 9.65963 0.571878 9.65213 0.578909C9.63924 0.591097 9.62647 0.603284 9.61428 0.616175C9.60666 0.624261 9.59951 0.632698 9.59213 0.641135C9.581 0.653909 9.56998 0.6668 9.55955 0.680276C9.55205 0.690003 9.54502 0.699964 9.53787 0.709925C9.52861 0.722932 9.51947 0.736057 9.51104 0.749534C9.50377 0.761018 9.49709 0.772971 9.49041 0.784807C9.48303 0.797815 9.47565 0.81094 9.46897 0.824416C9.4624 0.837541 9.45654 0.851018 9.45057 0.864495C9.44471 0.877737 9.43897 0.890979 9.43381 0.904573C9.42842 0.918869 9.42373 0.933518 9.41893 0.948284C9.41588 0.957776 9.41213 0.966682 9.40932 0.976291C9.40791 0.981096 9.40733 0.985783 9.40604 0.990471C9.40475 0.995275 9.40287 0.999846 9.4017 1.00465L8.3967 5.02558H5.56698C2.50382 5.02558 0.0110156 7.51265 0.000937498 10.5736C0.000820311 10.5799 0 10.5859 0 10.5921V41.0608C0 41.5459 0.394921 41.9397 0.878905 41.9397C1.36406 41.9397 1.75781 41.5459 1.75781 41.0608V14.646C2.75437 15.583 4.09429 16.1588 5.56698 16.1588H50.9186C50.9196 16.1588 50.9206 16.1587 50.9216 16.1587C53.0202 16.1604 54.7272 17.8683 54.7272 19.9674V26.1202H45.0578C45.0572 26.1202 45.0568 26.1203 45.0562 26.1203C45.0307 26.1203 45.0054 26.1219 44.9802 26.1241C44.9522 26.1266 44.9246 26.1305 44.8974 26.1356C44.8933 26.1363 44.8893 26.1366 44.8852 26.1375C44.8622 26.142 44.8397 26.1481 44.8173 26.1544C44.8124 26.1559 44.8074 26.1568 44.8026 26.1583C44.7826 26.1644 44.7633 26.1717 44.744 26.1791C44.7366 26.1819 44.7291 26.1842 44.7217 26.1873C44.7055 26.1939 44.69 26.2018 44.6744 26.2094C44.6641 26.2143 44.6536 26.2189 44.6436 26.2242C44.6314 26.2306 44.6199 26.238 44.6082 26.245C44.5951 26.2528 44.5819 26.2603 44.5693 26.2687C44.5607 26.2743 44.5528 26.2808 44.5446 26.2868C44.5296 26.2975 44.5145 26.3082 44.5002 26.32C44.494 26.3252 44.4883 26.3309 44.4823 26.3362C44.4669 26.3496 44.4516 26.3628 44.4371 26.3773C44.4285 26.3859 44.4208 26.3953 44.4127 26.4042C44.4013 26.4165 44.3896 26.4285 44.3788 26.4417C44.3607 26.4638 44.3437 26.4868 44.3277 26.5106C44.3274 26.5109 44.327 26.5114 44.3268 26.5119L39.6395 33.5432C39.6068 33.5922 39.5792 33.6441 39.5573 33.6981C39.5489 33.7183 39.5423 33.7388 39.5356 33.7592C39.5336 33.7654 39.531 33.7714 39.5291 33.7776C39.5226 33.7993 39.5175 33.8212 39.5127 33.843C39.5114 33.8487 39.5098 33.8544 39.5086 33.8601C39.5048 33.8798 39.5022 33.8996 39.4997 33.9194C39.4987 33.9278 39.497 33.9363 39.4962 33.9448C39.4946 33.9611 39.4942 33.9773 39.4936 33.9936C39.493 34.006 39.492 34.0184 39.492 34.031C39.492 34.043 39.493 34.0551 39.4935 34.0672C39.4941 34.0838 39.4946 34.1006 39.4962 34.1172C39.497 34.1253 39.4986 34.1334 39.4996 34.1415C39.5022 34.1616 39.5048 34.1818 39.5088 34.2018C39.5098 34.2073 39.5114 34.2127 39.5127 34.2182C39.5175 34.2403 39.5227 34.2623 39.5293 34.2842C39.5311 34.2904 39.5337 34.2964 39.5357 34.3027C39.5424 34.3231 39.5491 34.3436 39.5574 34.3638C39.5794 34.4177 39.6071 34.4697 39.6399 34.5188L44.327 41.5491C44.3273 41.5495 44.3275 41.5497 44.3277 41.55C44.3466 41.5781 44.3672 41.6048 44.389 41.6304C44.3962 41.6389 44.4038 41.6467 44.4112 41.6547C44.426 41.671 44.4415 41.6867 44.4576 41.7018C44.4671 41.7107 44.4764 41.7194 44.486 41.7277C44.5032 41.7423 44.5209 41.7561 44.539 41.7694C44.5472 41.7754 44.5551 41.782 44.5634 41.7876C44.5898 41.8055 44.6171 41.822 44.6453 41.837C44.6525 41.8408 44.6598 41.8439 44.667 41.8475C44.6895 41.8587 44.7125 41.8691 44.736 41.8784C44.7451 41.882 44.7543 41.8853 44.7635 41.8886C44.7859 41.8966 44.8087 41.9036 44.8319 41.9098C44.8414 41.9123 44.8507 41.9148 44.8603 41.9172C44.8841 41.9227 44.9083 41.9269 44.9328 41.9304C44.9417 41.9317 44.9505 41.9335 44.9594 41.9345C44.9896 41.9379 45.0203 41.9398 45.0515 41.94C45.0539 41.94 45.0564 41.9405 45.059 41.9405C45.0594 41.9405 45.06 41.9404 45.0606 41.9404H54.7275V48.0937C54.7275 50.1939 53.0189 51.9025 50.9189 51.9025H5.56745C3.46745 51.9025 1.75886 50.1939 1.75886 48.0937C1.75886 48.0891 1.75828 48.0846 1.75816 48.0801V44.5769C1.75816 44.0929 1.36441 43.698 0.879256 43.698C0.395273 43.698 0.000351562 44.0929 0.000351562 44.5769V48.0937C0.000351562 48.1028 0.00140625 48.1117 0.00175781 48.1207C0.0164062 51.1777 2.50722 53.6603 5.56745 53.6603H50.9189C53.9879 53.6603 56.4849 51.1636 56.4853 48.0946C56.4853 48.0945 56.4853 48.0944 56.4853 48.0941V41.9404H57.3638C58.8173 41.9404 60 40.7577 60 39.3041V25.2407C59.9996 23.7871 58.817 22.6045 57.3634 22.6045ZM10.8867 2.31281L26.3951 6.74401C26.3958 6.74425 26.3967 6.74437 26.3974 6.7446L36.7914 9.71436H9.03678L10.8867 2.31281ZM54.727 15.9133C53.7306 14.9765 52.3909 14.4008 50.9186 14.4008C50.9171 14.4008 50.9156 14.401 50.914 14.401H5.56698C3.46687 14.401 1.75828 12.6924 1.75828 10.5923C1.75828 8.49221 3.46687 6.78362 5.56698 6.78362H7.95737L7.22495 9.71436H5.56722C5.08183 9.71436 4.68831 10.1079 4.68831 10.5933C4.68831 11.0787 5.08183 11.4722 5.56722 11.4722H7.90815C7.90932 11.4722 7.91061 11.4724 7.9119 11.4724C7.91284 11.4724 7.91377 11.4722 7.91459 11.4722H43.0639C43.065 11.4722 43.0661 11.4724 43.0671 11.4724C43.0681 11.4724 43.069 11.4722 43.07 11.4722H49.7456C50.231 11.4722 50.6246 11.0787 50.6246 10.5933C50.6246 10.1079 50.231 9.71436 49.7456 9.71436H43.1898L32.9326 6.78362H50.9185C53.0185 6.78362 54.727 8.49221 54.727 10.5923V15.9133ZM58.2418 39.3037C58.2418 39.788 57.8477 40.1821 57.3634 40.1821H45.5282L41.4268 34.0305L45.5282 27.8779H57.3634C57.3757 27.8779 57.3877 27.8765 57.3998 27.876C57.6947 27.8719 57.9778 27.8194 58.2418 27.7259V39.3037ZM57.3634 26.1192C57.3573 26.1192 57.3513 26.12 57.3452 26.1201H56.485V24.3623H57.3634C57.8477 24.3623 58.2418 24.7564 58.2418 25.2407C58.2418 25.7251 57.8477 26.1192 57.3634 26.1192Z" fill="#045CB3"/>
</svg>
