<svg width="60" height="60" viewBox="0 0 60 60" fill="none" xmlns="http://www.w3.org/2000/svg">
<g clip-path="url(#clip0)">
<path d="M11.0067 59.9998C15.2733 60.0032 19.1556 57.5363 20.965 53.673C22.7749 49.8101 22.1848 45.2483 19.4519 41.9727L21.7099 39.7142L20.2963 38.3007L18.0384 40.5591C14.3093 37.4494 8.98209 37.1536 4.93181 39.8314C0.881534 42.5091 -0.933234 47.5263 0.467134 52.1755C1.8675 56.8247 6.15158 60.0047 11.0067 59.9998ZM11.0067 40.0071C15.9756 40.0071 20.0035 44.0354 20.0035 49.0038C20.0035 53.9727 15.9756 58.0005 11.0067 58.0005C6.03834 58.0005 2.01003 53.9727 2.01003 49.0038C2.01589 44.0373 6.0403 40.0129 11.0067 40.0071Z" fill="#045CB3"/>
<path d="M11.0067 22.0137C13.5776 22.0151 16.0669 21.1121 18.0384 19.4628L20.2963 21.7208L21.7099 20.3072L19.4519 18.0493C22.7432 14.0898 22.8447 8.37605 19.6955 4.30234C16.5462 0.228631 10.9911 -1.11268 6.33023 1.07549C1.66933 3.26366 -0.847332 8.3946 0.274818 13.4196C1.39746 18.4446 5.85823 22.0166 11.0067 22.0137ZM11.0067 2.02095C15.9756 2.02095 20.0035 6.04926 20.0035 11.0177C20.0035 15.9866 15.9756 20.0144 11.0067 20.0144C6.03834 20.0144 2.01003 15.9866 2.01003 11.0177C2.01588 6.05121 6.04029 2.0268 11.0067 2.02095Z" fill="#045CB3"/>
<path d="M40.9958 30.0107C40.9997 24.0622 36.2719 19.189 30.3259 19.0128C24.3798 18.8366 19.3714 23.4213 19.0229 29.3596C18.6744 35.2983 23.1117 40.4371 29.0373 40.9579C29.356 40.9891 29.6772 41.0067 29.9998 41.0067C30.3229 41.0067 30.6436 40.9891 30.9628 40.9579C36.6356 40.4547 40.988 35.7064 40.9958 30.0107ZM34.998 37.2405C33.7811 38.2211 32.3027 38.8224 30.7466 38.9699C30.4996 38.9908 30.2522 39.0074 29.9998 39.0074C29.748 39.0074 29.5 38.9908 29.2535 38.9699C27.6974 38.8224 26.219 38.2211 25.0016 37.2405V37.1741C25.6176 35.4091 26.6231 33.8047 27.9439 32.481L28.5868 31.8382C28.9767 31.4477 28.9767 30.8151 28.5868 30.4246C27.8058 29.6442 27.8053 28.378 28.5863 27.5971C29.3672 26.8166 30.6329 26.8166 31.4138 27.5971C32.1943 28.378 32.1943 29.6442 31.4134 30.4246C31.0234 30.8151 31.0234 31.4477 31.4134 31.8382L32.0562 32.481C33.3765 33.8047 34.382 35.4091 34.998 37.1741V37.2405ZM33.4697 31.0675L33.4458 31.0426C34.4347 29.363 34.0682 27.2154 32.579 25.958C31.0893 24.7011 28.9109 24.7011 27.4212 25.958C25.9315 27.2154 25.5654 29.363 26.5543 31.0426L26.5304 31.0675C25.132 32.4795 24.0396 34.1655 23.3226 36.0188C20.0723 32.419 20.2602 26.8913 23.7472 23.5209C27.2347 20.1501 32.7654 20.1501 36.2524 23.5209C39.7399 26.8913 39.9278 32.419 36.6776 36.0188C35.96 34.1655 34.8682 32.4795 33.4697 31.0675Z" fill="#045CB3"/>
<path d="M11.0067 16.0159C13.7674 16.0159 16.0049 13.7784 16.0049 11.0177C16.0049 8.25748 13.7674 6.01953 11.0067 6.01953C8.2465 6.01953 6.00854 8.25748 6.00854 11.0177C6.01196 13.777 8.24796 16.013 11.0067 16.0159ZM11.0067 8.0188C12.6633 8.0188 14.0056 9.36157 14.0056 11.0177C14.0056 12.6743 12.6633 14.0166 11.0067 14.0166C9.35059 14.0166 8.00782 12.6743 8.00782 11.0177C8.00782 9.36157 9.35059 8.0188 11.0067 8.0188Z" fill="#045CB3"/>
<path d="M7.00818 54.002H15.0053C15.5573 54.002 16.0049 53.5544 16.0049 53.0023V45.0053C16.0049 44.4532 15.5573 44.0056 15.0053 44.0056H7.00818C6.45614 44.0056 6.00854 44.4532 6.00854 45.0053V53.0023C6.00854 53.5544 6.45614 54.002 7.00818 54.002ZM8.00782 46.0049H14.0056V52.0027H8.00782V46.0049Z" fill="#045CB3"/>
<path d="M49.8608 6.5193C49.6685 6.2279 49.3425 6.05267 48.993 6.05267C48.644 6.05267 48.3179 6.2279 48.1256 6.5193L44.1271 13.5167C43.9484 13.8267 43.9484 14.2079 44.1276 14.5174C44.3067 14.8268 44.6372 15.0172 44.9944 15.0162H52.9915C53.3493 15.0172 53.6798 14.8268 53.8589 14.5174C54.038 14.2079 54.038 13.8267 53.8594 13.5167L49.8608 6.5193ZM46.717 13.0169L48.993 9.03449L51.2695 13.0169H46.717Z" fill="#045CB3"/>
<path d="M48.993 59.9998C53.8486 60.0047 58.1327 56.8247 59.5331 52.1755C60.9334 47.5263 59.1187 42.5091 55.0684 39.8314C51.0176 37.1536 45.691 37.4494 41.9619 40.5591L39.7034 38.3007L38.2899 39.7142L40.5483 41.9727C37.8149 45.2483 37.2253 49.8101 39.0347 53.673C40.8446 57.5363 44.727 60.0032 48.993 59.9998ZM48.993 40.0071C53.9619 40.0071 57.9897 44.0354 57.9897 49.0038C57.9897 53.9727 53.9619 58.0005 48.993 58.0005C44.0246 58.0005 39.9963 53.9727 39.9963 49.0038C40.0021 44.0373 44.0265 40.0129 48.993 40.0071Z" fill="#045CB3"/>
<path d="M48.3934 54.802C48.7488 55.0685 49.2373 55.0685 49.5927 54.802L53.5912 51.8031C53.8431 51.6142 53.991 51.3179 53.991 51.0031V47.0045C53.991 46.6902 53.8431 46.3939 53.5912 46.205L49.5927 43.2061C49.2373 42.9396 48.7488 42.9396 48.3934 43.2061L44.3949 46.205C44.143 46.3939 43.9946 46.6902 43.9946 47.0045V51.0031C43.9946 51.3179 44.143 51.6142 44.3949 51.8031L48.3934 54.802ZM45.9939 47.5043L48.9928 45.2552L51.9917 47.5043V50.5032L48.9928 52.7524L45.9939 50.5032V47.5043Z" fill="#045CB3"/>
<path d="M8.00781 25.0126H10.0071V27.0118H8.00781V25.0126Z" fill="#045CB3"/>
<path d="M8.00781 29.0111H10.0071V31.0104H8.00781V29.0111Z" fill="#045CB3"/>
<path d="M8.00781 33.0096H10.0071V35.0089H8.00781V33.0096Z" fill="#045CB3"/>
<path d="M52.9915 25.0126H54.9907V27.0118H52.9915V25.0126Z" fill="#045CB3"/>
<path d="M52.9915 29.0111H54.9907V31.0104H52.9915V29.0111Z" fill="#045CB3"/>
<path d="M52.9915 33.0096H54.9907V35.0089H52.9915V33.0096Z" fill="#045CB3"/>
<path d="M25.0017 5.01984H27.001V7.01911H25.0017V5.01984Z" fill="#045CB3"/>
<path d="M29.0002 5.01984H30.9995V7.01911H29.0002V5.01984Z" fill="#045CB3"/>
<path d="M32.9985 5.01984H34.9978V7.01911H32.9985V5.01984Z" fill="#045CB3"/>
<path d="M25.0017 53.0024H27.001V55.0016H25.0017V53.0024Z" fill="#045CB3"/>
<path d="M29.0002 53.0024H30.9995V55.0016H29.0002V53.0024Z" fill="#045CB3"/>
<path d="M32.9985 53.0024H34.9978V55.0016H32.9985V53.0024Z" fill="#045CB3"/>
<path d="M48.9928 0.0216675C45.0065 0.0221556 41.332 2.18055 39.3903 5.66219C37.4487 9.14383 37.5439 13.404 39.6383 16.7958L39.0087 20.8612C38.9642 21.1497 39.0477 21.4431 39.2376 21.6647C39.4274 21.8863 39.7047 22.0136 39.9961 22.0136C40.0664 22.0141 40.1367 22.0068 40.205 21.9917L44.5408 21.0623C45.9407 21.6905 47.4582 22.0146 48.9928 22.0136C55.0658 22.0136 59.9888 17.0906 59.9888 11.0177C59.9888 4.94517 55.0658 0.0216675 48.9928 0.0216675ZM48.9928 20.0144C47.6422 20.0139 46.3092 19.7064 45.0943 19.1148C44.9591 19.0489 44.8102 19.0147 44.6594 19.0147C44.5896 19.0152 44.5193 19.0226 44.4505 19.0367L41.209 19.7366L41.6747 16.7319C41.7127 16.4839 41.6566 16.2306 41.5165 16.0222C39.221 12.5918 39.5539 8.03974 42.3238 4.97982C45.0938 1.9199 49.5907 1.13747 53.2315 3.08207C56.8722 5.02619 58.7231 9.1985 57.7206 13.2024C56.7185 17.2063 53.1207 20.0149 48.9928 20.0144Z" fill="#045CB3"/>
</g>
<defs>
<clipPath id="clip0">
<rect width="60" height="60" fill="white"/>
</clipPath>
</defs>
</svg>
