<svg width="87" height="18" viewBox="0 0 87 18" fill="none" xmlns="http://www.w3.org/2000/svg">
<path d="M17.7206 11.1722C16.5191 15.9915 11.638 18.9244 6.81818 17.7226C2.00031 16.5211 -0.932633 11.6397 0.269444 6.82074C1.4704 2.00091 6.35152 -0.932313 11.1699 0.269201C15.9895 1.47072 18.9222 6.35268 17.7206 11.1722Z" fill="#F7931A"/>
<path d="M12.9612 7.71453C13.1403 6.51751 12.2289 5.87402 10.9827 5.44475L11.3869 3.82323L10.3999 3.57725L10.0063 5.15603C9.74687 5.09137 9.48036 5.03037 9.21554 4.96993L9.61193 3.38075L8.62547 3.13477L8.22094 4.75571C8.00616 4.7068 7.79532 4.65845 7.59066 4.60757L7.59178 4.6025L6.2306 4.26262L5.96803 5.31683C5.96803 5.31683 6.70035 5.48466 6.68489 5.49506C7.08465 5.59486 7.15689 5.85939 7.1448 6.06911L6.68432 7.91637C6.71187 7.9234 6.74758 7.93352 6.78694 7.94926C6.75405 7.94111 6.71891 7.93211 6.68264 7.92339L6.03718 10.5111C5.98827 10.6326 5.8643 10.8147 5.58486 10.7456C5.5947 10.7599 4.86744 10.5665 4.86744 10.5665L4.37744 11.6963L5.66189 12.0165C5.90084 12.0764 6.13501 12.1391 6.36553 12.1981L5.95707 13.8382L6.94296 14.0842L7.34749 12.4615C7.61681 12.5346 7.87825 12.6021 8.13407 12.6656L7.73095 14.2807L8.71796 14.5267L9.12643 12.8897C10.8095 13.2082 12.0751 13.0797 12.6078 11.5575C13.0371 10.3318 12.5865 9.62475 11.7009 9.16371C12.3458 9.01499 12.8316 8.59078 12.9612 7.71453ZM10.7061 10.8769C10.401 12.1026 8.33732 11.4399 7.66825 11.2738L8.21026 9.10101C8.87933 9.268 11.0248 9.5986 10.7061 10.8769ZM11.0114 7.69681C10.733 8.81174 9.01539 8.24528 8.4582 8.1064L8.94961 6.13575C9.50679 6.27462 11.3012 6.53381 11.0114 7.69681Z" fill="white"/>
<path d="M26.3625 5.44319C27.092 5.44319 27.7222 5.57391 28.2519 5.83057C28.784 6.08977 29.2231 6.43892 29.5754 6.87803C29.9228 7.3194 30.1815 7.83525 30.3485 8.42645C30.5143 9.01934 30.5975 9.65664 30.5975 10.3389C30.5975 11.3869 30.4055 12.3771 30.0179 13.3104C29.6302 14.2451 29.1042 15.0559 28.4352 15.7474C27.7667 16.4381 26.9773 16.9827 26.067 17.3849C25.1582 17.7875 24.17 17.9888 23.1091 17.9888C22.9719 17.9888 22.7307 17.9849 22.39 17.9778C22.0493 17.9708 21.6577 17.9357 21.2191 17.8763C20.7778 17.8148 20.3111 17.7237 19.8183 17.6017C19.3258 17.4819 18.858 17.3141 18.4175 17.101L22.3565 0.549713L25.8846 0.00292969L24.4742 5.8764C24.7761 5.74034 25.0803 5.63491 25.3839 5.55817C25.6878 5.48255 26.0139 5.44319 26.3625 5.44319ZM23.4031 15.1899C23.9344 15.1899 24.4351 15.0592 24.9054 14.8026C25.3771 14.5456 25.7842 14.1987 26.1252 13.7666C26.4662 13.3326 26.7361 12.8437 26.9329 12.2975C27.1296 11.7513 27.2292 11.1814 27.2292 10.5886C27.2292 9.86017 27.1074 9.29203 26.8648 8.88131C26.6222 8.47228 26.1733 8.26649 25.5214 8.26649C25.3077 8.26649 25.0325 8.30725 24.6912 8.38006C24.3488 8.45737 24.0424 8.6179 23.7677 8.85938L22.266 15.0969C22.3565 15.1129 22.4366 15.1281 22.5049 15.1424C22.5719 15.1579 22.6458 15.1689 22.7194 15.1765C22.7973 15.1852 22.8864 15.1897 22.9941 15.1897C23.1018 15.1897 23.2364 15.1899 23.4031 15.1899Z" fill="#4D4D4D"/>
<path d="M34.256 17.6714H30.8862L33.732 5.69645H37.1249L34.256 17.6714ZM35.8958 4.23743C35.4255 4.23743 34.999 4.09743 34.6207 3.81687C34.2392 3.538 34.0503 3.10873 34.0503 2.53018C34.0503 2.21195 34.1149 1.91339 34.2431 1.63171C34.3733 1.35059 34.5433 1.10855 34.7564 0.902764C34.9692 0.69867 35.2158 0.535616 35.4958 0.412766C35.7775 0.291883 36.0771 0.231445 36.3965 0.231445C36.8665 0.231445 37.2907 0.371445 37.6705 0.652004C38.0489 0.933969 38.2393 1.36324 38.2393 1.9387C38.2393 2.25805 38.1749 2.55773 38.0456 2.83885C37.9171 3.11997 37.747 3.36201 37.5339 3.56779C37.3228 3.77217 37.074 3.93466 36.7946 4.05638C36.5126 4.17924 36.2141 4.23743 35.8958 4.23743Z" fill="#4D4D4D"/>
<path d="M40.0783 2.7128L43.6078 2.16602L42.7411 5.69578H46.521L45.8385 8.4727H42.0813L41.0805 12.6614C40.9883 13.0106 40.936 13.3367 40.9214 13.6397C40.9048 13.9442 40.9433 14.2056 41.0344 14.4257C41.1249 14.6464 41.2877 14.8165 41.5238 14.9368C41.7588 15.0591 42.0953 15.1207 42.5367 15.1207C42.9002 15.1207 43.2544 15.0861 43.5968 15.0175C43.9372 14.95 44.2822 14.8561 44.6313 14.7333L44.8827 17.3297C44.4272 17.4967 43.9342 17.6404 43.4028 17.7612C42.8707 17.8838 42.2407 17.9429 41.5126 17.9429C40.4657 17.9429 39.6541 17.7874 39.0758 17.4779C38.4984 17.1661 38.0902 16.7402 37.8459 16.201C37.605 15.6638 37.4973 15.0445 37.5274 14.3467C37.5586 13.6473 37.664 12.9122 37.8459 12.138L40.0783 2.7128Z" fill="#4D4D4D"/>
<path d="M46.3726 12.8897C46.3726 11.8582 46.5395 10.8856 46.8732 9.975C47.2064 9.0636 47.6862 8.26662 48.3089 7.58265C48.9294 6.90205 49.6853 6.36286 50.575 5.96704C51.4606 5.57347 52.4521 5.375 53.5448 5.375C54.2288 5.375 54.8397 5.43966 55.3772 5.56926C55.9169 5.69998 56.4052 5.86894 56.8469 6.0809L55.6847 8.72344C55.3811 8.60031 55.066 8.4918 54.7402 8.3934C54.4141 8.29304 54.016 8.24469 53.5451 8.24469C52.4203 8.24469 51.5311 8.63236 50.8694 9.40516C50.2102 10.1785 49.8781 11.2195 49.8781 12.5253C49.8781 13.2993 50.0451 13.925 50.3802 14.4038C50.7136 14.8825 51.3296 15.1206 52.2238 15.1206C52.6652 15.1206 53.0911 15.0745 53.499 14.9846C53.91 14.8935 54.2729 14.7788 54.5926 14.6433L54.8442 17.3522C54.418 17.5175 53.9479 17.6668 53.4324 17.7975C52.9157 17.9237 52.3006 17.9892 51.5874 17.9892C50.6459 17.9892 49.8489 17.8515 49.197 17.5802C48.5448 17.3047 48.0059 16.9389 47.5814 16.4757C47.1546 16.0112 46.8482 15.469 46.6587 14.8466C46.4693 14.2247 46.3726 13.5714 46.3726 12.8897Z" fill="#4D4D4D"/>
<path d="M61.3422 17.9892C60.5379 17.9892 59.8393 17.8666 59.2467 17.624C58.6558 17.3814 58.1664 17.041 57.7793 16.5996C57.3916 16.1605 57.1015 15.6402 56.9027 15.0405C56.704 14.4412 56.6084 13.7774 56.6084 13.0502C56.6084 12.1379 56.7549 11.226 57.0509 10.3166C57.3455 9.40516 57.7826 8.58626 58.3612 7.85843C58.9352 7.12949 59.6434 6.5335 60.4772 6.0688C61.3102 5.6072 62.2682 5.375 63.3444 5.375C64.134 5.375 64.829 5.49785 65.4297 5.74045C66.0277 5.9825 66.5202 6.32575 66.9095 6.76487C67.2947 7.20623 67.5873 7.72434 67.7841 8.32481C67.9823 8.92304 68.0801 9.58845 68.0801 10.3163C68.0801 11.2257 67.9356 12.1377 67.6489 13.0499C67.3619 13.9576 66.936 14.7785 66.3737 15.508C65.8126 16.2359 65.1109 16.8316 64.2681 17.2943C63.4264 17.757 62.4504 17.9892 61.3422 17.9892ZM63.0264 8.24498C62.5269 8.24498 62.0852 8.39003 61.7071 8.67649C61.3276 8.96633 61.0088 9.33067 60.7518 9.77006C60.4921 10.2114 60.2995 10.6927 60.1694 11.2159C60.0403 11.7402 59.9771 12.2358 59.9771 12.7067C59.9771 13.4665 60.0996 14.0583 60.3406 14.4842C60.5849 14.9078 61.0237 15.1209 61.6616 15.1209C62.1628 15.1209 62.6022 14.977 62.9826 14.6874C63.3598 14.3999 63.6789 14.0352 63.9378 13.595C64.1959 13.1559 64.3901 12.6732 64.5203 12.1492C64.6476 11.6266 64.7126 11.1282 64.7126 10.6581C64.7126 9.90022 64.5906 9.30705 64.3474 8.88171C64.1045 8.45806 63.6637 8.24498 63.0264 8.24498Z" fill="#4D4D4D"/>
<path d="M71.752 17.6714H68.3794L71.2252 5.69645H74.6197L71.752 17.6714ZM73.3893 4.23743C72.9192 4.23743 72.4931 4.09743 72.1152 3.81687C71.7357 3.538 71.5451 3.10873 71.5451 2.53018C71.5451 2.21195 71.6106 1.91339 71.7391 1.63171C71.8676 1.35059 72.0387 1.10855 72.2518 0.902764C72.4635 0.69867 72.7123 0.535616 72.9918 0.412766C73.2718 0.291883 73.5714 0.231445 73.8896 0.231445C74.3608 0.231445 74.7864 0.371445 75.1654 0.652004C75.5446 0.933969 75.7361 1.36324 75.7361 1.9387C75.7361 2.25805 75.668 2.55773 75.5407 2.83885C75.4133 3.11997 75.2421 3.36201 75.0299 3.56779C74.8162 3.77217 74.5705 3.93466 74.2905 4.05638C74.0083 4.17924 73.7092 4.23743 73.3893 4.23743Z" fill="#4D4D4D"/>
<path d="M77.0484 6.24149C77.3042 6.16672 77.5898 6.07676 77.9005 5.97893C78.2122 5.8811 78.5605 5.79002 78.9496 5.70793C79.3345 5.62331 79.7688 5.55472 80.2464 5.50159C80.7241 5.44733 81.2683 5.4209 81.873 5.4209C83.6502 5.4209 84.8754 5.93845 85.5518 6.97045C86.2276 8.00245 86.3445 9.4148 85.906 11.205L84.3559 17.6708H80.9638L82.4662 11.341C82.5578 10.9458 82.6298 10.5637 82.6829 10.1904C82.7366 9.82046 82.7335 9.49436 82.6708 9.21211C82.6109 8.93324 82.4698 8.70497 82.2508 8.52814C82.0285 8.35413 81.6925 8.2667 81.2368 8.2667C80.7974 8.2667 80.3504 8.31393 79.8942 8.40501L77.6854 17.6705H74.292L77.0484 6.24149Z" fill="#4D4D4D"/>
</svg>
