<svg width="83" height="20" viewBox="0 0 83 20" fill="none" xmlns="http://www.w3.org/2000/svg">
<path fill-rule="evenodd" clip-rule="evenodd" d="M14.3039 0C6.39657 0 0 3.7469 0 8.39832C0 10.3685 1.15708 12.1773 3.11783 13.631C2.15347 12.4357 1.6071 11.1114 1.6071 9.69016C1.6071 4.87736 7.87526 0.968828 15.5896 0.968828C20.5718 0.968828 24.9433 2.58393 27.4184 5.03899C25.2004 2.06724 20.1538 0 14.3039 0Z" fill="#7DBD53"/>
<path fill-rule="evenodd" clip-rule="evenodd" d="M7.9384 7.37701C8.34977 7.03538 8.86057 6.86432 9.47057 6.86432C10.0664 6.86432 10.5737 7.03844 10.9921 7.38667C11.4106 7.7349 11.6412 8.17973 11.6839 8.7214H7.15099C7.26455 8.16701 7.52678 7.71888 7.9384 7.37701ZM13.0457 10.7721C13.6272 10.7721 14.0954 10.6496 14.4502 10.4046C14.8616 10.1336 15.0675 9.74041 15.0675 9.22443C15.0675 8.27021 14.7551 7.38667 14.1312 6.57405C13.5066 5.76167 12.7053 5.14908 11.7263 4.73629C11.0454 4.45262 10.2862 4.31055 9.44936 4.31055C7.76098 4.31055 6.37442 4.85905 5.28896 5.9551C4.20374 7.0514 3.66113 8.37317 3.66113 9.92089C3.66113 11.4816 4.22825 12.7937 5.36365 13.8577C6.49835 14.9217 7.91719 15.4537 9.61971 15.4537C10.5273 15.4537 11.3997 15.3248 12.2371 15.0668C13.23 14.7704 13.9535 14.3383 14.4078 13.7708C14.6629 13.4612 14.7906 13.1516 14.7906 12.8422C14.7906 12.0296 14.3366 11.6234 13.4288 11.6234C13.23 11.6234 12.7192 11.7945 11.8966 12.1361C11.0737 12.478 10.3715 12.6488 9.78982 12.6488C9.09453 12.6488 8.50574 12.4876 8.02369 12.1651C7.54116 11.8428 7.26455 11.3786 7.19363 10.7721H13.0457Z" fill="white"/>
<path fill-rule="evenodd" clip-rule="evenodd" d="M16.9829 13.8289C18.0327 14.8995 19.4228 15.4346 21.1539 15.4346C22.1894 15.4346 23.0548 15.2798 23.75 14.9705C24.7146 14.532 25.1972 13.9967 25.1972 13.3648C25.1972 12.9906 25.0728 12.6716 24.8247 12.407C24.5763 12.1429 24.2535 12.0105 23.8565 12.0105C23.5868 12.0105 23.2463 12.0878 22.8349 12.2426C22.4233 12.3974 21.9764 12.4749 21.4943 12.4749C20.6713 12.4749 20.0331 12.2169 19.579 11.7009C19.1818 11.2365 18.9832 10.6176 18.9832 9.84382C18.9832 9.10872 19.1747 8.49613 19.5578 8.00583C19.9833 7.46416 20.5863 7.19345 21.3666 7.19345C21.8487 7.19345 22.3062 7.27402 22.7393 7.43518C23.1719 7.59657 23.5229 7.67692 23.7927 7.67692C24.2038 7.67692 24.5445 7.54827 24.8141 7.29005C25.0834 7.03229 25.2184 6.71634 25.2184 6.34219C25.2184 5.62004 24.7502 5.07838 23.8139 4.71719C23.1186 4.45919 22.3029 4.33008 21.3666 4.33008C19.579 4.33008 18.1461 4.8496 17.0679 5.88746C15.9898 6.92579 15.4507 8.26406 15.4507 9.90178C15.4507 11.4881 15.9615 12.7974 16.9829 13.8289Z" fill="white"/>
<path fill-rule="evenodd" clip-rule="evenodd" d="M29.3889 8.08292C29.8003 7.52853 30.3818 7.25098 31.1341 7.25098C31.8716 7.25098 32.446 7.53489 32.8576 8.10224C33.2265 8.59255 33.411 9.18558 33.411 9.88204C33.411 10.6044 33.2334 11.2043 32.879 11.6812C32.4674 12.249 31.8857 12.5324 31.1341 12.5324C30.3962 12.5324 29.8215 12.249 29.4104 11.6812C29.0412 11.1911 28.8569 10.5915 28.8569 9.88204C28.8569 9.17285 29.0341 8.57323 29.3889 8.08292ZM26.8992 13.8478C28.0057 14.9444 29.4172 15.4924 31.1341 15.4924C32.8647 15.4924 34.2762 14.9505 35.3687 13.8671C36.4186 12.81 36.9435 11.4877 36.9435 9.90136C36.9435 8.30228 36.4115 6.96754 35.3475 5.8967C34.2835 4.82632 32.879 4.29102 31.1341 4.29102C29.4172 4.29102 28.0165 4.82986 26.9311 5.90636C25.8458 6.98357 25.3032 8.315 25.3032 9.90136C25.3032 11.475 25.8352 12.7906 26.8992 13.8478Z" fill="white"/>
<path fill-rule="evenodd" clip-rule="evenodd" d="M41.7739 13.0644V10.656H44.1571C45.8312 10.656 47.1503 10.2371 48.1154 9.39855C49.08 8.56048 49.5625 7.38031 49.5625 5.85827C49.5625 4.32374 49.0305 3.13062 47.9665 2.27936C46.959 1.46674 45.597 1.06055 43.8805 1.06055H40.6885C39.7661 1.06055 39.1278 1.22807 38.7732 1.56287C38.4186 1.8979 38.2412 2.48387 38.2412 3.32099V13.058C38.2412 14.5777 38.8298 15.3378 40.0076 15.3378C41.1849 15.3378 41.7739 14.5798 41.7739 13.0644ZM41.7739 4.02051H43.3061C44.9233 4.02051 45.732 4.6331 45.732 5.85827C45.732 7.10936 44.9233 7.7349 43.3061 7.7349H41.7739V4.02051Z" fill="#7DBD53"/>
<path fill-rule="evenodd" clip-rule="evenodd" d="M59.5053 15.338C60.64 15.338 61.2075 14.5758 61.2075 13.0512V6.75236C61.2075 5.24092 60.64 4.48485 59.5053 4.48485C58.81 4.48485 58.2636 4.81376 57.8666 5.47158C57.1713 4.72376 56.2494 4.34961 55.1003 4.34961C53.5255 4.34961 52.2273 4.92992 51.2059 6.09053C50.2408 7.1741 49.7588 8.44451 49.7588 9.90176C49.7588 11.3463 50.2196 12.6037 51.1421 13.6741C52.1493 14.835 53.4261 15.4153 54.9726 15.4153C56.1926 15.4153 57.1572 15.022 57.8666 14.2353C58.2071 14.9704 58.7532 15.338 59.5053 15.338ZM53.8633 8.14128C54.2726 7.61257 54.8303 7.34822 55.5364 7.34822C56.2562 7.34822 56.8139 7.61257 57.2092 8.14128C57.5481 8.60567 57.7177 9.17961 57.7177 9.86312C57.7177 10.5469 57.5481 11.1272 57.2092 11.6043C56.8139 12.1459 56.2562 12.4167 55.5364 12.4167C54.8162 12.4167 54.2514 12.1459 53.8419 11.6043C53.489 11.1272 53.3127 10.5469 53.3127 9.86312C53.3127 9.19257 53.4963 8.61863 53.8633 8.14128Z" fill="#7DBD53"/>
<path fill-rule="evenodd" clip-rule="evenodd" d="M69.187 5.7225L67.0804 10.7139L65.1225 5.99346C64.9098 5.46475 64.7182 5.11015 64.5479 4.92944C64.264 4.63281 63.874 4.48438 63.3776 4.48438C62.8951 4.48438 62.4943 4.63281 62.1753 4.92944C61.856 5.22584 61.6963 5.59316 61.6963 6.03163C61.6963 6.34098 61.7601 6.63125 61.8878 6.9022L65.3553 14.2704L63.9381 17.073C63.7487 17.4707 63.6542 17.8234 63.6542 18.1314C63.6542 18.5934 63.8102 18.9588 64.1224 19.2284C64.4343 19.4974 64.8459 19.6322 65.3567 19.6322C65.9665 19.6322 66.4702 19.2131 66.8675 18.3748L72.1237 7.05747C72.3079 6.65788 72.4005 6.29669 72.4005 5.97414C72.4005 4.98104 71.8329 4.48438 70.698 4.48438C70.0454 4.48438 69.5416 4.8974 69.187 5.7225Z" fill="#7DBD53"/>
<path fill-rule="evenodd" clip-rule="evenodd" d="M80.8552 12.281H77.4575L82.025 6.94441C82.4906 6.40203 82.7233 5.94377 82.7233 5.56939C82.7233 5.15613 82.5457 4.8946 82.1913 4.78481C81.8365 4.67525 81.2901 4.62012 80.5527 4.62012H75.0411C73.5798 4.62012 72.8492 5.0911 72.8492 6.03236C72.8492 6.98705 73.5727 7.46393 75.0198 7.46393H77.9777L73.2535 13.0163C72.913 13.4161 72.7427 13.816 72.7427 14.2156C72.7427 14.8607 73.3456 15.183 74.5517 15.183H80.8293C82.2764 15.183 83 14.7059 83 13.7514C83 12.7713 82.2851 12.281 80.8552 12.281Z" fill="#7DBD53"/>
</svg>
