<svg width="74" height="17" viewBox="0 0 74 17" fill="none" xmlns="http://www.w3.org/2000/svg">
<path d="M71.8932 12.3438C70.7297 12.3438 69.7866 13.2955 69.7866 14.4696C69.7866 15.6435 70.7297 16.5954 71.8932 16.5954C73.0567 16.5954 74 15.6435 74 14.4696C74 13.2954 73.0567 12.3438 71.8932 12.3438ZM64.9621 10.7003C64.9621 9.09289 63.6005 7.79015 61.9209 7.79015C60.2413 7.79015 58.8796 9.09295 58.8796 10.7003C58.8796 12.3077 60.2411 13.6108 61.9209 13.6108C63.6007 13.6108 64.9621 12.3077 64.9621 10.7003ZM64.9734 5.04403H68.3298V16.3561H64.9734V15.6332C64.0252 16.2857 62.8806 16.6693 61.6461 16.6693C58.3792 16.6693 55.7307 13.9969 55.7307 10.7002C55.7307 7.40355 58.3792 4.73134 61.6461 4.73134C62.8806 4.73134 64.0252 5.11492 64.9734 5.76766V5.04399V5.04403ZM38.113 6.51752V5.04419H34.6766V16.3561H38.1207V11.0747C38.1207 9.29286 40.0346 8.33514 41.3626 8.33514C41.3762 8.33514 41.3889 8.33646 41.4025 8.33663V5.04509C40.0395 5.04509 38.7859 5.63399 38.113 6.51774L38.113 6.51752ZM29.5529 10.7003C29.5529 9.09293 28.1912 7.79019 26.5116 7.79019C24.832 7.79019 23.4702 9.09299 23.4702 10.7003C23.4702 12.3077 24.8319 13.6109 26.5116 13.6109C28.1913 13.6109 29.5529 12.3077 29.5529 10.7003ZM29.564 5.04407H32.9206V16.3562H29.564V15.6332C28.6158 16.2858 27.4712 16.6694 26.2369 16.6694C22.9699 16.6694 20.3214 13.997 20.3214 10.7003C20.3214 7.40359 22.9699 4.73138 26.2369 4.73138C27.4713 4.73138 28.6158 5.11496 29.564 5.7677V5.04403V5.04407ZM49.7666 4.73982C48.4259 4.73982 47.1569 5.15986 46.3085 6.3187V5.04475H42.9665V16.3563H46.3496V10.4117C46.3496 8.69149 47.4928 7.84916 48.8692 7.84916C50.3444 7.84916 51.1924 8.73837 51.1924 10.3884V16.3563H54.5449V9.16273C54.5449 6.53025 52.4706 4.74002 49.7666 4.74002V4.73982ZM15.4323 16.3563H18.9454V0.00308661H15.4323V16.3563ZM0 16.3607H3.71998V3.95238e-05H0V16.3607ZM13.0112 3.95238e-05C13.0112 3.54197 11.6433 6.83687 9.20589 9.28596L14.3479 16.3613H9.75329L4.16502 8.67196L5.60726 7.58205C7.99905 5.77415 9.37092 3.01073 9.37092 0H13.0113L13.0112 3.95238e-05Z" fill="white"/>
</svg>
