<svg width="37" height="20" viewBox="0 0 37 30" fill="none" xmlns="http://www.w3.org/2000/svg">
<path d="M23.5975 3.17603H13.6641V20.9754H23.5975V3.17603Z" fill="#FF5F00"/>
<path d="M14.295 12.0783C14.2931 10.3638 14.6826 8.67145 15.4338 7.12928C16.1851 5.5871 17.2784 4.23557 18.631 3.17704C16.9562 1.86472 14.945 1.04866 12.827 0.822141C10.7091 0.59562 8.56998 0.967773 6.65414 1.89607C4.73831 2.82436 3.12306 4.27134 1.993 6.07164C0.862947 7.87193 0.263672 9.95291 0.263672 12.0767C0.263672 14.2005 0.862947 16.2815 1.993 18.0818C3.12306 19.8821 4.73831 21.3291 6.65414 22.2574C8.56998 23.1857 10.7091 23.5578 12.827 23.3313C14.945 23.1048 16.9562 22.2887 18.631 20.9764C17.2788 19.9182 16.1857 18.5672 15.4345 17.0256C14.6833 15.484 14.2936 13.7922 14.295 12.0783Z" fill="#EB001B"/>
<path d="M37.0004 12.0774C37.0003 14.2014 36.4009 16.2825 35.2706 18.0828C34.1404 19.8832 32.5249 21.3302 30.6088 22.2583C28.6927 23.1865 26.5534 23.5584 24.4354 23.3315C22.3173 23.1047 20.306 22.2882 18.6313 20.9755C19.983 19.9164 21.0758 18.565 21.8272 17.0233C22.5786 15.4816 22.969 13.7899 22.969 12.0758C22.969 10.3617 22.5786 8.67005 21.8272 7.12837C21.0758 5.58669 19.983 4.2353 18.6313 3.17615C20.306 1.86342 22.3173 1.04697 24.4354 0.82012C26.5534 0.593274 28.6927 0.965188 30.6088 1.89335C32.5249 2.82151 34.1404 4.26847 35.2706 6.06883C36.4009 7.86918 37.0003 9.95029 37.0004 12.0743V12.0774Z" fill="#F79E1B"/>
<path d="M35.915 19.0889V18.7241H36.0633V18.6487H35.688V18.7241H35.8488V19.0889H35.915ZM36.6435 19.0889V18.6487H36.53L36.3975 18.9631L36.2651 18.6487H36.1642V19.0889H36.2462V18.7587L36.3691 19.0449H36.4543L36.5773 18.7587V19.092L36.6435 19.0889Z" fill="#F79E1B"/>
<path d="M6.94718 29.0875V27.201C6.9582 27.0423 6.93519 26.8831 6.87968 26.734C6.82417 26.5849 6.73743 26.4494 6.62524 26.3363C6.51305 26.2233 6.37798 26.1353 6.22904 26.0784C6.0801 26.0215 5.9207 25.9969 5.76147 26.0062C5.55304 25.9926 5.34476 26.035 5.15838 26.129C4.97201 26.223 4.81436 26.3652 4.7019 26.5407C4.59939 26.3705 4.45271 26.231 4.27733 26.1369C4.10195 26.0428 3.90437 25.9977 3.7054 26.0062C3.53196 25.9974 3.35925 26.034 3.20437 26.1124C3.04949 26.1907 2.91783 26.308 2.82243 26.4527V26.0816H2.1665V29.0875H2.82873V27.4337C2.81465 27.3309 2.82351 27.2262 2.85469 27.1273C2.88587 27.0283 2.93859 26.9374 3.00909 26.8611C3.07959 26.7848 3.16613 26.725 3.26251 26.6859C3.35889 26.6468 3.46275 26.6294 3.56665 26.635C4.00183 26.635 4.22257 26.918 4.22257 27.4274V29.1001H4.8848V27.4337C4.87129 27.331 4.88056 27.2266 4.91195 27.1278C4.94334 27.0291 4.99609 26.9385 5.06647 26.8623C5.13685 26.7861 5.22314 26.7263 5.31926 26.687C5.41537 26.6478 5.51897 26.63 5.62272 26.635C6.07051 26.635 6.28495 26.918 6.28495 27.4274V29.1001L6.94718 29.0875ZM16.745 26.0816H15.6665V25.1698H15.0043V26.0816H14.4051V26.679H15.0169V28.0625C15.0169 28.7605 15.2881 29.1755 16.0639 29.1755C16.3537 29.1765 16.6379 29.0959 16.8838 28.9429L16.6946 28.3832C16.5187 28.4878 16.319 28.5462 16.1143 28.553C15.799 28.553 15.6792 28.3518 15.6792 28.0499V26.679H16.7513L16.745 26.0816ZM22.3393 26.0062C22.1794 26.0015 22.0211 26.0399 21.8813 26.1174C21.7414 26.1949 21.6251 26.3085 21.5446 26.4464V26.0816H20.895V29.0875H21.5509V27.4022C21.5509 26.9054 21.7654 26.6287 22.1816 26.6287C22.3219 26.6268 22.4612 26.6525 22.5916 26.7042L22.7934 26.0754C22.6436 26.0219 22.4858 25.9943 22.3267 25.9936L22.3393 26.0062ZM13.8817 26.3206C13.5104 26.1005 13.0835 25.9914 12.6518 26.0062C11.8887 26.0062 11.3904 26.3709 11.3904 26.9683C11.3904 27.4588 11.7562 27.7606 12.4311 27.855L12.7464 27.899C13.1059 27.9493 13.2762 28.0436 13.2762 28.2134C13.2762 28.4461 13.0365 28.5781 12.5887 28.5781C12.2286 28.5885 11.8753 28.4778 11.5859 28.2637L11.2706 28.7731C11.6527 29.0391 12.1103 29.1757 12.5761 29.163C13.4465 29.163 13.9511 28.7542 13.9511 28.182C13.9511 27.6097 13.5537 27.3771 12.8978 27.2827L12.5824 27.2387C12.2986 27.201 12.0716 27.1444 12.0716 26.9432C12.0716 26.7419 12.286 26.591 12.6455 26.591C12.9778 26.5949 13.3035 26.6836 13.5916 26.8488L13.8817 26.3206ZM31.4497 26.0062C31.2898 26.0015 31.1315 26.0399 30.9917 26.1174C30.8518 26.1949 30.7355 26.3085 30.655 26.4464V26.0816H30.0054V29.0875H30.6613V27.4022C30.6613 26.9054 30.8758 26.6287 31.292 26.6287C31.4323 26.6268 31.5716 26.6525 31.702 26.7042L31.9038 26.0754C31.754 26.0219 31.5962 25.9943 31.4371 25.9936L31.4497 26.0062ZM22.9984 27.5783C22.9906 27.7895 23.0271 28.0001 23.1056 28.1964C23.1841 28.3928 23.3028 28.5706 23.4542 28.7186C23.6056 28.8666 23.7863 28.9814 23.9847 29.0558C24.1832 29.1301 24.395 29.1623 24.6066 29.1504C25.0005 29.1704 25.3875 29.0425 25.6914 28.792L25.3761 28.2637C25.1494 28.4361 24.8729 28.531 24.5877 28.5341C24.3453 28.5146 24.1191 28.4047 23.9542 28.2264C23.7893 28.0482 23.6977 27.8145 23.6977 27.572C23.6977 27.3295 23.7893 27.0958 23.9542 26.9175C24.1191 26.7393 24.3453 26.6294 24.5877 26.6099C24.8729 26.613 25.1494 26.7079 25.3761 26.8803L25.6914 26.352C25.3875 26.1015 25.0005 25.9736 24.6066 25.9936C24.395 25.9816 24.1832 26.0139 23.9847 26.0882C23.7863 26.1626 23.6056 26.2774 23.4542 26.4254C23.3028 26.5734 23.1841 26.7512 23.1056 26.9476C23.0271 27.1439 22.9906 27.3545 22.9984 27.5657V27.5783ZM29.1414 27.5783V26.0816H28.4854V26.4464C28.374 26.3035 28.2302 26.189 28.0657 26.1125C27.9012 26.0359 27.7208 25.9995 27.5394 26.0062C27.1212 26.0062 26.7202 26.1718 26.4245 26.4666C26.1288 26.7615 25.9626 27.1613 25.9626 27.5783C25.9626 27.9952 26.1288 28.3951 26.4245 28.6899C26.7202 28.9848 27.1212 29.1504 27.5394 29.1504C27.7208 29.1571 27.9012 29.1206 28.0657 29.0441C28.2302 28.9676 28.374 28.8531 28.4854 28.7102V29.0749H29.1414V27.5783ZM26.7006 27.5783C26.711 27.4014 26.7731 27.2313 26.8793 27.0892C26.9854 26.947 27.131 26.8389 27.298 26.7781C27.465 26.7174 27.6461 26.7066 27.8192 26.7473C27.9922 26.7879 28.1495 26.878 28.2718 27.0067C28.3941 27.1353 28.476 27.2968 28.5074 27.4713C28.5388 27.6457 28.5183 27.8255 28.4485 27.9886C28.3787 28.1516 28.2626 28.2907 28.1145 28.3887C27.9664 28.4868 27.7928 28.5395 27.6151 28.5404C27.4902 28.542 27.3664 28.5178 27.2513 28.4693C27.1363 28.4209 27.0326 28.3492 26.9467 28.2588C26.8608 28.1685 26.7946 28.0613 26.7522 27.9442C26.7099 27.8271 26.6923 27.7025 26.7006 27.5783ZM18.7853 26.0062C18.3672 26.012 17.9684 26.1832 17.6769 26.4822C17.3853 26.7812 17.2248 27.1833 17.2307 27.6003C17.2365 28.0172 17.4083 28.4148 17.7081 28.7055C18.0079 28.9962 18.4113 29.1562 18.8295 29.1504C19.2832 29.1736 19.7294 29.0279 20.0814 28.7416L19.7661 28.2574C19.5171 28.4566 19.2086 28.5672 18.8894 28.5719C18.6726 28.5904 18.457 28.524 18.2886 28.3866C18.1202 28.2492 18.0122 28.0517 17.9875 27.8361H20.2265C20.2265 27.7544 20.2265 27.6726 20.2265 27.5846C20.2265 26.6413 19.6399 26.0125 18.7948 26.0125L18.7853 26.0062ZM18.7853 26.591C18.8835 26.5889 18.9811 26.6061 19.0726 26.6417C19.164 26.6772 19.2476 26.7304 19.3185 26.7981C19.3893 26.8658 19.4461 26.9468 19.4856 27.0365C19.5251 27.1261 19.5464 27.2226 19.5485 27.3205H17.9717C17.9832 27.1186 18.0734 26.9293 18.2231 26.7929C18.3728 26.6566 18.5701 26.5841 18.7727 26.591H18.7853ZM35.2181 27.5846V24.8743H34.5874V26.4464C34.476 26.3035 34.3321 26.189 34.1676 26.1125C34.0032 26.0359 33.8228 25.9995 33.6414 26.0062C33.2232 26.0062 32.8221 26.1718 32.5264 26.4666C32.2307 26.7615 32.0646 27.1613 32.0646 27.5783C32.0646 27.9952 32.2307 28.3951 32.5264 28.6899C32.8221 28.9848 33.2232 29.1504 33.6414 29.1504C33.8228 29.1571 34.0032 29.1206 34.1676 29.0441C34.3321 28.9676 34.476 28.8531 34.5874 28.7102V29.0749H35.2181V27.5846ZM36.3124 28.6505C36.3534 28.65 36.3941 28.6574 36.4322 28.6725C36.4684 28.6872 36.5016 28.7085 36.5299 28.7354C36.5577 28.7625 36.5801 28.7944 36.5962 28.8297C36.6121 28.8664 36.6204 28.906 36.6204 28.946C36.6204 28.986 36.6121 29.0256 36.5962 29.0624C36.5801 29.0976 36.5577 29.1296 36.5299 29.1567C36.5016 29.1835 36.4684 29.2048 36.4322 29.2196C36.3944 29.2362 36.3536 29.2447 36.3124 29.2447C36.2526 29.2443 36.1942 29.2269 36.1439 29.1946C36.0937 29.1623 36.0537 29.1164 36.0285 29.0624C36.0128 29.0256 36.0046 28.986 36.0046 28.946C36.0046 28.906 36.0128 28.8664 36.0285 28.8297C36.0446 28.7944 36.0671 28.7625 36.0948 28.7354C36.1232 28.7085 36.1563 28.6872 36.1925 28.6725C36.2336 28.6562 36.2776 28.6487 36.3218 28.6505H36.3124ZM36.3124 29.1818C36.3438 29.182 36.375 29.1756 36.4038 29.163C36.4309 29.1509 36.4555 29.1338 36.4763 29.1127C36.5158 29.0697 36.5377 29.0137 36.5377 28.9554C36.5377 28.8972 36.5158 28.8411 36.4763 28.7982C36.4556 28.777 36.431 28.7599 36.4038 28.7479C36.375 28.7354 36.3438 28.729 36.3124 28.7291C36.2809 28.7292 36.2498 28.7356 36.2209 28.7479C36.1926 28.7595 36.1668 28.7766 36.1452 28.7982C36.1058 28.8411 36.0839 28.8972 36.0839 28.9554C36.0839 29.0137 36.1058 29.0697 36.1452 29.1127C36.1669 29.1342 36.1926 29.1513 36.2209 29.163C36.2527 29.1766 36.2872 29.1831 36.3218 29.1818H36.3124ZM36.3313 28.8077C36.3607 28.8062 36.3897 28.8151 36.4133 28.8328C36.4229 28.8408 36.4305 28.8509 36.4355 28.8624C36.4404 28.8739 36.4425 28.8864 36.4417 28.8989C36.4421 28.9093 36.4404 28.9197 36.4366 28.9295C36.4328 28.9392 36.427 28.9481 36.4196 28.9554C36.4013 28.972 36.378 28.982 36.3534 28.9837L36.4448 29.0875H36.3723L36.2871 28.9837H36.2588V29.0875H36.1988V28.8108L36.3313 28.8077ZM36.2619 28.8611V28.9366H36.3313C36.3436 28.9403 36.3568 28.9403 36.3691 28.9366C36.3713 28.9322 36.3725 28.9274 36.3725 28.9224C36.3725 28.9175 36.3713 28.9127 36.3691 28.9083C36.3713 28.9039 36.3725 28.8991 36.3725 28.8941C36.3725 28.8892 36.3713 28.8844 36.3691 28.88C36.3568 28.8763 36.3436 28.8763 36.3313 28.88L36.2619 28.8611ZM32.7931 27.5846C32.8035 27.4076 32.8657 27.2376 32.9718 27.0954C33.078 26.9533 33.2235 26.8452 33.3905 26.7844C33.5575 26.7237 33.7387 26.7129 33.9117 26.7535C34.0847 26.7942 34.2421 26.8843 34.3643 27.013C34.4866 27.1416 34.5685 27.3031 34.5999 27.4776C34.6313 27.652 34.6108 27.8318 34.541 27.9948C34.4712 28.1578 34.3551 28.2969 34.207 28.395C34.059 28.493 33.8853 28.5458 33.7076 28.5467C33.5827 28.5483 33.4589 28.5241 33.3439 28.4756C33.2288 28.4272 33.1251 28.3555 33.0392 28.2651C32.9533 28.1747 32.8871 28.0676 32.8448 27.9505C32.8024 27.8334 32.7848 27.7088 32.7931 27.5846ZM10.6462 27.5846V26.0816H9.99028V26.4464C9.87889 26.3035 9.73501 26.189 9.57052 26.1125C9.40603 26.0359 9.22564 25.9995 9.04424 26.0062C8.62606 26.0062 8.22501 26.1718 7.92932 26.4666C7.63362 26.7615 7.4675 27.1613 7.4675 27.5783C7.4675 27.9952 7.63362 28.3951 7.92932 28.6899C8.22501 28.9848 8.62606 29.1504 9.04424 29.1504C9.22564 29.1571 9.40603 29.1206 9.57052 29.0441C9.73501 28.9676 9.87889 28.8531 9.99028 28.7102V29.0749H10.6462V27.5846ZM8.20541 27.5846C8.21587 27.4076 8.278 27.2376 8.38415 27.0954C8.49029 26.9533 8.63583 26.8452 8.80282 26.7844C8.96982 26.7237 9.15099 26.7129 9.32402 26.7535C9.49705 26.7942 9.6544 26.8843 9.77668 27.013C9.89896 27.1416 9.98083 27.3031 10.0122 27.4776C10.0436 27.652 10.0231 27.8318 9.95335 27.9948C9.88355 28.1578 9.76746 28.2969 9.61938 28.395C9.47129 28.493 9.29768 28.5458 9.11992 28.5467C8.99454 28.5492 8.87001 28.5256 8.75423 28.4775C8.63846 28.4295 8.53397 28.3579 8.44739 28.2675C8.36081 28.177 8.29403 28.0696 8.25129 27.952C8.20855 27.8345 8.19078 27.7093 8.19911 27.5846H8.20541Z" fill="white"/>
</svg>
