<svg width="15" height="15" viewBox="0 0 15 15" fill="none" xmlns="http://www.w3.org/2000/svg">
<path fill-rule="evenodd" clip-rule="evenodd" d="M3.06066 1.06068C2.47487 0.474891 1.52513 0.474891 0.93934 1.06068C0.353554 1.64646 0.353553 2.59621 0.93934 3.182L5.28035 7.52301L1.06068 11.7427C0.474891 12.3285 0.474891 13.2782 1.06068 13.864C1.64646 14.4498 2.59621 14.4498 3.182 13.864L7.40167 9.64433L11.5459 13.7886C12.1317 14.3744 13.0815 14.3744 13.6673 13.7886C14.253 13.2028 14.253 12.2531 13.6673 11.6673L9.52299 7.52301L13.7886 3.25739C14.3744 2.67161 14.3744 1.72186 13.7886 1.13607C13.2028 0.550287 12.2531 0.550287 11.6673 1.13607L7.40167 5.40168L3.06066 1.06068Z" fill="#CB41A2"/>
</svg>
