<svg width="90" height="16" viewBox="0 0 90 16" fill="none" xmlns="http://www.w3.org/2000/svg">
<path d="M88.3556 1.2162C87.2087 0.407864 85.4729 0.000194437 83.1976 0.000194437H77.239L75.0238 12.3722H67.2177L67.7194 9.56529H72.4217L72.9789 6.41263L68.2793 6.41959L68.7824 3.62516H73.626L74.2704 0.000916631H64.4342L62.3313 11.7366H58.7216L60.8388 0.000299371H55.6971L53.5941 11.736H50.0778L52.197 0.000299371H47.058L44.8401 12.3724H36.9779L37.4749 9.56539H42.196L42.7539 6.43064L38.0373 6.42577L38.5377 3.62579H43.4355L44.0759 0H13.4247L11.6801 9.80394L8.2058 0H2.87117L0 16H5.09463L6.83248 5.9257L10.2039 16H28.4626L30.6826 3.62424H33.5382L31.3182 16H79.3605L80.7535 8.18796L83.0066 16H88.1039L85.769 9.6166L86.3032 9.49834C87.4798 9.23887 88.3974 8.68165 89.0364 7.84618C89.6747 7.00307 90 5.92061 90 4.62038C90 3.10665 89.4617 1.99292 88.3541 1.21527L88.3556 1.2162ZM24.0292 12.3722H16.2307L16.7344 9.56529H21.626L22.1804 6.40368H17.336L17.8026 3.62595H25.5898L24.0277 12.3722L24.0292 12.3722ZM84.1555 6.98295C83.643 7.35164 82.8998 7.53111 81.8835 7.53111H80.876L81.6488 3.23745H82.39C83.2339 3.23745 83.8492 3.37658 84.2739 3.66039C84.6052 3.883 84.9994 4.32336 84.9994 5.15604C84.9982 6.16335 84.5396 6.70457 84.1542 6.98283L84.1555 6.98295Z" fill="#83BA3B"/>
</svg>
