<svg id="percent" xmlns="http://www.w3.org/2000/svg" width="22" height="22" viewBox="0 0 22 22">
  <path id="Path_3" data-name="Path 3" d="M11,22A11,11,0,1,0,0,11,11.012,11.012,0,0,0,11,22ZM11,.981A10.019,10.019,0,1,1,.981,11,10.03,10.03,0,0,1,11,.981Zm0,0" fill="#52526c"/>
  <path id="Path_4" data-name="Path 4" d="M91.344,88.972a2.031,2.031,0,1,0-2.031-2.031A2.031,2.031,0,0,0,91.344,88.972Zm0-3.081a1.05,1.05,0,1,1-1.05,1.05A1.05,1.05,0,0,1,91.344,85.891Zm0,0" transform="translate(-83.055 -78.961)" fill="#52526c"/>
  <path id="Path_5" data-name="Path 5" d="M164.953,174.9a2.031,2.031,0,1,0,2.031-2.031A2.031,2.031,0,0,0,164.953,174.9Zm3.081,0a1.05,1.05,0,1,1-1.05-1.05A1.05,1.05,0,0,1,168.035,174.9Zm0,0" transform="translate(-153.396 -160.755)" fill="#52526c"/>
  <path id="Path_6" data-name="Path 6" d="M100.744,85.656a.49.49,0,0,0,.679-.143l6.933-10.631a.49.49,0,1,0-.822-.536L100.6,84.977A.49.49,0,0,0,100.744,85.656Zm0,0" transform="translate(-93.479 -68.93)" fill="#52526c"/>
</svg>
