<svg width="63" height="20" viewBox="0 0 63 20" fill="none" xmlns="http://www.w3.org/2000/svg">
<path fill-rule="evenodd" clip-rule="evenodd" d="M45.2531 4.80505C46.6813 4.80505 47.839 3.7296 47.839 2.40343C47.839 1.07648 46.6813 0 45.2531 0C43.8265 0 42.6694 1.07648 42.6694 2.40343C42.6694 3.7296 43.8265 4.80505 45.2531 4.80505ZM25.4487 6.10205C25.332 6.37446 24.4922 8.57932 22.4611 10.8645V1.09352L17.0493 2.08764V19.7986H22.4611V14.324C24.0285 16.509 24.8025 19.7986 24.8025 19.7986H31.2847C30.6435 17.3211 27.8387 12.7528 27.8387 12.7528C30.356 9.78646 31.4617 6.6257 31.6375 6.10205H25.4487ZM39.676 5.91717C34.8287 6.06176 32.3682 8.08304 32.3682 12.1011V19.7986H37.6563V13.5215C37.6563 11.1155 37.9952 10.0842 41.067 9.9858V5.98766C40.55 5.88566 39.676 5.91717 39.676 5.91717ZM7.97321 8.05231C7.31035 8.01177 5.77571 7.91959 5.77571 6.63551C5.77571 5.08598 7.98515 5.08598 8.81387 5.08598C10.271 5.08598 12.1582 5.48621 13.5058 5.86088C13.5058 5.86088 14.2576 6.10721 14.8974 6.35948L14.9568 6.37446V2.13076L14.8752 2.10829C13.2847 1.5911 11.4353 1.09352 8.00654 1.09352C2.0947 1.09352 0 4.29457 0 7.03677C0 8.61754 0.728979 12.3378 7.49954 12.767C8.0735 12.7998 9.59674 12.8814 9.59674 14.2083C9.59674 15.3039 8.34964 15.95 6.25216 15.95C3.95354 15.95 1.72382 15.4051 0.36949 14.8885V19.2592C2.39696 19.7531 4.68252 20 7.36119 20C13.1416 20 15.7306 16.9714 15.7306 13.9697C15.7306 10.5663 12.8335 8.35494 7.97321 8.05231ZM42.6316 19.7986H47.877V6.11754H42.6316V19.7986ZM57.7538 1.96576V19.7986H63V1.09352L57.7538 1.96576ZM50.099 1.96576L55.3402 1.09352V19.7986H50.099V1.96576Z" fill="white"/>
</svg>
