<svg xmlns="http://www.w3.org/2000/svg" width="21.662" height="20.64" viewBox="0 0 21.662 20.64">
  <path id="star-2" d="M4.377,21.956a.387.387,0,0,1-.382-.453l1.2-6.986L.117,9.57a.388.388,0,0,1,.215-.661L7.347,7.889l3.137-6.356a.387.387,0,0,1,.347-.216h0a.386.386,0,0,1,.347.216l3.137,6.356L21.33,8.909a.388.388,0,0,1,.215.661l-5.076,4.948,1.2,6.986a.388.388,0,0,1-.563.409l-6.274-3.3-6.274,3.3A.391.391,0,0,1,4.377,21.956ZM1.221,9.563,5.88,14.1a.388.388,0,0,1,.111.343l-1.1,6.412,5.759-3.027a.386.386,0,0,1,.361,0L16.77,20.86l-1.1-6.412a.388.388,0,0,1,.111-.343l4.659-4.542L14,8.627a.388.388,0,0,1-.292-.212l-2.88-5.834L7.951,8.416a.388.388,0,0,1-.292.212Z" transform="translate(0 -1.317)" fill="#7d77e9"/>
</svg>
