<svg width="58" height="19" viewBox="0 0 58 19" fill="none" xmlns="http://www.w3.org/2000/svg">
<path fill-rule="evenodd" clip-rule="evenodd" d="M28.7176 0.591688L24.8428 18.7074H20.156L24.0312 0.591688H28.7176ZM48.435 12.2896L50.9023 5.48616L52.3215 12.2896H48.435ZM53.6667 18.7074H58L54.2138 0.591688H50.2164C49.3151 0.591688 48.5561 1.11416 48.2198 1.9197L41.1873 18.7074H46.1095L47.0865 16.0021H53.0985L53.6667 18.7074ZM41.4316 12.7934C41.452 8.01262 34.8225 7.74751 34.8665 5.61115C34.881 4.96193 35.4999 4.27082 36.854 4.09408C37.525 4.00747 39.3769 3.93741 41.4763 4.90454L42.2973 1.06135C41.1693 0.653652 39.7184 0.260742 37.9134 0.260742C33.2801 0.260742 30.0206 2.72171 29.9946 6.24875C29.965 8.85688 32.3232 10.3113 34.0959 11.1798C35.9235 12.0674 36.5361 12.6371 36.5273 13.4303C36.5146 14.6456 35.0693 15.1839 33.7244 15.204C31.3666 15.241 30.0002 14.5671 28.9109 14.0591L28.0603 18.0308C29.157 18.5325 31.1783 18.9697 33.2706 18.9919C38.1961 18.9919 41.4172 16.5598 41.4316 12.7934ZM22.0209 0.591688L14.4271 18.7074H9.4735L5.73628 4.24969C5.50989 3.36107 5.31238 3.034 4.62338 2.65869C3.49641 2.04609 1.63572 1.47362 0 1.11768L0.11055 0.591688H8.08564C9.10171 0.591688 10.0153 1.26766 10.2477 2.43794L12.2218 12.9215L17.0972 0.591688H22.0209Z" fill="white"/>
</svg>
