<svg width="79" height="24" viewBox="0 0 79 24" fill="none" xmlns="http://www.w3.org/2000/svg">
<path d="M66.7023 0H12C5.37258 0 0 5.37258 0 12C0 18.6274 5.37258 24 12 24H66.7023C73.3297 24 78.7022 18.6274 78.7022 12C78.7022 5.37258 73.3297 0 66.7023 0Z" fill="#00A599"/>
<path fill-rule="evenodd" clip-rule="evenodd" d="M20.9736 6.36283C21.7663 6.35902 22.4477 5.79991 22.6062 5.02321C22.672 4.67705 22.5755 4.31985 22.3446 4.05377C22.1136 3.7877 21.7735 3.64205 21.4215 3.65848C20.63 3.67179 19.9559 4.23759 19.8056 5.01484C19.7464 5.35546 19.8434 5.70467 20.0698 5.96596C20.2962 6.22726 20.628 6.37297 20.9736 6.36283Z" fill="white"/>
<path fill-rule="evenodd" clip-rule="evenodd" d="M70.8657 7.13791C69.5763 7.07093 67.9018 8.64079 67.9018 8.64079L67.3701 7.30117H65.9091L65.2016 11.3033C65.1525 11.5786 65.0034 11.8261 64.783 11.9982L62.8448 13.5178C62.8448 13.5178 62.0494 14.1248 60.9526 14.8323C60.5444 15.0537 60.0897 15.1756 59.6255 15.1881C58.7296 15.1881 58.1812 14.8449 57.9175 14.2546C57.8749 14.1455 57.84 14.0336 57.8128 13.9197L62.7861 10.5707C63.3054 10.2507 63.5524 9.62728 63.3932 9.03848C63.0708 7.97098 62.108 7.16303 60.5088 7.16303C57.5282 7.16303 55.4853 9.69992 55.4853 13.3001C55.4855 13.5381 55.5009 13.7758 55.5313 14.0118L54.1205 15.0039C53.8435 15.1791 53.5297 15.288 53.2037 15.3221C52.7851 15.3221 52.5967 14.9956 52.7265 14.2797L54.5727 3.98145H52.2534L51.3283 9.08453C51.2896 9.30298 51.1877 9.50529 51.0352 9.66643L48.4983 12.3331C48.5633 11.8699 48.5955 11.4026 48.5946 10.9349C48.5946 8.76219 47.5857 7.16721 45.8945 7.16721C44.2032 7.16721 43.0394 8.54869 43.0394 8.54869L42.3989 7.31792H40.9505L40.1551 11.8349C40.1202 12.0326 40.0336 12.2175 39.9039 12.3708L38.4303 14.0997C38.0117 14.5183 37.5931 15.0835 37.3754 15.096C36.986 15.163 36.8186 15.0207 36.9567 14.3048L37.547 11.0312C38.0075 8.44403 37.2163 7.13791 34.9892 7.13791C33.6621 7.13791 32.0965 8.62404 32.0965 8.62404C31.7574 7.64864 30.9494 7.11698 29.7228 7.11698C28.3749 7.11698 26.9096 8.68265 26.9096 8.68265L26.3026 7.28024H24.8333L24.0797 11.5544C24.0449 11.7521 23.9582 11.937 23.8285 12.0903L22.154 14.0746C21.7354 14.4932 21.3168 15.0584 21.0991 15.0709C20.7098 15.1379 20.5423 14.9956 20.6805 14.2797L21.9363 7.28024H19.6171L19.2571 9.3692C19.2071 9.63906 19.0856 9.89058 18.9055 10.0976L15.4895 14.0076C14.9073 14.6224 14.1251 15.0098 13.2833 15.1002H10.8845L16.3267 8.94638L16.6072 7.27187H9.62865L9.29374 9.14314H13.367L8.10065 15.3054L7.83691 17.051C7.83691 17.051 12.7642 17.051 12.8605 17.051C14.3047 17.051 15.5899 15.7952 16.1132 15.2551L18.7422 12.1615L18.2524 14.7611C17.9594 16.4357 18.6041 17.2478 20.0023 17.2227C20.8646 17.2227 21.4465 16.6366 22.0368 16.0463L23.6192 14.196L23.0959 17.1641H25.4151L26.4282 11.3033C26.5622 10.5832 27.4874 9.35245 28.4628 9.35245C29.4382 9.35245 29.9866 9.85481 29.748 11.2321L28.7098 17.1641H31.0122L32.13 10.8846C32.1969 10.466 32.9672 9.29385 33.9845 9.29385C35.0017 9.29385 35.4204 9.87993 35.1818 11.2572L34.5371 14.7611C34.244 16.4357 34.8887 17.2478 36.2869 17.2227C37.1493 17.2227 37.7312 16.6366 38.3215 16.0463L39.6946 14.443L38.6522 20.3582H40.9714L41.7249 16.0421C42.0677 16.4733 42.5334 16.7901 43.0604 16.9506C43.1892 16.9916 43.3206 17.0238 43.4539 17.0469C44.9567 17.1222 46.2964 16.398 47.4853 15.1588L50.8594 11.6758L50.311 14.7277C50.0138 16.4022 50.6543 17.1892 52.0525 17.1934C52.9609 17.1934 53.8107 16.7454 54.7024 16.151L55.8871 15.3137L55.9541 15.4477C56.5254 16.5546 57.6907 17.2256 58.9348 17.1641C60.4669 17.1641 61.9656 15.7198 62.8322 15.117C63.0541 14.9621 63.8955 14.2797 64.7998 13.5555L64.1634 17.1641H66.4826L67.4957 11.3033C67.6297 10.5832 68.5549 9.35245 69.5303 9.35245C69.8452 9.33441 70.1584 9.41017 70.4303 9.57014L70.8489 7.10442L70.8657 7.13791ZM42.0389 14.2337L42.5789 11.1609C42.8217 10.4325 43.6716 9.4613 44.5632 9.40688C44.9664 9.35276 45.3746 9.4612 45.6977 9.70829C46.0572 10.1706 46.2358 10.7481 46.2001 11.3326C46.2001 13.5178 45.1326 15.0416 43.6213 15.0416C42.9893 15.0654 42.3903 14.7595 42.0389 14.2337ZM57.9007 11.3828C58.1519 10.173 59.1566 9.14314 60.2409 9.14314C60.8646 9.14314 61.3126 9.60363 61.1493 10.1185L57.7375 12.4587C57.7654 12.0965 57.8199 11.7369 57.9007 11.3828Z" fill="white"/>
</svg>
