<svg xmlns="http://www.w3.org/2000/svg" width="37" height="33" viewBox="0 0 37 33">
    <g fill="none" fill-rule="nonzero">
        <path fill="#FFC800" d="M31.718 26H11.282a2 2 0 0 1-1.96-1.603l-2.836-14A2 2 0 0 1 8.446 8h26.108a2 2 0 0 1 1.96 2.397l-2.836 14A2 2 0 0 1 31.718 26zm-18.424-3.6h16.412l1.823-10.8H11.471l1.823 10.8z"/>
        <circle cx="14.5" cy="30.5" r="2.5" fill="#FFC800"/>
        <circle cx="28.5" cy="30.5" r="2.5" fill="#FFC800"/>
        <path fill="#589FFF" d="M4.228 3.684H1.842a1.842 1.842 0 1 1 0-3.684h6.313a2 2 0 0 1 1.973 1.675l.872 5.3c-1.267-.006-2.16.109-2.676.345-.517.237-1.005.797-1.462 1.68l-.666-3.673a2 2 0 0 0-1.968-1.643z"/>
    </g>
</svg>
