<svg xmlns="http://www.w3.org/2000/svg" width="64" height="47" viewBox="0 0 64 47">
    <g fill="#589FFF" fill-rule="nonzero">
        <path d="M51.812 15.044h-4.029l1.214-13.919A.888.888 0 0 0 49 1.051v-.007a.936.936 0 0 0-.565-.859c-.003 0-.006-.002-.009-.004a.914.914 0 0 0-.064-.023L48.338.15c-.018-.006-.036-.01-.054-.014l-.038-.01-.049-.007-.045-.006-.008-.001C48.128.11 48.111.11 48.095.11l-.033-.002H28.876a.937.937 0 1 0 0 1.873H47.04l-1.865 21.391v.005l-.472 5.397H12.127l.545-5.616h6.203a.937.937 0 1 0 0-1.873h-6.021l1.15-11.857h9.872a.937.937 0 1 0 0-1.873h-9.69l.541-5.574h10.4c.515 0 .937-.421.937-.937a.938.938 0 0 0-.938-.936h-11.25-.001c-.44 0-.822.31-.915.739l-.002.01a1.016 1.016 0 0 0-.011.07c-.001.008-.003.015-.003.023l-.001.004-.64 6.601H.936a.937.937 0 1 0 0 1.873h11.184l-1.15 11.857H7.624a.937.937 0 1 0 0 1.873h3.164l-.627 6.456v.002L9.193 39.6v.007c-.002.013-.002.025-.002.038-.001.018-.003.034-.003.052v.002l.003.072.002.023a.911.911 0 0 0 .01.071l.004.021.014.053c.003.013.005.025.01.037 0 .004.002.007.003.01.045.14.122.265.223.367l.005.006.031.028a.93.93 0 0 0 .218.149c.016.008.033.017.05.024l.016.006c.023.009.047.018.071.025l.007.002c.028.008.056.016.084.022l.011.001c.028.005.055.01.083.013h.002c.03.003.061.004.091.004h4.175a7.144 7.144 0 0 0 7.075 6.192 7.144 7.144 0 0 0 7.074-6.192h15.037a7.144 7.144 0 0 0 7.075 6.192 7.144 7.144 0 0 0 7.075-6.192h4.176a.944.944 0 0 0 .093-.005l.016-.002a.919.919 0 0 0 .072-.01l.03-.008a.906.906 0 0 0 .056-.014l.036-.012a.879.879 0 0 0 .045-.017l.038-.016a1.12 1.12 0 0 0 .152-.086l.037-.028.03-.025a.866.866 0 0 0 .038-.034l.025-.024a.994.994 0 0 0 .038-.042l.02-.022a1.02 1.02 0 0 0 .039-.052l.013-.018a.938.938 0 0 0 .043-.07l.002-.005a.908.908 0 0 0 .04-.08l.008-.024a.913.913 0 0 0 .022-.059l.01-.04c.004-.015.009-.03.012-.046l.008-.043c.002-.013.005-.025.006-.038.04-.318.774-6.2 1.102-10.003v-.01c.095-1.097.156-2.02.156-2.586 0-6.71-5.468-12.17-12.188-12.17zm-4.192 1.873h3.835l-.49 5.616H47.13l.49-5.616zM21.376 44.952a5.265 5.265 0 0 1-5.263-5.255 5.265 5.265 0 0 1 5.263-5.256 5.265 5.265 0 0 1 5.263 5.256 5.265 5.265 0 0 1-5.263 5.255zm29.186 0a5.265 5.265 0 0 1-5.263-5.255 5.265 5.265 0 0 1 5.263-5.256 5.265 5.265 0 0 1 5.263 5.256 5.265 5.265 0 0 1-5.263 5.255zm10.42-6.192h-3.345a7.144 7.144 0 0 0-7.075-6.192 7.144 7.144 0 0 0-7.074 6.192H28.45a7.144 7.144 0 0 0-7.075-6.192 7.144 7.144 0 0 0-7.075 6.192h-3.143l.788-8.114h33.617a.924.924 0 0 0 .094-.004c.006 0 .012-.002.017-.003a.94.94 0 0 0 .073-.01l.03-.008.057-.015.036-.012c.016-.006.032-.01.047-.017l.038-.018c.014-.006.028-.012.041-.02l.038-.02.038-.024c.013-.007.024-.016.036-.024a.946.946 0 0 0 .266-.293l.019-.034.022-.044.016-.037.016-.045.014-.04.011-.044c.004-.015.008-.03.01-.045.004-.015.005-.03.008-.045.002-.015.005-.03.006-.046v-.007l.47-5.386h4.846c2.872 0 4.168 1.486 5.54 3.06 1.13 1.298 2.394 2.747 4.542 3.1-.273 2.88-.714 6.576-.911 8.195zm1.072-10.071c-1.393-.284-2.25-1.262-3.289-2.453-1.298-1.49-2.884-3.308-5.923-3.646l.485-5.561c4.97.734 8.798 5.021 8.798 10.186 0 .35-.026.86-.071 1.474z"/>
        <path d="M21.376 36.264a3.439 3.439 0 0 0-3.438 3.433 3.439 3.439 0 0 0 3.438 3.432 3.439 3.439 0 0 0 3.438-3.432 3.439 3.439 0 0 0-3.438-3.433zm0 4.993c-.862 0-1.563-.7-1.563-1.56a1.563 1.563 0 0 1 3.126 0c0 .86-.701 1.56-1.563 1.56zM50.562 36.264a3.439 3.439 0 0 0-3.438 3.433 3.439 3.439 0 0 0 3.438 3.432A3.439 3.439 0 0 0 54 39.697a3.439 3.439 0 0 0-3.438-3.433zm0 4.993c-.862 0-1.563-.7-1.563-1.56a1.563 1.563 0 0 1 3.125 0c0 .86-.7 1.56-1.562 1.56zM8.875 15.045H4.292a.937.937 0 1 0 0 1.872h4.583a.937.937 0 1 0 0-1.872z"/>
    </g>
</svg>
