<svg xmlns="http://www.w3.org/2000/svg" width="30" height="30" viewBox="0 0 30 30">
    <g fill="none" fill-rule="evenodd" opacity=".601" transform="translate(1 1)">
        <circle cx="14" cy="14" r="14" fill="#FFF" stroke="#353535" stroke-width="2"/>
        <path fill="#353535" d="M13.035 17.269c0-.954.115-1.713.345-2.28.23-.566.686-1.188 1.366-1.865.68-.678 1.111-1.16 1.292-1.447.28-.437.419-.91.419-1.419 0-.674-.162-1.188-.487-1.543-.324-.355-.8-.532-1.428-.532-.6 0-1.083.174-1.45.521-.366.348-.549.82-.549 1.414H10c.014-1.269.434-2.272 1.261-3.01.827-.739 1.92-1.108 3.28-1.108 1.403 0 2.497.366 3.282 1.097C18.608 7.828 19 8.849 19 10.16c0 1.169-.53 2.32-1.59 3.452l-1.288 1.301c-.46.538-.698 1.323-.712 2.355h-2.375zm-.178 3.344c0-.423.129-.765.387-1.027.258-.262.607-.392 1.047-.392.446 0 .799.134 1.057.403.258.269.387.607.387 1.016 0 .394-.126.724-.377.99-.251.264-.607.397-1.067.397-.46 0-.815-.133-1.063-.398-.247-.265-.371-.595-.371-.99z"/>
    </g>
</svg>
