<svg xmlns="http://www.w3.org/2000/svg" width="228" height="40" viewBox="0 0 228 40">
    <g fill="none" fill-rule="evenodd">
        <path fill="#353535" d="M68.984 16.727c0-3.45-.489-6.015-1.466-7.696s-2.495-2.522-4.554-2.522c-2.041 0-3.55.81-4.527 2.43-.978 1.62-1.484 4.084-1.518 7.394v6.804c0 3.345.497 5.81 1.491 7.395.995 1.585 2.53 2.377 4.607 2.377 2.006 0 3.498-.776 4.475-2.325.977-1.55 1.474-3.954 1.492-7.21v-6.647zm7.72 6.41c0 5.131-1.208 9.115-3.624 11.952-2.417 2.837-5.771 4.255-10.063 4.255-4.275 0-7.634-1.405-10.076-4.216-2.444-2.81-3.682-6.746-3.717-11.807V16.78c0-5.254 1.213-9.356 3.638-12.307C55.287 1.523 58.655.047 62.964.047c4.24 0 7.581 1.45 10.024 4.348 2.443 2.898 3.681 6.965 3.717 12.201v6.54zM89.888 18.723h5.42c1.503 0 2.666-.49 3.489-1.473.822-.982 1.234-2.41 1.234-4.286 0-1.946-.42-3.495-1.261-4.647-.841-1.152-1.968-1.737-3.381-1.755h-5.5v12.161zm0 6.563V39H82V0h13.309c3.863 0 6.944 1.196 9.243 3.59 2.299 2.392 3.448 5.5 3.448 9.32 0 3.822-1.136 6.84-3.408 9.054-2.272 2.215-5.42 3.322-9.445 3.322h-5.259zM138 6.562h-9.633V39h-7.894V6.562H111V0h27z"/>
        <path fill="#494949" d="M167 0v27.295c-.018 3.717-1.023 6.597-3.014 8.64C161.994 37.979 159.165 39 155.5 39c-3.718 0-6.564-1.008-8.538-3.026C144.987 33.958 144 31.03 144 27.19V0h3.028v27.083c0 6.078 2.824 9.116 8.472 9.116 5.56 0 8.375-2.95 8.446-8.851V0H167zM183.8 19.768l-4.658 5.25V39H176V0h3.142v20.785l4.41-5.357L195.984 0h3.94l-14.001 17.357L201 39h-3.831zM208.044 19.929h8.046c2.276 0 4.093-.79 5.452-2.371 1.359-1.58 2.038-3.603 2.038-6.067 0-2.732-.706-4.848-2.117-6.348-1.412-1.5-3.388-2.25-5.929-2.25h-7.49V19.93zm8.998 2.84h-8.998V39H205V0h10.56c3.512 0 6.234 1.014 8.166 3.04 1.932 2.027 2.898 4.844 2.898 8.451 0 2.518-.6 4.728-1.8 6.63-1.2 1.901-2.815 3.218-4.844 3.95l8.02 16.58V39h-3.229l-7.729-16.232z"/>
        <path fill="#009FFF" d="M33.325 20.211c0-1.43-.222-2.807-.631-4.1a13.43 13.43 0 0 0-1.048-2.422c-2.278-4.143-6.647-6.953-11.674-6.953-5.039 0-9.423 2.817-11.697 6.974a7.531 7.531 0 0 1 2.242 1.928c1.693-3.551 5.295-6.008 9.455-6.008 4.141 0 7.73 2.436 9.432 5.963a10.6 10.6 0 0 1 1.053 4.6 4.815 4.815 0 0 0 2.251 4.075 4.711 4.711 0 0 0 2.52.732c.445 0 .874-.066 1.282-.18A4.806 4.806 0 0 0 40 20.193v-.01l-.001-.025C39.97 9.02 31.016 0 19.972 0 11.156 0 3.676 5.75 1 13.735a7.368 7.368 0 0 1 3.484-.964c2.763-5.834 8.664-9.877 15.488-9.877 7.86 0 14.5 5.364 16.523 12.653.412 1.485.637 3.048.637 4.664 0 0 .004.056-.004.059a1.912 1.912 0 0 1-1.9 1.82 1.903 1.903 0 0 1-1.898-1.844l-.005-.035z"/>
        <path fill="#FFC900" d="M6.675 18.789c0 1.43.222 2.807.631 4.1.268.849.626 1.655 1.048 2.422 2.277 4.143 6.646 6.953 11.674 6.953 5.038 0 9.423-2.817 11.697-6.974a7.543 7.543 0 0 1-2.242-1.928c-1.693 3.551-5.295 6.008-9.455 6.008-4.141 0-7.73-2.436-9.432-5.962a10.595 10.595 0 0 1-1.053-4.6 4.818 4.818 0 0 0-2.251-4.076A4.713 4.713 0 0 0 4.772 14a4.72 4.72 0 0 0-1.283.18A4.807 4.807 0 0 0 0 18.807v.011l.001.024C.03 29.98 8.984 39 20.028 39 28.844 39 36.324 33.25 39 25.265a7.362 7.362 0 0 1-3.484.964c-2.763 5.834-8.664 9.877-15.488 9.877-7.86 0-14.5-5.364-16.523-12.653a17.395 17.395 0 0 1-.637-4.664s-.004-.056.003-.059a1.912 1.912 0 0 1 1.9-1.82c1.023 0 1.87.819 1.9 1.844l.004.035z"/>
    </g>
</svg>
