<svg xmlns="http://www.w3.org/2000/svg" width="64" height="64" viewBox="0 0 64 64">
    <g fill="#589FFF" fill-rule="nonzero">
        <path d="M58.834 37.56H30.581a5.171 5.171 0 0 0-5.165 5.166v16.012a5.171 5.171 0 0 0 5.165 5.166h21.822a.95.95 0 0 0 0-1.901H30.581a3.268 3.268 0 0 1-3.265-3.265v-8.664H62.1v8.664c0 1.8-1.465 3.265-3.265 3.265h-3.262a.95.95 0 1 0 0 1.9h3.262A5.172 5.172 0 0 0 64 58.739V42.726a5.172 5.172 0 0 0-5.166-5.166zm-28.253 1.9h28.253c1.8 0 3.265 1.465 3.265 3.266v.335H27.316v-.335c0-1.8 1.465-3.265 3.265-3.265zm-3.265 8.713v-3.21H62.1v3.21H27.316z"/>
        <path d="M41.814 52.675a.95.95 0 0 0 0 1.9h5.788a.95.95 0 1 0 0-1.9h-5.788zM57.771 53.625a.95.95 0 0 0-.95-.95h-5.788a.95.95 0 1 0 0 1.9h5.788a.95.95 0 0 0 .95-.95zM32.595 52.675a.95.95 0 0 0 0 1.9h5.787a.95.95 0 1 0 0-1.9h-5.787zM46.632 28.442a.95.95 0 0 0 .95-.95V.95a.95.95 0 0 0-.95-.951H.95A.95.95 0 0 0 0 .95v6.92a.95.95 0 0 0 1.9 0V1.9h43.781v24.64H1.901V11.04a.95.95 0 1 0-1.901 0V27.49c0 .525.426.95.95.95h45.682z"/>
        <path d="M34.673 24.45h3.062a.95.95 0 0 0 .95-.95 3.96 3.96 0 0 1 3.955-3.955.95.95 0 0 0 .95-.95V9.847a.95.95 0 0 0-.95-.951 3.96 3.96 0 0 1-3.955-3.955.95.95 0 0 0-.95-.95H9.848a.95.95 0 0 0-.951.95 3.96 3.96 0 0 1-3.955 3.955.95.95 0 0 0-.95.95v8.747c0 .525.425.95.95.95A3.96 3.96 0 0 1 8.897 23.5c0 .525.426.95.95.95h21.658a.95.95 0 0 0 0-1.9H10.72a5.872 5.872 0 0 0-4.829-4.83v-6.999a5.872 5.872 0 0 0 4.83-4.829h26.14a5.872 5.872 0 0 0 4.828 4.83v7a5.871 5.871 0 0 0-4.829 4.828h-2.188a.95.95 0 1 0 0 1.9z"/>
        <path d="M17.897 14.22a5.9 5.9 0 0 0 5.894 5.894 5.9 5.9 0 0 0 5.894-5.893 5.9 5.9 0 0 0-5.894-5.893 5.9 5.9 0 0 0-5.894 5.893zm9.887 0a3.997 3.997 0 0 1-3.993 3.993 3.997 3.997 0 0 1-3.992-3.992 3.997 3.997 0 0 1 3.992-3.992 3.997 3.997 0 0 1 3.993 3.992zM37.234 15.171a.95.95 0 1 0 0-1.9h-3.041a.95.95 0 1 0 0 1.9h3.041zM10.348 13.27a.95.95 0 1 0 0 1.901h3.041a.95.95 0 1 0 0-1.9h-3.041zM48.692 11.782a26.079 26.079 0 0 1 9.426 21.037l-2.243-2.333a.95.95 0 0 0-1.37 1.318l3.678 3.824a.948.948 0 0 0 .624.29.951.951 0 0 0 .924-.46l3.62-3.481a.95.95 0 1 0-1.318-1.37l-2.005 1.928c.005-.214.01-.428.01-.641a27.972 27.972 0 0 0-10.13-21.574.95.95 0 1 0-1.216 1.462zM23.135 56.489a26.07 26.07 0 0 1-12.413-9.414 25.918 25.918 0 0 1-4.774-13.07l2.325 2.041a.951.951 0 0 0 1.254-1.428l-3.986-3.502a.95.95 0 0 0-1.342.087L.698 35.19a.95.95 0 1 0 1.428 1.254l1.934-2.202a27.805 27.805 0 0 0 5.116 13.939A27.955 27.955 0 0 0 22.49 58.277a.951.951 0 0 0 .645-1.788zM42.64 5.892a.958.958 0 0 1-.909-.674.96.96 0 0 1 .306-1.01c.656-.539 1.673.033 1.544.874a.96.96 0 0 1-.94.81zM42.64 24.45a.958.958 0 0 1-.886-.608.96.96 0 0 1 .298-1.089c.676-.535 1.695.085 1.52.933a.96.96 0 0 1-.931.765zM4.942 5.892a.96.96 0 0 1-.91-.674.958.958 0 0 1 .352-1.045c.686-.493 1.655.123 1.49.954a.96.96 0 0 1-.932.765zM4.942 24.45a.96.96 0 0 1-.91-.674.96.96 0 0 1 .402-1.08c.71-.45 1.636.224 1.429 1.037a.96.96 0 0 1-.921.718z"/>
    </g>
</svg>
