<svg xmlns="http://www.w3.org/2000/svg" width="31" height="44" viewBox="0 0 31 44">
    <path fill="#FFC80A" fill-rule="evenodd" d="M30.22 8.008a.776.776 0 0 1-.779-.771c0-3.14-2.581-5.695-5.756-5.695a.775.775 0 0 1-.779-.77c0-.427.349-.772.78-.772C27.718 0 31 3.246 31 7.237a.776.776 0 0 1-.78.77zm-3.064.504a.775.775 0 0 1-.78.771.775.775 0 0 1-.78-.771c0-1.594-1.31-2.89-2.922-2.89a.775.775 0 0 1-.779-.772c0-.426.348-.771.78-.771 2.47 0 4.48 1.988 4.48 4.433zm-3.702 3.096v28.536c0 2.126-1.92 3.856-4.282 3.856H4.282C1.921 44 0 42.27 0 40.144V11.608c0-2.126 1.921-3.856 4.282-3.856h14.89c2.361 0 4.282 1.73 4.282 3.856zm-1.559 0c0-1.276-1.222-2.313-2.723-2.313H4.282c-1.5 0-2.722 1.037-2.722 2.313v22.35h20.335v-22.35zm0 23.894H1.56v4.642c0 1.276 1.221 2.314 2.722 2.314h14.89c1.5 0 2.723-1.038 2.723-2.314v-4.642zm-10.168 5.066a1.538 1.538 0 0 1-1.546-1.53c0-.843.692-1.528 1.546-1.528.853 0 1.545.685 1.545 1.529 0 .844-.692 1.53-1.545 1.53z"/>
</svg>
