<svg xmlns="http://www.w3.org/2000/svg" width="34" height="34" viewBox="0 0 34 34">
    <g fill="none" fill-rule="evenodd" transform="translate(0 1)">
        <circle cx="16.745" cy="16" r="15.766" fill="#FFF" stroke="#FFC80A" stroke-width="2"/>
        <path fill="#353535" fill-rule="nonzero" d="M20.02 9.06c-2.745-2.746-7.215-2.746-9.96 0a7.053 7.053 0 0 0 0 9.96c2.445 2.446 6.253 2.707 8.997.799.058.273.19.533.403.746l3.999 3.999a1.487 1.487 0 1 0 2.104-2.104l-3.999-4a1.488 1.488 0 0 0-.746-.402c1.91-2.744 1.649-6.552-.797-8.999zm-1.262 8.698a5.265 5.265 0 0 1-7.436 0 5.266 5.266 0 0 1 0-7.435 5.266 5.266 0 0 1 7.436 0 5.264 5.264 0 0 1 0 7.435z"/>
    </g>
</svg>
