<svg width="166" height="166" viewBox="0 0 166 166" fill="none" xmlns="http://www.w3.org/2000/svg">
<path d="M83.0001 142.2C50.3995 142.2 23.8516 115.642 23.8516 83.0298C23.8516 50.4174 50.3995 23.8599 83.0001 23.8599C115.601 23.8599 142.149 50.4174 142.149 83.0298C142.149 115.642 115.601 142.2 83.0001 142.2ZM83.0001 30.5142C54.0551 30.5142 30.5035 54.0743 30.5035 83.0298C30.5035 111.985 54.0551 135.545 83.0001 135.545C111.945 135.545 135.497 111.985 135.497 83.0298C135.497 54.0743 111.945 30.5142 83.0001 30.5142Z" fill="#D3BF68"/>
<path d="M82.997 111.686C67.1761 111.686 54.3516 98.7965 54.3516 83.0298C54.3516 67.2032 67.236 54.374 82.997 54.374C98.8179 54.374 111.642 67.2631 111.642 83.0298C111.642 98.8564 98.8179 111.686 82.997 111.686ZM82.997 61.0284C70.8916 61.0284 61.0635 70.8601 61.0635 82.9698C61.0635 95.0796 70.8916 104.911 82.997 104.911C95.1024 104.911 104.93 95.0796 104.93 82.9698C104.93 70.92 95.1024 61.0284 82.997 61.0284Z" fill="#D3BF68"/>
<path d="M82.9982 94.3605C76.7657 94.3605 71.6719 89.2649 71.6719 83.0301C71.6719 76.7954 76.7657 71.6997 82.9982 71.6997C89.2307 71.6997 94.3245 76.7954 94.3245 83.0301C94.3245 89.2649 89.2307 94.3605 82.9982 94.3605ZM82.9982 78.3541C80.4213 78.3541 78.3238 80.4523 78.3238 83.0301C78.3238 85.6079 80.4213 87.7062 82.9982 87.7062C85.5751 87.7062 87.6726 85.6079 87.6726 83.0301C87.6726 80.4523 85.5751 78.3541 82.9982 78.3541Z" fill="#D3BF68"/>
<path d="M80.7812 90.6436V163.782C80.7812 165.041 81.8 166 82.9986 166C84.2571 166 85.2159 164.981 85.2159 163.782V90.6436C84.4968 90.8234 83.7776 91.0033 82.9986 91.0033C82.2195 91.0033 81.5004 90.8834 80.7812 90.6436Z" fill="#D3BF68"/>
<path d="M85.2159 75.3563V2.21812C85.2159 0.959189 84.1971 0 82.9986 0C81.7401 0 80.7812 1.01914 80.7812 2.21812V75.3563C81.5004 75.1165 82.2195 74.9966 82.9986 74.9966C83.7776 74.9966 84.4968 75.1764 85.2159 75.3563Z" fill="#D3BF68"/>
<path d="M163.78 80.812H90.668C90.8478 81.5314 91.0275 82.2508 91.0275 83.0301C91.0275 83.8095 90.9077 84.5289 90.668 85.2483H163.78C165.038 85.2483 165.997 84.2291 165.997 83.0301C165.997 81.7712 164.978 80.812 163.78 80.812Z" fill="#D3BF68"/>
<path d="M75.329 80.8115H2.21732C0.958842 80.8115 0 81.8307 0 83.0296C0 84.2886 1.01877 85.2478 2.21732 85.2478H75.329C75.1492 84.5284 74.9695 83.809 74.9695 83.0296C74.9695 82.2503 75.1492 81.5309 75.329 80.8115Z" fill="#D3BF68"/>
</svg>
